G04 #@! TF.GenerationSoftware,KiCad,Pcbnew,(5.1.0)-1*
G04 #@! TF.CreationDate,2019-04-18T22:20:22-04:00*
G04 #@! TF.ProjectId,Gen1,47656e31-2e6b-4696-9361-645f70636258,1*
G04 #@! TF.SameCoordinates,Original*
G04 #@! TF.FileFunction,Copper,L2,Bot*
G04 #@! TF.FilePolarity,Positive*
%FSLAX46Y46*%
G04 Gerber Fmt 4.6, Leading zero omitted, Abs format (unit mm)*
G04 Created by KiCad (PCBNEW (5.1.0)-1) date 2019-04-18 22:20:22*
%MOMM*%
%LPD*%
G04 APERTURE LIST*
%ADD10C,1.524000*%
%ADD11C,2.499360*%
%ADD12R,2.499360X2.499360*%
%ADD13C,0.800000*%
%ADD14C,0.250000*%
%ADD15C,0.254000*%
G04 APERTURE END LIST*
D10*
X67310000Y-35560000D03*
X67310000Y-38100000D03*
X67310000Y-40640000D03*
X67310000Y-45720000D03*
X67310000Y-43180000D03*
X67310000Y-48260000D03*
X67310000Y-50800000D03*
X67310000Y-53340000D03*
X67310000Y-55880000D03*
X67310000Y-58420000D03*
X67310000Y-60960000D03*
X67310000Y-63500000D03*
X67310000Y-66040000D03*
X67310000Y-68580000D03*
X67310000Y-71120000D03*
X67310000Y-73660000D03*
X67310000Y-76200000D03*
X67310000Y-78740000D03*
X67310000Y-81280000D03*
X67310000Y-83820000D03*
X67310000Y-86360000D03*
X67310000Y-88900000D03*
X67310000Y-91440000D03*
X67310000Y-93980000D03*
X67310000Y-96520000D03*
X67310000Y-99060000D03*
X67310000Y-101600000D03*
X67310000Y-104140000D03*
X67310000Y-106680000D03*
X67310000Y-109220000D03*
X67310000Y-111760000D03*
X67310000Y-114300000D03*
X59690000Y-114300000D03*
X59690000Y-111760000D03*
X59690000Y-109220000D03*
X59690000Y-106680000D03*
X59690000Y-104140000D03*
X59690000Y-101600000D03*
X59690000Y-99060000D03*
X59690000Y-96520000D03*
X59690000Y-93980000D03*
X59690000Y-91440000D03*
X59690000Y-88900000D03*
X59690000Y-86360000D03*
X59690000Y-83820000D03*
X59690000Y-81280000D03*
X59690000Y-78740000D03*
X59690000Y-76200000D03*
X59690000Y-73660000D03*
X59690000Y-71120000D03*
X59690000Y-68580000D03*
X59690000Y-66040000D03*
X59690000Y-63500000D03*
X59690000Y-60960000D03*
X59690000Y-58420000D03*
X59690000Y-55880000D03*
X59690000Y-53340000D03*
X59690000Y-50800000D03*
X59690000Y-48260000D03*
X59690000Y-43180000D03*
X59690000Y-45720000D03*
X59690000Y-40640000D03*
X59690000Y-38100000D03*
X59690000Y-35560000D03*
X30480000Y-64770000D03*
X38100000Y-64770000D03*
X30480000Y-67310000D03*
X38100000Y-67310000D03*
X30480000Y-69850000D03*
X38100000Y-69850000D03*
X30480000Y-72390000D03*
X38100000Y-72390000D03*
X30480000Y-74930000D03*
X38100000Y-74930000D03*
X30480000Y-77470000D03*
X38100000Y-77470000D03*
X30480000Y-80010000D03*
X38100000Y-80010000D03*
X80010000Y-85090000D03*
X80010000Y-82550000D03*
X80010000Y-80010000D03*
X80010000Y-77470000D03*
X80010000Y-74930000D03*
X80010000Y-72390000D03*
X80010000Y-69850000D03*
X80010000Y-67310000D03*
X80010000Y-64770000D03*
X80010000Y-59690000D03*
X80010000Y-62230000D03*
X80010000Y-57150000D03*
X80010000Y-54610000D03*
X80010000Y-52070000D03*
X80010000Y-49530000D03*
X80010000Y-46990000D03*
X80010000Y-44450000D03*
X80010000Y-41910000D03*
X80010000Y-39370000D03*
X80010000Y-36830000D03*
D11*
X16510000Y-35560000D03*
D12*
X20320000Y-35560000D03*
X46990000Y-35560000D03*
D11*
X50800000Y-35560000D03*
X16510000Y-92710000D03*
D12*
X16510000Y-96520000D03*
X44450000Y-113030000D03*
D11*
X40640000Y-113030000D03*
D13*
X17780000Y-80010000D03*
X71120000Y-51435000D03*
X72390000Y-56242001D03*
X75565000Y-49530000D03*
X77030153Y-50995153D03*
D14*
X41889679Y-114279679D02*
X40640000Y-113030000D01*
X44099990Y-116489990D02*
X41889679Y-114279679D01*
X65120010Y-116489990D02*
X44099990Y-116489990D01*
X67310000Y-114300000D02*
X65120010Y-116489990D01*
X60960000Y-36830000D02*
X59690000Y-38100000D01*
X80010000Y-36830000D02*
X60960000Y-36830000D01*
X17780000Y-80010000D02*
X30480000Y-80010000D01*
X59690000Y-111760000D02*
X63500000Y-107950000D01*
X79248001Y-52831999D02*
X80010000Y-52070000D01*
X75112999Y-56967001D02*
X79248001Y-52831999D01*
X66788239Y-56967001D02*
X75112999Y-56967001D01*
X63500000Y-60255240D02*
X66788239Y-56967001D01*
X63500000Y-107950000D02*
X63500000Y-60255240D01*
X80010000Y-44450000D02*
X78105000Y-44450000D01*
X78105000Y-44450000D02*
X71120000Y-51435000D01*
X73297999Y-56242001D02*
X80010000Y-49530000D01*
X72390000Y-56242001D02*
X73297999Y-56242001D01*
X80771999Y-40131999D02*
X80010000Y-39370000D01*
X82199990Y-41559990D02*
X80771999Y-40131999D01*
X82199990Y-52420010D02*
X82199990Y-41559990D01*
X80010000Y-54610000D02*
X82199990Y-52420010D01*
X60451999Y-34798001D02*
X59690000Y-35560000D01*
X60777001Y-34472999D02*
X60451999Y-34798001D01*
X79261761Y-34472999D02*
X60777001Y-34472999D01*
X81097001Y-36308239D02*
X79261761Y-34472999D01*
X81097001Y-38282999D02*
X81097001Y-36308239D01*
X80010000Y-39370000D02*
X81097001Y-38282999D01*
X31750000Y-73660000D02*
X59690000Y-73660000D01*
X30480000Y-72390000D02*
X31750000Y-73660000D01*
X34290000Y-71120000D02*
X59690000Y-71120000D01*
X30480000Y-67310000D02*
X34290000Y-71120000D01*
X75565000Y-49530000D02*
X76835000Y-50800000D01*
X76835000Y-50800000D02*
X77030153Y-50995153D01*
D15*
G36*
X81890000Y-40175199D02*
G01*
X81376372Y-39661571D01*
X81407000Y-39507592D01*
X81407000Y-39232408D01*
X81376372Y-39078430D01*
X81608005Y-38846797D01*
X81637002Y-38823000D01*
X81731975Y-38707275D01*
X81802547Y-38575246D01*
X81846004Y-38431985D01*
X81857001Y-38320332D01*
X81857001Y-38320331D01*
X81860678Y-38282999D01*
X81857001Y-38245666D01*
X81857001Y-36345561D01*
X81860677Y-36308238D01*
X81857001Y-36270915D01*
X81857001Y-36270906D01*
X81846004Y-36159253D01*
X81802547Y-36015992D01*
X81731975Y-35883963D01*
X81637002Y-35768238D01*
X81608004Y-35744440D01*
X79825565Y-33962002D01*
X79801762Y-33932998D01*
X79686037Y-33838025D01*
X79554008Y-33767453D01*
X79410747Y-33723996D01*
X79299094Y-33712999D01*
X79299083Y-33712999D01*
X79261761Y-33709323D01*
X79224439Y-33712999D01*
X60814323Y-33712999D01*
X60777000Y-33709323D01*
X60739677Y-33712999D01*
X60739668Y-33712999D01*
X60628015Y-33723996D01*
X60484754Y-33767453D01*
X60352725Y-33838025D01*
X60237000Y-33932998D01*
X60213197Y-33962002D01*
X59981571Y-34193628D01*
X59827592Y-34163000D01*
X59552408Y-34163000D01*
X59282510Y-34216686D01*
X59028273Y-34321995D01*
X58799465Y-34474880D01*
X58604880Y-34669465D01*
X58451995Y-34898273D01*
X58346686Y-35152510D01*
X58293000Y-35422408D01*
X58293000Y-35697592D01*
X58346686Y-35967490D01*
X58451995Y-36221727D01*
X58604880Y-36450535D01*
X58799465Y-36645120D01*
X59028273Y-36798005D01*
X59099943Y-36827692D01*
X59086977Y-36832364D01*
X58971020Y-36894344D01*
X58904040Y-37134435D01*
X59690000Y-37920395D01*
X60475960Y-37134435D01*
X60408980Y-36894344D01*
X60273240Y-36830515D01*
X60351727Y-36798005D01*
X60580535Y-36645120D01*
X60775120Y-36450535D01*
X60928005Y-36221727D01*
X61033314Y-35967490D01*
X61087000Y-35697592D01*
X61087000Y-35422408D01*
X61056372Y-35268429D01*
X61091802Y-35232999D01*
X65950676Y-35232999D01*
X65913000Y-35422408D01*
X65913000Y-35697592D01*
X65966686Y-35967490D01*
X66071995Y-36221727D01*
X66224880Y-36450535D01*
X66419465Y-36645120D01*
X66648273Y-36798005D01*
X66725515Y-36830000D01*
X66648273Y-36861995D01*
X66419465Y-37014880D01*
X66224880Y-37209465D01*
X66071995Y-37438273D01*
X65966686Y-37692510D01*
X65913000Y-37962408D01*
X65913000Y-38237592D01*
X65966686Y-38507490D01*
X66071995Y-38761727D01*
X66224880Y-38990535D01*
X66419465Y-39185120D01*
X66648273Y-39338005D01*
X66725515Y-39370000D01*
X66648273Y-39401995D01*
X66419465Y-39554880D01*
X66224880Y-39749465D01*
X66071995Y-39978273D01*
X65966686Y-40232510D01*
X65913000Y-40502408D01*
X65913000Y-40777592D01*
X65966686Y-41047490D01*
X66071995Y-41301727D01*
X66224880Y-41530535D01*
X66419465Y-41725120D01*
X66648273Y-41878005D01*
X66725515Y-41910000D01*
X66648273Y-41941995D01*
X66419465Y-42094880D01*
X66224880Y-42289465D01*
X66071995Y-42518273D01*
X65966686Y-42772510D01*
X65913000Y-43042408D01*
X65913000Y-43317592D01*
X65966686Y-43587490D01*
X66071995Y-43841727D01*
X66224880Y-44070535D01*
X66419465Y-44265120D01*
X66648273Y-44418005D01*
X66725515Y-44450000D01*
X66648273Y-44481995D01*
X66419465Y-44634880D01*
X66224880Y-44829465D01*
X66071995Y-45058273D01*
X65966686Y-45312510D01*
X65913000Y-45582408D01*
X65913000Y-45857592D01*
X65966686Y-46127490D01*
X66071995Y-46381727D01*
X66224880Y-46610535D01*
X66419465Y-46805120D01*
X66648273Y-46958005D01*
X66725515Y-46990000D01*
X66648273Y-47021995D01*
X66419465Y-47174880D01*
X66224880Y-47369465D01*
X66071995Y-47598273D01*
X65966686Y-47852510D01*
X65913000Y-48122408D01*
X65913000Y-48397592D01*
X65966686Y-48667490D01*
X66071995Y-48921727D01*
X66224880Y-49150535D01*
X66419465Y-49345120D01*
X66648273Y-49498005D01*
X66725515Y-49530000D01*
X66648273Y-49561995D01*
X66419465Y-49714880D01*
X66224880Y-49909465D01*
X66071995Y-50138273D01*
X65966686Y-50392510D01*
X65913000Y-50662408D01*
X65913000Y-50937592D01*
X65966686Y-51207490D01*
X66071995Y-51461727D01*
X66224880Y-51690535D01*
X66419465Y-51885120D01*
X66648273Y-52038005D01*
X66725515Y-52070000D01*
X66648273Y-52101995D01*
X66419465Y-52254880D01*
X66224880Y-52449465D01*
X66071995Y-52678273D01*
X65966686Y-52932510D01*
X65913000Y-53202408D01*
X65913000Y-53477592D01*
X65966686Y-53747490D01*
X66071995Y-54001727D01*
X66224880Y-54230535D01*
X66419465Y-54425120D01*
X66648273Y-54578005D01*
X66725515Y-54610000D01*
X66648273Y-54641995D01*
X66419465Y-54794880D01*
X66224880Y-54989465D01*
X66071995Y-55218273D01*
X65966686Y-55472510D01*
X65913000Y-55742408D01*
X65913000Y-56017592D01*
X65966686Y-56287490D01*
X66071995Y-56541727D01*
X66098718Y-56581720D01*
X62988998Y-59691441D01*
X62960000Y-59715239D01*
X62936202Y-59744237D01*
X62936201Y-59744238D01*
X62865026Y-59830964D01*
X62794454Y-59962994D01*
X62764180Y-60062798D01*
X62753657Y-60097490D01*
X62750998Y-60106255D01*
X62736324Y-60255240D01*
X62740001Y-60292573D01*
X62740000Y-107635198D01*
X61087000Y-109288198D01*
X61087000Y-109082408D01*
X61033314Y-108812510D01*
X60928005Y-108558273D01*
X60775120Y-108329465D01*
X60580535Y-108134880D01*
X60351727Y-107981995D01*
X60274485Y-107950000D01*
X60351727Y-107918005D01*
X60580535Y-107765120D01*
X60775120Y-107570535D01*
X60928005Y-107341727D01*
X61033314Y-107087490D01*
X61087000Y-106817592D01*
X61087000Y-106542408D01*
X61033314Y-106272510D01*
X60928005Y-106018273D01*
X60775120Y-105789465D01*
X60580535Y-105594880D01*
X60351727Y-105441995D01*
X60274485Y-105410000D01*
X60351727Y-105378005D01*
X60580535Y-105225120D01*
X60775120Y-105030535D01*
X60928005Y-104801727D01*
X61033314Y-104547490D01*
X61087000Y-104277592D01*
X61087000Y-104002408D01*
X61033314Y-103732510D01*
X60928005Y-103478273D01*
X60775120Y-103249465D01*
X60580535Y-103054880D01*
X60351727Y-102901995D01*
X60274485Y-102870000D01*
X60351727Y-102838005D01*
X60580535Y-102685120D01*
X60775120Y-102490535D01*
X60928005Y-102261727D01*
X61033314Y-102007490D01*
X61087000Y-101737592D01*
X61087000Y-101462408D01*
X61033314Y-101192510D01*
X60928005Y-100938273D01*
X60775120Y-100709465D01*
X60580535Y-100514880D01*
X60351727Y-100361995D01*
X60274485Y-100330000D01*
X60351727Y-100298005D01*
X60580535Y-100145120D01*
X60775120Y-99950535D01*
X60928005Y-99721727D01*
X61033314Y-99467490D01*
X61087000Y-99197592D01*
X61087000Y-98922408D01*
X61033314Y-98652510D01*
X60928005Y-98398273D01*
X60775120Y-98169465D01*
X60580535Y-97974880D01*
X60351727Y-97821995D01*
X60274485Y-97790000D01*
X60351727Y-97758005D01*
X60580535Y-97605120D01*
X60775120Y-97410535D01*
X60928005Y-97181727D01*
X61033314Y-96927490D01*
X61087000Y-96657592D01*
X61087000Y-96382408D01*
X61033314Y-96112510D01*
X60928005Y-95858273D01*
X60775120Y-95629465D01*
X60580535Y-95434880D01*
X60351727Y-95281995D01*
X60274485Y-95250000D01*
X60351727Y-95218005D01*
X60580535Y-95065120D01*
X60775120Y-94870535D01*
X60928005Y-94641727D01*
X61033314Y-94387490D01*
X61087000Y-94117592D01*
X61087000Y-93842408D01*
X61033314Y-93572510D01*
X60928005Y-93318273D01*
X60775120Y-93089465D01*
X60580535Y-92894880D01*
X60351727Y-92741995D01*
X60274485Y-92710000D01*
X60351727Y-92678005D01*
X60580535Y-92525120D01*
X60775120Y-92330535D01*
X60928005Y-92101727D01*
X61033314Y-91847490D01*
X61087000Y-91577592D01*
X61087000Y-91302408D01*
X61033314Y-91032510D01*
X60928005Y-90778273D01*
X60775120Y-90549465D01*
X60580535Y-90354880D01*
X60351727Y-90201995D01*
X60274485Y-90170000D01*
X60351727Y-90138005D01*
X60580535Y-89985120D01*
X60775120Y-89790535D01*
X60928005Y-89561727D01*
X61033314Y-89307490D01*
X61087000Y-89037592D01*
X61087000Y-88762408D01*
X61033314Y-88492510D01*
X60928005Y-88238273D01*
X60775120Y-88009465D01*
X60580535Y-87814880D01*
X60351727Y-87661995D01*
X60274485Y-87630000D01*
X60351727Y-87598005D01*
X60580535Y-87445120D01*
X60775120Y-87250535D01*
X60928005Y-87021727D01*
X61033314Y-86767490D01*
X61087000Y-86497592D01*
X61087000Y-86222408D01*
X61033314Y-85952510D01*
X60928005Y-85698273D01*
X60775120Y-85469465D01*
X60580535Y-85274880D01*
X60351727Y-85121995D01*
X60274485Y-85090000D01*
X60351727Y-85058005D01*
X60580535Y-84905120D01*
X60775120Y-84710535D01*
X60928005Y-84481727D01*
X61033314Y-84227490D01*
X61087000Y-83957592D01*
X61087000Y-83682408D01*
X61033314Y-83412510D01*
X60928005Y-83158273D01*
X60775120Y-82929465D01*
X60580535Y-82734880D01*
X60351727Y-82581995D01*
X60274485Y-82550000D01*
X60351727Y-82518005D01*
X60580535Y-82365120D01*
X60775120Y-82170535D01*
X60928005Y-81941727D01*
X61033314Y-81687490D01*
X61087000Y-81417592D01*
X61087000Y-81142408D01*
X61033314Y-80872510D01*
X60928005Y-80618273D01*
X60775120Y-80389465D01*
X60580535Y-80194880D01*
X60351727Y-80041995D01*
X60274485Y-80010000D01*
X60351727Y-79978005D01*
X60580535Y-79825120D01*
X60775120Y-79630535D01*
X60928005Y-79401727D01*
X61033314Y-79147490D01*
X61087000Y-78877592D01*
X61087000Y-78602408D01*
X61033314Y-78332510D01*
X60928005Y-78078273D01*
X60775120Y-77849465D01*
X60580535Y-77654880D01*
X60351727Y-77501995D01*
X60274485Y-77470000D01*
X60351727Y-77438005D01*
X60580535Y-77285120D01*
X60775120Y-77090535D01*
X60928005Y-76861727D01*
X61033314Y-76607490D01*
X61087000Y-76337592D01*
X61087000Y-76062408D01*
X61033314Y-75792510D01*
X60928005Y-75538273D01*
X60775120Y-75309465D01*
X60580535Y-75114880D01*
X60351727Y-74961995D01*
X60274485Y-74930000D01*
X60351727Y-74898005D01*
X60580535Y-74745120D01*
X60775120Y-74550535D01*
X60928005Y-74321727D01*
X61033314Y-74067490D01*
X61087000Y-73797592D01*
X61087000Y-73522408D01*
X61033314Y-73252510D01*
X60928005Y-72998273D01*
X60775120Y-72769465D01*
X60580535Y-72574880D01*
X60351727Y-72421995D01*
X60274485Y-72390000D01*
X60351727Y-72358005D01*
X60580535Y-72205120D01*
X60775120Y-72010535D01*
X60928005Y-71781727D01*
X61033314Y-71527490D01*
X61087000Y-71257592D01*
X61087000Y-70982408D01*
X61033314Y-70712510D01*
X60928005Y-70458273D01*
X60775120Y-70229465D01*
X60580535Y-70034880D01*
X60351727Y-69881995D01*
X60274485Y-69850000D01*
X60351727Y-69818005D01*
X60580535Y-69665120D01*
X60775120Y-69470535D01*
X60928005Y-69241727D01*
X61033314Y-68987490D01*
X61087000Y-68717592D01*
X61087000Y-68442408D01*
X61033314Y-68172510D01*
X60928005Y-67918273D01*
X60775120Y-67689465D01*
X60580535Y-67494880D01*
X60351727Y-67341995D01*
X60274485Y-67310000D01*
X60351727Y-67278005D01*
X60580535Y-67125120D01*
X60775120Y-66930535D01*
X60928005Y-66701727D01*
X61033314Y-66447490D01*
X61087000Y-66177592D01*
X61087000Y-65902408D01*
X61033314Y-65632510D01*
X60928005Y-65378273D01*
X60775120Y-65149465D01*
X60580535Y-64954880D01*
X60351727Y-64801995D01*
X60274485Y-64770000D01*
X60351727Y-64738005D01*
X60580535Y-64585120D01*
X60775120Y-64390535D01*
X60928005Y-64161727D01*
X61033314Y-63907490D01*
X61087000Y-63637592D01*
X61087000Y-63362408D01*
X61033314Y-63092510D01*
X60928005Y-62838273D01*
X60775120Y-62609465D01*
X60580535Y-62414880D01*
X60351727Y-62261995D01*
X60274485Y-62230000D01*
X60351727Y-62198005D01*
X60580535Y-62045120D01*
X60775120Y-61850535D01*
X60928005Y-61621727D01*
X61033314Y-61367490D01*
X61087000Y-61097592D01*
X61087000Y-60822408D01*
X61033314Y-60552510D01*
X60928005Y-60298273D01*
X60775120Y-60069465D01*
X60580535Y-59874880D01*
X60351727Y-59721995D01*
X60274485Y-59690000D01*
X60351727Y-59658005D01*
X60580535Y-59505120D01*
X60775120Y-59310535D01*
X60928005Y-59081727D01*
X61033314Y-58827490D01*
X61087000Y-58557592D01*
X61087000Y-58282408D01*
X61033314Y-58012510D01*
X60928005Y-57758273D01*
X60775120Y-57529465D01*
X60580535Y-57334880D01*
X60351727Y-57181995D01*
X60274485Y-57150000D01*
X60351727Y-57118005D01*
X60580535Y-56965120D01*
X60775120Y-56770535D01*
X60928005Y-56541727D01*
X61033314Y-56287490D01*
X61087000Y-56017592D01*
X61087000Y-55742408D01*
X61033314Y-55472510D01*
X60928005Y-55218273D01*
X60775120Y-54989465D01*
X60580535Y-54794880D01*
X60351727Y-54641995D01*
X60274485Y-54610000D01*
X60351727Y-54578005D01*
X60580535Y-54425120D01*
X60775120Y-54230535D01*
X60928005Y-54001727D01*
X61033314Y-53747490D01*
X61087000Y-53477592D01*
X61087000Y-53202408D01*
X61033314Y-52932510D01*
X60928005Y-52678273D01*
X60775120Y-52449465D01*
X60580535Y-52254880D01*
X60351727Y-52101995D01*
X60274485Y-52070000D01*
X60351727Y-52038005D01*
X60580535Y-51885120D01*
X60775120Y-51690535D01*
X60928005Y-51461727D01*
X61033314Y-51207490D01*
X61087000Y-50937592D01*
X61087000Y-50662408D01*
X61033314Y-50392510D01*
X60928005Y-50138273D01*
X60775120Y-49909465D01*
X60580535Y-49714880D01*
X60351727Y-49561995D01*
X60274485Y-49530000D01*
X60351727Y-49498005D01*
X60580535Y-49345120D01*
X60775120Y-49150535D01*
X60928005Y-48921727D01*
X61033314Y-48667490D01*
X61087000Y-48397592D01*
X61087000Y-48122408D01*
X61033314Y-47852510D01*
X60928005Y-47598273D01*
X60775120Y-47369465D01*
X60580535Y-47174880D01*
X60351727Y-47021995D01*
X60274485Y-46990000D01*
X60351727Y-46958005D01*
X60580535Y-46805120D01*
X60775120Y-46610535D01*
X60928005Y-46381727D01*
X61033314Y-46127490D01*
X61087000Y-45857592D01*
X61087000Y-45582408D01*
X61033314Y-45312510D01*
X60928005Y-45058273D01*
X60775120Y-44829465D01*
X60580535Y-44634880D01*
X60351727Y-44481995D01*
X60274485Y-44450000D01*
X60351727Y-44418005D01*
X60580535Y-44265120D01*
X60775120Y-44070535D01*
X60928005Y-43841727D01*
X61033314Y-43587490D01*
X61087000Y-43317592D01*
X61087000Y-43042408D01*
X61033314Y-42772510D01*
X60928005Y-42518273D01*
X60775120Y-42289465D01*
X60580535Y-42094880D01*
X60351727Y-41941995D01*
X60274485Y-41910000D01*
X60351727Y-41878005D01*
X60580535Y-41725120D01*
X60775120Y-41530535D01*
X60928005Y-41301727D01*
X61033314Y-41047490D01*
X61087000Y-40777592D01*
X61087000Y-40502408D01*
X61033314Y-40232510D01*
X60928005Y-39978273D01*
X60775120Y-39749465D01*
X60580535Y-39554880D01*
X60351727Y-39401995D01*
X60280057Y-39372308D01*
X60293023Y-39367636D01*
X60408980Y-39305656D01*
X60475960Y-39065565D01*
X59690000Y-38279605D01*
X58904040Y-39065565D01*
X58971020Y-39305656D01*
X59106760Y-39369485D01*
X59028273Y-39401995D01*
X58799465Y-39554880D01*
X58604880Y-39749465D01*
X58451995Y-39978273D01*
X58346686Y-40232510D01*
X58293000Y-40502408D01*
X58293000Y-40777592D01*
X58346686Y-41047490D01*
X58451995Y-41301727D01*
X58604880Y-41530535D01*
X58799465Y-41725120D01*
X59028273Y-41878005D01*
X59105515Y-41910000D01*
X59028273Y-41941995D01*
X58799465Y-42094880D01*
X58604880Y-42289465D01*
X58451995Y-42518273D01*
X58346686Y-42772510D01*
X58293000Y-43042408D01*
X58293000Y-43317592D01*
X58346686Y-43587490D01*
X58451995Y-43841727D01*
X58604880Y-44070535D01*
X58799465Y-44265120D01*
X59028273Y-44418005D01*
X59105515Y-44450000D01*
X59028273Y-44481995D01*
X58799465Y-44634880D01*
X58604880Y-44829465D01*
X58451995Y-45058273D01*
X58346686Y-45312510D01*
X58293000Y-45582408D01*
X58293000Y-45857592D01*
X58346686Y-46127490D01*
X58451995Y-46381727D01*
X58604880Y-46610535D01*
X58799465Y-46805120D01*
X59028273Y-46958005D01*
X59105515Y-46990000D01*
X59028273Y-47021995D01*
X58799465Y-47174880D01*
X58604880Y-47369465D01*
X58451995Y-47598273D01*
X58346686Y-47852510D01*
X58293000Y-48122408D01*
X58293000Y-48397592D01*
X58346686Y-48667490D01*
X58451995Y-48921727D01*
X58604880Y-49150535D01*
X58799465Y-49345120D01*
X59028273Y-49498005D01*
X59105515Y-49530000D01*
X59028273Y-49561995D01*
X58799465Y-49714880D01*
X58604880Y-49909465D01*
X58451995Y-50138273D01*
X58346686Y-50392510D01*
X58293000Y-50662408D01*
X58293000Y-50937592D01*
X58346686Y-51207490D01*
X58451995Y-51461727D01*
X58604880Y-51690535D01*
X58799465Y-51885120D01*
X59028273Y-52038005D01*
X59105515Y-52070000D01*
X59028273Y-52101995D01*
X58799465Y-52254880D01*
X58604880Y-52449465D01*
X58451995Y-52678273D01*
X58346686Y-52932510D01*
X58293000Y-53202408D01*
X58293000Y-53477592D01*
X58346686Y-53747490D01*
X58451995Y-54001727D01*
X58604880Y-54230535D01*
X58799465Y-54425120D01*
X59028273Y-54578005D01*
X59105515Y-54610000D01*
X59028273Y-54641995D01*
X58799465Y-54794880D01*
X58604880Y-54989465D01*
X58451995Y-55218273D01*
X58346686Y-55472510D01*
X58293000Y-55742408D01*
X58293000Y-56017592D01*
X58346686Y-56287490D01*
X58451995Y-56541727D01*
X58604880Y-56770535D01*
X58799465Y-56965120D01*
X59028273Y-57118005D01*
X59105515Y-57150000D01*
X59028273Y-57181995D01*
X58799465Y-57334880D01*
X58604880Y-57529465D01*
X58451995Y-57758273D01*
X58346686Y-58012510D01*
X58293000Y-58282408D01*
X58293000Y-58557592D01*
X58346686Y-58827490D01*
X58451995Y-59081727D01*
X58604880Y-59310535D01*
X58799465Y-59505120D01*
X59028273Y-59658005D01*
X59105515Y-59690000D01*
X59028273Y-59721995D01*
X58799465Y-59874880D01*
X58604880Y-60069465D01*
X58451995Y-60298273D01*
X58346686Y-60552510D01*
X58293000Y-60822408D01*
X58293000Y-61097592D01*
X58346686Y-61367490D01*
X58451995Y-61621727D01*
X58604880Y-61850535D01*
X58799465Y-62045120D01*
X59028273Y-62198005D01*
X59105515Y-62230000D01*
X59028273Y-62261995D01*
X58799465Y-62414880D01*
X58604880Y-62609465D01*
X58451995Y-62838273D01*
X58346686Y-63092510D01*
X58293000Y-63362408D01*
X58293000Y-63637592D01*
X58346686Y-63907490D01*
X58451995Y-64161727D01*
X58604880Y-64390535D01*
X58799465Y-64585120D01*
X59028273Y-64738005D01*
X59105515Y-64770000D01*
X59028273Y-64801995D01*
X58799465Y-64954880D01*
X58604880Y-65149465D01*
X58451995Y-65378273D01*
X58346686Y-65632510D01*
X58293000Y-65902408D01*
X58293000Y-66177592D01*
X58346686Y-66447490D01*
X58451995Y-66701727D01*
X58604880Y-66930535D01*
X58799465Y-67125120D01*
X59028273Y-67278005D01*
X59105515Y-67310000D01*
X59028273Y-67341995D01*
X58799465Y-67494880D01*
X58604880Y-67689465D01*
X58451995Y-67918273D01*
X58346686Y-68172510D01*
X58293000Y-68442408D01*
X58293000Y-68717592D01*
X58346686Y-68987490D01*
X58451995Y-69241727D01*
X58604880Y-69470535D01*
X58799465Y-69665120D01*
X59028273Y-69818005D01*
X59105515Y-69850000D01*
X59028273Y-69881995D01*
X58799465Y-70034880D01*
X58604880Y-70229465D01*
X58517659Y-70360000D01*
X39400853Y-70360000D01*
X39443314Y-70257490D01*
X39497000Y-69987592D01*
X39497000Y-69712408D01*
X39443314Y-69442510D01*
X39338005Y-69188273D01*
X39185120Y-68959465D01*
X38990535Y-68764880D01*
X38761727Y-68611995D01*
X38684485Y-68580000D01*
X38761727Y-68548005D01*
X38990535Y-68395120D01*
X39185120Y-68200535D01*
X39338005Y-67971727D01*
X39443314Y-67717490D01*
X39497000Y-67447592D01*
X39497000Y-67172408D01*
X39443314Y-66902510D01*
X39338005Y-66648273D01*
X39185120Y-66419465D01*
X38990535Y-66224880D01*
X38761727Y-66071995D01*
X38684485Y-66040000D01*
X38761727Y-66008005D01*
X38990535Y-65855120D01*
X39185120Y-65660535D01*
X39338005Y-65431727D01*
X39443314Y-65177490D01*
X39497000Y-64907592D01*
X39497000Y-64632408D01*
X39443314Y-64362510D01*
X39338005Y-64108273D01*
X39185120Y-63879465D01*
X38990535Y-63684880D01*
X38761727Y-63531995D01*
X38507490Y-63426686D01*
X38237592Y-63373000D01*
X37962408Y-63373000D01*
X37692510Y-63426686D01*
X37438273Y-63531995D01*
X37209465Y-63684880D01*
X37014880Y-63879465D01*
X36861995Y-64108273D01*
X36756686Y-64362510D01*
X36703000Y-64632408D01*
X36703000Y-64907592D01*
X36756686Y-65177490D01*
X36861995Y-65431727D01*
X37014880Y-65660535D01*
X37209465Y-65855120D01*
X37438273Y-66008005D01*
X37515515Y-66040000D01*
X37438273Y-66071995D01*
X37209465Y-66224880D01*
X37014880Y-66419465D01*
X36861995Y-66648273D01*
X36756686Y-66902510D01*
X36703000Y-67172408D01*
X36703000Y-67447592D01*
X36756686Y-67717490D01*
X36861995Y-67971727D01*
X37014880Y-68200535D01*
X37209465Y-68395120D01*
X37438273Y-68548005D01*
X37515515Y-68580000D01*
X37438273Y-68611995D01*
X37209465Y-68764880D01*
X37014880Y-68959465D01*
X36861995Y-69188273D01*
X36756686Y-69442510D01*
X36703000Y-69712408D01*
X36703000Y-69987592D01*
X36756686Y-70257490D01*
X36799147Y-70360000D01*
X34604802Y-70360000D01*
X31846372Y-67601571D01*
X31877000Y-67447592D01*
X31877000Y-67172408D01*
X31823314Y-66902510D01*
X31718005Y-66648273D01*
X31565120Y-66419465D01*
X31370535Y-66224880D01*
X31141727Y-66071995D01*
X31064485Y-66040000D01*
X31141727Y-66008005D01*
X31370535Y-65855120D01*
X31565120Y-65660535D01*
X31718005Y-65431727D01*
X31823314Y-65177490D01*
X31877000Y-64907592D01*
X31877000Y-64632408D01*
X31823314Y-64362510D01*
X31718005Y-64108273D01*
X31565120Y-63879465D01*
X31370535Y-63684880D01*
X31141727Y-63531995D01*
X30887490Y-63426686D01*
X30617592Y-63373000D01*
X30342408Y-63373000D01*
X30072510Y-63426686D01*
X29818273Y-63531995D01*
X29589465Y-63684880D01*
X29394880Y-63879465D01*
X29241995Y-64108273D01*
X29136686Y-64362510D01*
X29083000Y-64632408D01*
X29083000Y-64907592D01*
X29136686Y-65177490D01*
X29241995Y-65431727D01*
X29394880Y-65660535D01*
X29589465Y-65855120D01*
X29818273Y-66008005D01*
X29895515Y-66040000D01*
X29818273Y-66071995D01*
X29589465Y-66224880D01*
X29394880Y-66419465D01*
X29241995Y-66648273D01*
X29136686Y-66902510D01*
X29083000Y-67172408D01*
X29083000Y-67447592D01*
X29136686Y-67717490D01*
X29241995Y-67971727D01*
X29394880Y-68200535D01*
X29589465Y-68395120D01*
X29818273Y-68548005D01*
X29895515Y-68580000D01*
X29818273Y-68611995D01*
X29589465Y-68764880D01*
X29394880Y-68959465D01*
X29241995Y-69188273D01*
X29136686Y-69442510D01*
X29083000Y-69712408D01*
X29083000Y-69987592D01*
X29136686Y-70257490D01*
X29241995Y-70511727D01*
X29394880Y-70740535D01*
X29589465Y-70935120D01*
X29818273Y-71088005D01*
X29895515Y-71120000D01*
X29818273Y-71151995D01*
X29589465Y-71304880D01*
X29394880Y-71499465D01*
X29241995Y-71728273D01*
X29136686Y-71982510D01*
X29083000Y-72252408D01*
X29083000Y-72527592D01*
X29136686Y-72797490D01*
X29241995Y-73051727D01*
X29394880Y-73280535D01*
X29589465Y-73475120D01*
X29818273Y-73628005D01*
X29895515Y-73660000D01*
X29818273Y-73691995D01*
X29589465Y-73844880D01*
X29394880Y-74039465D01*
X29241995Y-74268273D01*
X29136686Y-74522510D01*
X29083000Y-74792408D01*
X29083000Y-75067592D01*
X29136686Y-75337490D01*
X29241995Y-75591727D01*
X29394880Y-75820535D01*
X29589465Y-76015120D01*
X29818273Y-76168005D01*
X29895515Y-76200000D01*
X29818273Y-76231995D01*
X29589465Y-76384880D01*
X29394880Y-76579465D01*
X29241995Y-76808273D01*
X29136686Y-77062510D01*
X29083000Y-77332408D01*
X29083000Y-77607592D01*
X29136686Y-77877490D01*
X29241995Y-78131727D01*
X29394880Y-78360535D01*
X29589465Y-78555120D01*
X29818273Y-78708005D01*
X29889943Y-78737692D01*
X29876977Y-78742364D01*
X29761020Y-78804344D01*
X29694040Y-79044435D01*
X30480000Y-79830395D01*
X31265960Y-79044435D01*
X31198980Y-78804344D01*
X31063240Y-78740515D01*
X31141727Y-78708005D01*
X31370535Y-78555120D01*
X31565120Y-78360535D01*
X31718005Y-78131727D01*
X31823314Y-77877490D01*
X31877000Y-77607592D01*
X31877000Y-77332408D01*
X31823314Y-77062510D01*
X31718005Y-76808273D01*
X31565120Y-76579465D01*
X31370535Y-76384880D01*
X31141727Y-76231995D01*
X31064485Y-76200000D01*
X31141727Y-76168005D01*
X31370535Y-76015120D01*
X31565120Y-75820535D01*
X31718005Y-75591727D01*
X31823314Y-75337490D01*
X31877000Y-75067592D01*
X31877000Y-74792408D01*
X31823314Y-74522510D01*
X31781106Y-74420612D01*
X31787322Y-74420000D01*
X36799147Y-74420000D01*
X36756686Y-74522510D01*
X36703000Y-74792408D01*
X36703000Y-75067592D01*
X36756686Y-75337490D01*
X36861995Y-75591727D01*
X37014880Y-75820535D01*
X37209465Y-76015120D01*
X37438273Y-76168005D01*
X37515515Y-76200000D01*
X37438273Y-76231995D01*
X37209465Y-76384880D01*
X37014880Y-76579465D01*
X36861995Y-76808273D01*
X36756686Y-77062510D01*
X36703000Y-77332408D01*
X36703000Y-77607592D01*
X36756686Y-77877490D01*
X36861995Y-78131727D01*
X37014880Y-78360535D01*
X37209465Y-78555120D01*
X37438273Y-78708005D01*
X37515515Y-78740000D01*
X37438273Y-78771995D01*
X37209465Y-78924880D01*
X37014880Y-79119465D01*
X36861995Y-79348273D01*
X36756686Y-79602510D01*
X36703000Y-79872408D01*
X36703000Y-80147592D01*
X36756686Y-80417490D01*
X36861995Y-80671727D01*
X37014880Y-80900535D01*
X37209465Y-81095120D01*
X37438273Y-81248005D01*
X37692510Y-81353314D01*
X37962408Y-81407000D01*
X38237592Y-81407000D01*
X38507490Y-81353314D01*
X38761727Y-81248005D01*
X38990535Y-81095120D01*
X39185120Y-80900535D01*
X39338005Y-80671727D01*
X39443314Y-80417490D01*
X39497000Y-80147592D01*
X39497000Y-79872408D01*
X39443314Y-79602510D01*
X39338005Y-79348273D01*
X39185120Y-79119465D01*
X38990535Y-78924880D01*
X38761727Y-78771995D01*
X38684485Y-78740000D01*
X38761727Y-78708005D01*
X38990535Y-78555120D01*
X39185120Y-78360535D01*
X39338005Y-78131727D01*
X39443314Y-77877490D01*
X39497000Y-77607592D01*
X39497000Y-77332408D01*
X39443314Y-77062510D01*
X39338005Y-76808273D01*
X39185120Y-76579465D01*
X38990535Y-76384880D01*
X38761727Y-76231995D01*
X38684485Y-76200000D01*
X38761727Y-76168005D01*
X38990535Y-76015120D01*
X39185120Y-75820535D01*
X39338005Y-75591727D01*
X39443314Y-75337490D01*
X39497000Y-75067592D01*
X39497000Y-74792408D01*
X39443314Y-74522510D01*
X39400853Y-74420000D01*
X58517659Y-74420000D01*
X58604880Y-74550535D01*
X58799465Y-74745120D01*
X59028273Y-74898005D01*
X59105515Y-74930000D01*
X59028273Y-74961995D01*
X58799465Y-75114880D01*
X58604880Y-75309465D01*
X58451995Y-75538273D01*
X58346686Y-75792510D01*
X58293000Y-76062408D01*
X58293000Y-76337592D01*
X58346686Y-76607490D01*
X58451995Y-76861727D01*
X58604880Y-77090535D01*
X58799465Y-77285120D01*
X59028273Y-77438005D01*
X59105515Y-77470000D01*
X59028273Y-77501995D01*
X58799465Y-77654880D01*
X58604880Y-77849465D01*
X58451995Y-78078273D01*
X58346686Y-78332510D01*
X58293000Y-78602408D01*
X58293000Y-78877592D01*
X58346686Y-79147490D01*
X58451995Y-79401727D01*
X58604880Y-79630535D01*
X58799465Y-79825120D01*
X59028273Y-79978005D01*
X59105515Y-80010000D01*
X59028273Y-80041995D01*
X58799465Y-80194880D01*
X58604880Y-80389465D01*
X58451995Y-80618273D01*
X58346686Y-80872510D01*
X58293000Y-81142408D01*
X58293000Y-81417592D01*
X58346686Y-81687490D01*
X58451995Y-81941727D01*
X58604880Y-82170535D01*
X58799465Y-82365120D01*
X59028273Y-82518005D01*
X59105515Y-82550000D01*
X59028273Y-82581995D01*
X58799465Y-82734880D01*
X58604880Y-82929465D01*
X58451995Y-83158273D01*
X58346686Y-83412510D01*
X58293000Y-83682408D01*
X58293000Y-83957592D01*
X58346686Y-84227490D01*
X58451995Y-84481727D01*
X58604880Y-84710535D01*
X58799465Y-84905120D01*
X59028273Y-85058005D01*
X59105515Y-85090000D01*
X59028273Y-85121995D01*
X58799465Y-85274880D01*
X58604880Y-85469465D01*
X58451995Y-85698273D01*
X58346686Y-85952510D01*
X58293000Y-86222408D01*
X58293000Y-86497592D01*
X58346686Y-86767490D01*
X58451995Y-87021727D01*
X58604880Y-87250535D01*
X58799465Y-87445120D01*
X59028273Y-87598005D01*
X59105515Y-87630000D01*
X59028273Y-87661995D01*
X58799465Y-87814880D01*
X58604880Y-88009465D01*
X58451995Y-88238273D01*
X58346686Y-88492510D01*
X58293000Y-88762408D01*
X58293000Y-89037592D01*
X58346686Y-89307490D01*
X58451995Y-89561727D01*
X58604880Y-89790535D01*
X58799465Y-89985120D01*
X59028273Y-90138005D01*
X59105515Y-90170000D01*
X59028273Y-90201995D01*
X58799465Y-90354880D01*
X58604880Y-90549465D01*
X58451995Y-90778273D01*
X58346686Y-91032510D01*
X58293000Y-91302408D01*
X58293000Y-91577592D01*
X58346686Y-91847490D01*
X58451995Y-92101727D01*
X58604880Y-92330535D01*
X58799465Y-92525120D01*
X59028273Y-92678005D01*
X59105515Y-92710000D01*
X59028273Y-92741995D01*
X58799465Y-92894880D01*
X58604880Y-93089465D01*
X58451995Y-93318273D01*
X58346686Y-93572510D01*
X58293000Y-93842408D01*
X58293000Y-94117592D01*
X58346686Y-94387490D01*
X58451995Y-94641727D01*
X58604880Y-94870535D01*
X58799465Y-95065120D01*
X59028273Y-95218005D01*
X59105515Y-95250000D01*
X59028273Y-95281995D01*
X58799465Y-95434880D01*
X58604880Y-95629465D01*
X58451995Y-95858273D01*
X58346686Y-96112510D01*
X58293000Y-96382408D01*
X58293000Y-96657592D01*
X58346686Y-96927490D01*
X58451995Y-97181727D01*
X58604880Y-97410535D01*
X58799465Y-97605120D01*
X59028273Y-97758005D01*
X59105515Y-97790000D01*
X59028273Y-97821995D01*
X58799465Y-97974880D01*
X58604880Y-98169465D01*
X58451995Y-98398273D01*
X58346686Y-98652510D01*
X58293000Y-98922408D01*
X58293000Y-99197592D01*
X58346686Y-99467490D01*
X58451995Y-99721727D01*
X58604880Y-99950535D01*
X58799465Y-100145120D01*
X59028273Y-100298005D01*
X59105515Y-100330000D01*
X59028273Y-100361995D01*
X58799465Y-100514880D01*
X58604880Y-100709465D01*
X58451995Y-100938273D01*
X58346686Y-101192510D01*
X58293000Y-101462408D01*
X58293000Y-101737592D01*
X58346686Y-102007490D01*
X58451995Y-102261727D01*
X58604880Y-102490535D01*
X58799465Y-102685120D01*
X59028273Y-102838005D01*
X59105515Y-102870000D01*
X59028273Y-102901995D01*
X58799465Y-103054880D01*
X58604880Y-103249465D01*
X58451995Y-103478273D01*
X58346686Y-103732510D01*
X58293000Y-104002408D01*
X58293000Y-104277592D01*
X58346686Y-104547490D01*
X58451995Y-104801727D01*
X58604880Y-105030535D01*
X58799465Y-105225120D01*
X59028273Y-105378005D01*
X59105515Y-105410000D01*
X59028273Y-105441995D01*
X58799465Y-105594880D01*
X58604880Y-105789465D01*
X58451995Y-106018273D01*
X58346686Y-106272510D01*
X58293000Y-106542408D01*
X58293000Y-106817592D01*
X58346686Y-107087490D01*
X58451995Y-107341727D01*
X58604880Y-107570535D01*
X58799465Y-107765120D01*
X59028273Y-107918005D01*
X59105515Y-107950000D01*
X59028273Y-107981995D01*
X58799465Y-108134880D01*
X58604880Y-108329465D01*
X58451995Y-108558273D01*
X58346686Y-108812510D01*
X58293000Y-109082408D01*
X58293000Y-109357592D01*
X58346686Y-109627490D01*
X58451995Y-109881727D01*
X58604880Y-110110535D01*
X58799465Y-110305120D01*
X59028273Y-110458005D01*
X59105515Y-110490000D01*
X59028273Y-110521995D01*
X58799465Y-110674880D01*
X58604880Y-110869465D01*
X58451995Y-111098273D01*
X58346686Y-111352510D01*
X58293000Y-111622408D01*
X58293000Y-111897592D01*
X58346686Y-112167490D01*
X58451995Y-112421727D01*
X58604880Y-112650535D01*
X58799465Y-112845120D01*
X59028273Y-112998005D01*
X59105515Y-113030000D01*
X59028273Y-113061995D01*
X58799465Y-113214880D01*
X58604880Y-113409465D01*
X58451995Y-113638273D01*
X58346686Y-113892510D01*
X58293000Y-114162408D01*
X58293000Y-114437592D01*
X58346686Y-114707490D01*
X58451995Y-114961727D01*
X58604880Y-115190535D01*
X58799465Y-115385120D01*
X59028273Y-115538005D01*
X59282510Y-115643314D01*
X59552408Y-115697000D01*
X59827592Y-115697000D01*
X60097490Y-115643314D01*
X60351727Y-115538005D01*
X60580535Y-115385120D01*
X60700090Y-115265565D01*
X66524040Y-115265565D01*
X66591020Y-115505656D01*
X66840048Y-115622756D01*
X67107135Y-115689023D01*
X67382017Y-115701910D01*
X67654133Y-115660922D01*
X67913023Y-115567636D01*
X68028980Y-115505656D01*
X68095960Y-115265565D01*
X67310000Y-114479605D01*
X66524040Y-115265565D01*
X60700090Y-115265565D01*
X60775120Y-115190535D01*
X60928005Y-114961727D01*
X61033314Y-114707490D01*
X61087000Y-114437592D01*
X61087000Y-114372017D01*
X65908090Y-114372017D01*
X65949078Y-114644133D01*
X66042364Y-114903023D01*
X66104344Y-115018980D01*
X66344435Y-115085960D01*
X67130395Y-114300000D01*
X67489605Y-114300000D01*
X68275565Y-115085960D01*
X68515656Y-115018980D01*
X68632756Y-114769952D01*
X68699023Y-114502865D01*
X68711910Y-114227983D01*
X68670922Y-113955867D01*
X68577636Y-113696977D01*
X68515656Y-113581020D01*
X68275565Y-113514040D01*
X67489605Y-114300000D01*
X67130395Y-114300000D01*
X66344435Y-113514040D01*
X66104344Y-113581020D01*
X65987244Y-113830048D01*
X65920977Y-114097135D01*
X65908090Y-114372017D01*
X61087000Y-114372017D01*
X61087000Y-114162408D01*
X61033314Y-113892510D01*
X60928005Y-113638273D01*
X60775120Y-113409465D01*
X60580535Y-113214880D01*
X60351727Y-113061995D01*
X60274485Y-113030000D01*
X60351727Y-112998005D01*
X60580535Y-112845120D01*
X60775120Y-112650535D01*
X60928005Y-112421727D01*
X61033314Y-112167490D01*
X61087000Y-111897592D01*
X61087000Y-111622408D01*
X61056372Y-111468429D01*
X64011004Y-108513798D01*
X64040001Y-108490001D01*
X64134974Y-108374276D01*
X64205546Y-108242247D01*
X64249003Y-108098986D01*
X64260000Y-107987333D01*
X64260000Y-107987325D01*
X64263676Y-107950000D01*
X64260000Y-107912675D01*
X64260000Y-60570041D01*
X65977191Y-58852851D01*
X66071995Y-59081727D01*
X66224880Y-59310535D01*
X66419465Y-59505120D01*
X66648273Y-59658005D01*
X66725515Y-59690000D01*
X66648273Y-59721995D01*
X66419465Y-59874880D01*
X66224880Y-60069465D01*
X66071995Y-60298273D01*
X65966686Y-60552510D01*
X65913000Y-60822408D01*
X65913000Y-61097592D01*
X65966686Y-61367490D01*
X66071995Y-61621727D01*
X66224880Y-61850535D01*
X66419465Y-62045120D01*
X66648273Y-62198005D01*
X66725515Y-62230000D01*
X66648273Y-62261995D01*
X66419465Y-62414880D01*
X66224880Y-62609465D01*
X66071995Y-62838273D01*
X65966686Y-63092510D01*
X65913000Y-63362408D01*
X65913000Y-63637592D01*
X65966686Y-63907490D01*
X66071995Y-64161727D01*
X66224880Y-64390535D01*
X66419465Y-64585120D01*
X66648273Y-64738005D01*
X66725515Y-64770000D01*
X66648273Y-64801995D01*
X66419465Y-64954880D01*
X66224880Y-65149465D01*
X66071995Y-65378273D01*
X65966686Y-65632510D01*
X65913000Y-65902408D01*
X65913000Y-66177592D01*
X65966686Y-66447490D01*
X66071995Y-66701727D01*
X66224880Y-66930535D01*
X66419465Y-67125120D01*
X66648273Y-67278005D01*
X66725515Y-67310000D01*
X66648273Y-67341995D01*
X66419465Y-67494880D01*
X66224880Y-67689465D01*
X66071995Y-67918273D01*
X65966686Y-68172510D01*
X65913000Y-68442408D01*
X65913000Y-68717592D01*
X65966686Y-68987490D01*
X66071995Y-69241727D01*
X66224880Y-69470535D01*
X66419465Y-69665120D01*
X66648273Y-69818005D01*
X66725515Y-69850000D01*
X66648273Y-69881995D01*
X66419465Y-70034880D01*
X66224880Y-70229465D01*
X66071995Y-70458273D01*
X65966686Y-70712510D01*
X65913000Y-70982408D01*
X65913000Y-71257592D01*
X65966686Y-71527490D01*
X66071995Y-71781727D01*
X66224880Y-72010535D01*
X66419465Y-72205120D01*
X66648273Y-72358005D01*
X66725515Y-72390000D01*
X66648273Y-72421995D01*
X66419465Y-72574880D01*
X66224880Y-72769465D01*
X66071995Y-72998273D01*
X65966686Y-73252510D01*
X65913000Y-73522408D01*
X65913000Y-73797592D01*
X65966686Y-74067490D01*
X66071995Y-74321727D01*
X66224880Y-74550535D01*
X66419465Y-74745120D01*
X66648273Y-74898005D01*
X66725515Y-74930000D01*
X66648273Y-74961995D01*
X66419465Y-75114880D01*
X66224880Y-75309465D01*
X66071995Y-75538273D01*
X65966686Y-75792510D01*
X65913000Y-76062408D01*
X65913000Y-76337592D01*
X65966686Y-76607490D01*
X66071995Y-76861727D01*
X66224880Y-77090535D01*
X66419465Y-77285120D01*
X66648273Y-77438005D01*
X66725515Y-77470000D01*
X66648273Y-77501995D01*
X66419465Y-77654880D01*
X66224880Y-77849465D01*
X66071995Y-78078273D01*
X65966686Y-78332510D01*
X65913000Y-78602408D01*
X65913000Y-78877592D01*
X65966686Y-79147490D01*
X66071995Y-79401727D01*
X66224880Y-79630535D01*
X66419465Y-79825120D01*
X66648273Y-79978005D01*
X66725515Y-80010000D01*
X66648273Y-80041995D01*
X66419465Y-80194880D01*
X66224880Y-80389465D01*
X66071995Y-80618273D01*
X65966686Y-80872510D01*
X65913000Y-81142408D01*
X65913000Y-81417592D01*
X65966686Y-81687490D01*
X66071995Y-81941727D01*
X66224880Y-82170535D01*
X66419465Y-82365120D01*
X66648273Y-82518005D01*
X66725515Y-82550000D01*
X66648273Y-82581995D01*
X66419465Y-82734880D01*
X66224880Y-82929465D01*
X66071995Y-83158273D01*
X65966686Y-83412510D01*
X65913000Y-83682408D01*
X65913000Y-83957592D01*
X65966686Y-84227490D01*
X66071995Y-84481727D01*
X66224880Y-84710535D01*
X66419465Y-84905120D01*
X66648273Y-85058005D01*
X66725515Y-85090000D01*
X66648273Y-85121995D01*
X66419465Y-85274880D01*
X66224880Y-85469465D01*
X66071995Y-85698273D01*
X65966686Y-85952510D01*
X65913000Y-86222408D01*
X65913000Y-86497592D01*
X65966686Y-86767490D01*
X66071995Y-87021727D01*
X66224880Y-87250535D01*
X66419465Y-87445120D01*
X66648273Y-87598005D01*
X66725515Y-87630000D01*
X66648273Y-87661995D01*
X66419465Y-87814880D01*
X66224880Y-88009465D01*
X66071995Y-88238273D01*
X65966686Y-88492510D01*
X65913000Y-88762408D01*
X65913000Y-89037592D01*
X65966686Y-89307490D01*
X66071995Y-89561727D01*
X66224880Y-89790535D01*
X66419465Y-89985120D01*
X66648273Y-90138005D01*
X66725515Y-90170000D01*
X66648273Y-90201995D01*
X66419465Y-90354880D01*
X66224880Y-90549465D01*
X66071995Y-90778273D01*
X65966686Y-91032510D01*
X65913000Y-91302408D01*
X65913000Y-91577592D01*
X65966686Y-91847490D01*
X66071995Y-92101727D01*
X66224880Y-92330535D01*
X66419465Y-92525120D01*
X66648273Y-92678005D01*
X66725515Y-92710000D01*
X66648273Y-92741995D01*
X66419465Y-92894880D01*
X66224880Y-93089465D01*
X66071995Y-93318273D01*
X65966686Y-93572510D01*
X65913000Y-93842408D01*
X65913000Y-94117592D01*
X65966686Y-94387490D01*
X66071995Y-94641727D01*
X66224880Y-94870535D01*
X66419465Y-95065120D01*
X66648273Y-95218005D01*
X66725515Y-95250000D01*
X66648273Y-95281995D01*
X66419465Y-95434880D01*
X66224880Y-95629465D01*
X66071995Y-95858273D01*
X65966686Y-96112510D01*
X65913000Y-96382408D01*
X65913000Y-96657592D01*
X65966686Y-96927490D01*
X66071995Y-97181727D01*
X66224880Y-97410535D01*
X66419465Y-97605120D01*
X66648273Y-97758005D01*
X66725515Y-97790000D01*
X66648273Y-97821995D01*
X66419465Y-97974880D01*
X66224880Y-98169465D01*
X66071995Y-98398273D01*
X65966686Y-98652510D01*
X65913000Y-98922408D01*
X65913000Y-99197592D01*
X65966686Y-99467490D01*
X66071995Y-99721727D01*
X66224880Y-99950535D01*
X66419465Y-100145120D01*
X66648273Y-100298005D01*
X66725515Y-100330000D01*
X66648273Y-100361995D01*
X66419465Y-100514880D01*
X66224880Y-100709465D01*
X66071995Y-100938273D01*
X65966686Y-101192510D01*
X65913000Y-101462408D01*
X65913000Y-101737592D01*
X65966686Y-102007490D01*
X66071995Y-102261727D01*
X66224880Y-102490535D01*
X66419465Y-102685120D01*
X66648273Y-102838005D01*
X66725515Y-102870000D01*
X66648273Y-102901995D01*
X66419465Y-103054880D01*
X66224880Y-103249465D01*
X66071995Y-103478273D01*
X65966686Y-103732510D01*
X65913000Y-104002408D01*
X65913000Y-104277592D01*
X65966686Y-104547490D01*
X66071995Y-104801727D01*
X66224880Y-105030535D01*
X66419465Y-105225120D01*
X66648273Y-105378005D01*
X66725515Y-105410000D01*
X66648273Y-105441995D01*
X66419465Y-105594880D01*
X66224880Y-105789465D01*
X66071995Y-106018273D01*
X65966686Y-106272510D01*
X65913000Y-106542408D01*
X65913000Y-106817592D01*
X65966686Y-107087490D01*
X66071995Y-107341727D01*
X66224880Y-107570535D01*
X66419465Y-107765120D01*
X66648273Y-107918005D01*
X66725515Y-107950000D01*
X66648273Y-107981995D01*
X66419465Y-108134880D01*
X66224880Y-108329465D01*
X66071995Y-108558273D01*
X65966686Y-108812510D01*
X65913000Y-109082408D01*
X65913000Y-109357592D01*
X65966686Y-109627490D01*
X66071995Y-109881727D01*
X66224880Y-110110535D01*
X66419465Y-110305120D01*
X66648273Y-110458005D01*
X66725515Y-110490000D01*
X66648273Y-110521995D01*
X66419465Y-110674880D01*
X66224880Y-110869465D01*
X66071995Y-111098273D01*
X65966686Y-111352510D01*
X65913000Y-111622408D01*
X65913000Y-111897592D01*
X65966686Y-112167490D01*
X66071995Y-112421727D01*
X66224880Y-112650535D01*
X66419465Y-112845120D01*
X66648273Y-112998005D01*
X66719943Y-113027692D01*
X66706977Y-113032364D01*
X66591020Y-113094344D01*
X66524040Y-113334435D01*
X67310000Y-114120395D01*
X68095960Y-113334435D01*
X68028980Y-113094344D01*
X67893240Y-113030515D01*
X67971727Y-112998005D01*
X68200535Y-112845120D01*
X68395120Y-112650535D01*
X68548005Y-112421727D01*
X68653314Y-112167490D01*
X68707000Y-111897592D01*
X68707000Y-111622408D01*
X68653314Y-111352510D01*
X68548005Y-111098273D01*
X68395120Y-110869465D01*
X68200535Y-110674880D01*
X67971727Y-110521995D01*
X67894485Y-110490000D01*
X67971727Y-110458005D01*
X68200535Y-110305120D01*
X68395120Y-110110535D01*
X68548005Y-109881727D01*
X68653314Y-109627490D01*
X68707000Y-109357592D01*
X68707000Y-109082408D01*
X68653314Y-108812510D01*
X68548005Y-108558273D01*
X68395120Y-108329465D01*
X68200535Y-108134880D01*
X67971727Y-107981995D01*
X67894485Y-107950000D01*
X67971727Y-107918005D01*
X68200535Y-107765120D01*
X68395120Y-107570535D01*
X68548005Y-107341727D01*
X68653314Y-107087490D01*
X68707000Y-106817592D01*
X68707000Y-106542408D01*
X68653314Y-106272510D01*
X68548005Y-106018273D01*
X68395120Y-105789465D01*
X68200535Y-105594880D01*
X67971727Y-105441995D01*
X67894485Y-105410000D01*
X67971727Y-105378005D01*
X68200535Y-105225120D01*
X68395120Y-105030535D01*
X68548005Y-104801727D01*
X68653314Y-104547490D01*
X68707000Y-104277592D01*
X68707000Y-104002408D01*
X68653314Y-103732510D01*
X68548005Y-103478273D01*
X68395120Y-103249465D01*
X68200535Y-103054880D01*
X67971727Y-102901995D01*
X67894485Y-102870000D01*
X67971727Y-102838005D01*
X68200535Y-102685120D01*
X68395120Y-102490535D01*
X68548005Y-102261727D01*
X68653314Y-102007490D01*
X68707000Y-101737592D01*
X68707000Y-101462408D01*
X68653314Y-101192510D01*
X68548005Y-100938273D01*
X68395120Y-100709465D01*
X68200535Y-100514880D01*
X67971727Y-100361995D01*
X67894485Y-100330000D01*
X67971727Y-100298005D01*
X68200535Y-100145120D01*
X68395120Y-99950535D01*
X68548005Y-99721727D01*
X68653314Y-99467490D01*
X68707000Y-99197592D01*
X68707000Y-98922408D01*
X68653314Y-98652510D01*
X68548005Y-98398273D01*
X68395120Y-98169465D01*
X68200535Y-97974880D01*
X67971727Y-97821995D01*
X67894485Y-97790000D01*
X67971727Y-97758005D01*
X68200535Y-97605120D01*
X68395120Y-97410535D01*
X68548005Y-97181727D01*
X68653314Y-96927490D01*
X68707000Y-96657592D01*
X68707000Y-96382408D01*
X68653314Y-96112510D01*
X68548005Y-95858273D01*
X68395120Y-95629465D01*
X68200535Y-95434880D01*
X67971727Y-95281995D01*
X67894485Y-95250000D01*
X67971727Y-95218005D01*
X68200535Y-95065120D01*
X68395120Y-94870535D01*
X68548005Y-94641727D01*
X68653314Y-94387490D01*
X68707000Y-94117592D01*
X68707000Y-93842408D01*
X68653314Y-93572510D01*
X68548005Y-93318273D01*
X68395120Y-93089465D01*
X68200535Y-92894880D01*
X67971727Y-92741995D01*
X67894485Y-92710000D01*
X67971727Y-92678005D01*
X68200535Y-92525120D01*
X68395120Y-92330535D01*
X68548005Y-92101727D01*
X68653314Y-91847490D01*
X68707000Y-91577592D01*
X68707000Y-91302408D01*
X68653314Y-91032510D01*
X68548005Y-90778273D01*
X68395120Y-90549465D01*
X68200535Y-90354880D01*
X67971727Y-90201995D01*
X67894485Y-90170000D01*
X67971727Y-90138005D01*
X68200535Y-89985120D01*
X68395120Y-89790535D01*
X68548005Y-89561727D01*
X68653314Y-89307490D01*
X68707000Y-89037592D01*
X68707000Y-88762408D01*
X68653314Y-88492510D01*
X68548005Y-88238273D01*
X68395120Y-88009465D01*
X68200535Y-87814880D01*
X67971727Y-87661995D01*
X67894485Y-87630000D01*
X67971727Y-87598005D01*
X68200535Y-87445120D01*
X68395120Y-87250535D01*
X68548005Y-87021727D01*
X68653314Y-86767490D01*
X68707000Y-86497592D01*
X68707000Y-86222408D01*
X68653314Y-85952510D01*
X68548005Y-85698273D01*
X68395120Y-85469465D01*
X68200535Y-85274880D01*
X67971727Y-85121995D01*
X67894485Y-85090000D01*
X67971727Y-85058005D01*
X68200535Y-84905120D01*
X68395120Y-84710535D01*
X68548005Y-84481727D01*
X68653314Y-84227490D01*
X68707000Y-83957592D01*
X68707000Y-83682408D01*
X68653314Y-83412510D01*
X68548005Y-83158273D01*
X68395120Y-82929465D01*
X68200535Y-82734880D01*
X67971727Y-82581995D01*
X67894485Y-82550000D01*
X67971727Y-82518005D01*
X68200535Y-82365120D01*
X68395120Y-82170535D01*
X68548005Y-81941727D01*
X68653314Y-81687490D01*
X68707000Y-81417592D01*
X68707000Y-81142408D01*
X68653314Y-80872510D01*
X68548005Y-80618273D01*
X68395120Y-80389465D01*
X68200535Y-80194880D01*
X67971727Y-80041995D01*
X67894485Y-80010000D01*
X67971727Y-79978005D01*
X68200535Y-79825120D01*
X68395120Y-79630535D01*
X68548005Y-79401727D01*
X68653314Y-79147490D01*
X68707000Y-78877592D01*
X68707000Y-78602408D01*
X68653314Y-78332510D01*
X68548005Y-78078273D01*
X68395120Y-77849465D01*
X68200535Y-77654880D01*
X67971727Y-77501995D01*
X67894485Y-77470000D01*
X67971727Y-77438005D01*
X68200535Y-77285120D01*
X68395120Y-77090535D01*
X68548005Y-76861727D01*
X68653314Y-76607490D01*
X68707000Y-76337592D01*
X68707000Y-76062408D01*
X68653314Y-75792510D01*
X68548005Y-75538273D01*
X68395120Y-75309465D01*
X68200535Y-75114880D01*
X67971727Y-74961995D01*
X67894485Y-74930000D01*
X67971727Y-74898005D01*
X68200535Y-74745120D01*
X68395120Y-74550535D01*
X68548005Y-74321727D01*
X68653314Y-74067490D01*
X68707000Y-73797592D01*
X68707000Y-73522408D01*
X68653314Y-73252510D01*
X68548005Y-72998273D01*
X68395120Y-72769465D01*
X68200535Y-72574880D01*
X67971727Y-72421995D01*
X67894485Y-72390000D01*
X67971727Y-72358005D01*
X68200535Y-72205120D01*
X68395120Y-72010535D01*
X68548005Y-71781727D01*
X68653314Y-71527490D01*
X68707000Y-71257592D01*
X68707000Y-70982408D01*
X68653314Y-70712510D01*
X68548005Y-70458273D01*
X68395120Y-70229465D01*
X68200535Y-70034880D01*
X67971727Y-69881995D01*
X67894485Y-69850000D01*
X67971727Y-69818005D01*
X68200535Y-69665120D01*
X68395120Y-69470535D01*
X68548005Y-69241727D01*
X68653314Y-68987490D01*
X68707000Y-68717592D01*
X68707000Y-68442408D01*
X68653314Y-68172510D01*
X68548005Y-67918273D01*
X68395120Y-67689465D01*
X68200535Y-67494880D01*
X67971727Y-67341995D01*
X67894485Y-67310000D01*
X67971727Y-67278005D01*
X68200535Y-67125120D01*
X68395120Y-66930535D01*
X68548005Y-66701727D01*
X68653314Y-66447490D01*
X68707000Y-66177592D01*
X68707000Y-65902408D01*
X68653314Y-65632510D01*
X68548005Y-65378273D01*
X68395120Y-65149465D01*
X68200535Y-64954880D01*
X67971727Y-64801995D01*
X67894485Y-64770000D01*
X67971727Y-64738005D01*
X68200535Y-64585120D01*
X68395120Y-64390535D01*
X68548005Y-64161727D01*
X68653314Y-63907490D01*
X68707000Y-63637592D01*
X68707000Y-63362408D01*
X68653314Y-63092510D01*
X68548005Y-62838273D01*
X68395120Y-62609465D01*
X68200535Y-62414880D01*
X67971727Y-62261995D01*
X67894485Y-62230000D01*
X67971727Y-62198005D01*
X68200535Y-62045120D01*
X68395120Y-61850535D01*
X68548005Y-61621727D01*
X68653314Y-61367490D01*
X68707000Y-61097592D01*
X68707000Y-60822408D01*
X68653314Y-60552510D01*
X68548005Y-60298273D01*
X68395120Y-60069465D01*
X68200535Y-59874880D01*
X67971727Y-59721995D01*
X67894485Y-59690000D01*
X67971727Y-59658005D01*
X68200535Y-59505120D01*
X68395120Y-59310535D01*
X68548005Y-59081727D01*
X68653314Y-58827490D01*
X68707000Y-58557592D01*
X68707000Y-58282408D01*
X68653314Y-58012510D01*
X68548005Y-57758273D01*
X68527110Y-57727001D01*
X75075677Y-57727001D01*
X75112999Y-57730677D01*
X75150321Y-57727001D01*
X75150332Y-57727001D01*
X75261985Y-57716004D01*
X75405246Y-57672547D01*
X75537275Y-57601975D01*
X75653000Y-57507002D01*
X75676803Y-57477998D01*
X78613000Y-54541802D01*
X78613000Y-54747592D01*
X78666686Y-55017490D01*
X78771995Y-55271727D01*
X78924880Y-55500535D01*
X79119465Y-55695120D01*
X79348273Y-55848005D01*
X79425515Y-55880000D01*
X79348273Y-55911995D01*
X79119465Y-56064880D01*
X78924880Y-56259465D01*
X78771995Y-56488273D01*
X78666686Y-56742510D01*
X78613000Y-57012408D01*
X78613000Y-57287592D01*
X78666686Y-57557490D01*
X78771995Y-57811727D01*
X78924880Y-58040535D01*
X79119465Y-58235120D01*
X79348273Y-58388005D01*
X79425515Y-58420000D01*
X79348273Y-58451995D01*
X79119465Y-58604880D01*
X78924880Y-58799465D01*
X78771995Y-59028273D01*
X78666686Y-59282510D01*
X78613000Y-59552408D01*
X78613000Y-59827592D01*
X78666686Y-60097490D01*
X78771995Y-60351727D01*
X78924880Y-60580535D01*
X79119465Y-60775120D01*
X79348273Y-60928005D01*
X79425515Y-60960000D01*
X79348273Y-60991995D01*
X79119465Y-61144880D01*
X78924880Y-61339465D01*
X78771995Y-61568273D01*
X78666686Y-61822510D01*
X78613000Y-62092408D01*
X78613000Y-62367592D01*
X78666686Y-62637490D01*
X78771995Y-62891727D01*
X78924880Y-63120535D01*
X79119465Y-63315120D01*
X79348273Y-63468005D01*
X79425515Y-63500000D01*
X79348273Y-63531995D01*
X79119465Y-63684880D01*
X78924880Y-63879465D01*
X78771995Y-64108273D01*
X78666686Y-64362510D01*
X78613000Y-64632408D01*
X78613000Y-64907592D01*
X78666686Y-65177490D01*
X78771995Y-65431727D01*
X78924880Y-65660535D01*
X79119465Y-65855120D01*
X79348273Y-66008005D01*
X79425515Y-66040000D01*
X79348273Y-66071995D01*
X79119465Y-66224880D01*
X78924880Y-66419465D01*
X78771995Y-66648273D01*
X78666686Y-66902510D01*
X78613000Y-67172408D01*
X78613000Y-67447592D01*
X78666686Y-67717490D01*
X78771995Y-67971727D01*
X78924880Y-68200535D01*
X79119465Y-68395120D01*
X79348273Y-68548005D01*
X79425515Y-68580000D01*
X79348273Y-68611995D01*
X79119465Y-68764880D01*
X78924880Y-68959465D01*
X78771995Y-69188273D01*
X78666686Y-69442510D01*
X78613000Y-69712408D01*
X78613000Y-69987592D01*
X78666686Y-70257490D01*
X78771995Y-70511727D01*
X78924880Y-70740535D01*
X79119465Y-70935120D01*
X79348273Y-71088005D01*
X79425515Y-71120000D01*
X79348273Y-71151995D01*
X79119465Y-71304880D01*
X78924880Y-71499465D01*
X78771995Y-71728273D01*
X78666686Y-71982510D01*
X78613000Y-72252408D01*
X78613000Y-72527592D01*
X78666686Y-72797490D01*
X78771995Y-73051727D01*
X78924880Y-73280535D01*
X79119465Y-73475120D01*
X79348273Y-73628005D01*
X79425515Y-73660000D01*
X79348273Y-73691995D01*
X79119465Y-73844880D01*
X78924880Y-74039465D01*
X78771995Y-74268273D01*
X78666686Y-74522510D01*
X78613000Y-74792408D01*
X78613000Y-75067592D01*
X78666686Y-75337490D01*
X78771995Y-75591727D01*
X78924880Y-75820535D01*
X79119465Y-76015120D01*
X79348273Y-76168005D01*
X79425515Y-76200000D01*
X79348273Y-76231995D01*
X79119465Y-76384880D01*
X78924880Y-76579465D01*
X78771995Y-76808273D01*
X78666686Y-77062510D01*
X78613000Y-77332408D01*
X78613000Y-77607592D01*
X78666686Y-77877490D01*
X78771995Y-78131727D01*
X78924880Y-78360535D01*
X79119465Y-78555120D01*
X79348273Y-78708005D01*
X79425515Y-78740000D01*
X79348273Y-78771995D01*
X79119465Y-78924880D01*
X78924880Y-79119465D01*
X78771995Y-79348273D01*
X78666686Y-79602510D01*
X78613000Y-79872408D01*
X78613000Y-80147592D01*
X78666686Y-80417490D01*
X78771995Y-80671727D01*
X78924880Y-80900535D01*
X79119465Y-81095120D01*
X79348273Y-81248005D01*
X79425515Y-81280000D01*
X79348273Y-81311995D01*
X79119465Y-81464880D01*
X78924880Y-81659465D01*
X78771995Y-81888273D01*
X78666686Y-82142510D01*
X78613000Y-82412408D01*
X78613000Y-82687592D01*
X78666686Y-82957490D01*
X78771995Y-83211727D01*
X78924880Y-83440535D01*
X79119465Y-83635120D01*
X79348273Y-83788005D01*
X79425515Y-83820000D01*
X79348273Y-83851995D01*
X79119465Y-84004880D01*
X78924880Y-84199465D01*
X78771995Y-84428273D01*
X78666686Y-84682510D01*
X78613000Y-84952408D01*
X78613000Y-85227592D01*
X78666686Y-85497490D01*
X78771995Y-85751727D01*
X78924880Y-85980535D01*
X79119465Y-86175120D01*
X79348273Y-86328005D01*
X79602510Y-86433314D01*
X79872408Y-86487000D01*
X80147592Y-86487000D01*
X80417490Y-86433314D01*
X80671727Y-86328005D01*
X80900535Y-86175120D01*
X81095120Y-85980535D01*
X81248005Y-85751727D01*
X81353314Y-85497490D01*
X81407000Y-85227592D01*
X81407000Y-84952408D01*
X81353314Y-84682510D01*
X81248005Y-84428273D01*
X81095120Y-84199465D01*
X80900535Y-84004880D01*
X80671727Y-83851995D01*
X80594485Y-83820000D01*
X80671727Y-83788005D01*
X80900535Y-83635120D01*
X81095120Y-83440535D01*
X81248005Y-83211727D01*
X81353314Y-82957490D01*
X81407000Y-82687592D01*
X81407000Y-82412408D01*
X81353314Y-82142510D01*
X81248005Y-81888273D01*
X81095120Y-81659465D01*
X80900535Y-81464880D01*
X80671727Y-81311995D01*
X80594485Y-81280000D01*
X80671727Y-81248005D01*
X80900535Y-81095120D01*
X81095120Y-80900535D01*
X81248005Y-80671727D01*
X81353314Y-80417490D01*
X81407000Y-80147592D01*
X81407000Y-79872408D01*
X81353314Y-79602510D01*
X81248005Y-79348273D01*
X81095120Y-79119465D01*
X80900535Y-78924880D01*
X80671727Y-78771995D01*
X80594485Y-78740000D01*
X80671727Y-78708005D01*
X80900535Y-78555120D01*
X81095120Y-78360535D01*
X81248005Y-78131727D01*
X81353314Y-77877490D01*
X81407000Y-77607592D01*
X81407000Y-77332408D01*
X81353314Y-77062510D01*
X81248005Y-76808273D01*
X81095120Y-76579465D01*
X80900535Y-76384880D01*
X80671727Y-76231995D01*
X80594485Y-76200000D01*
X80671727Y-76168005D01*
X80900535Y-76015120D01*
X81095120Y-75820535D01*
X81248005Y-75591727D01*
X81353314Y-75337490D01*
X81407000Y-75067592D01*
X81407000Y-74792408D01*
X81353314Y-74522510D01*
X81248005Y-74268273D01*
X81095120Y-74039465D01*
X80900535Y-73844880D01*
X80671727Y-73691995D01*
X80594485Y-73660000D01*
X80671727Y-73628005D01*
X80900535Y-73475120D01*
X81095120Y-73280535D01*
X81248005Y-73051727D01*
X81353314Y-72797490D01*
X81407000Y-72527592D01*
X81407000Y-72252408D01*
X81353314Y-71982510D01*
X81248005Y-71728273D01*
X81095120Y-71499465D01*
X80900535Y-71304880D01*
X80671727Y-71151995D01*
X80594485Y-71120000D01*
X80671727Y-71088005D01*
X80900535Y-70935120D01*
X81095120Y-70740535D01*
X81248005Y-70511727D01*
X81353314Y-70257490D01*
X81407000Y-69987592D01*
X81407000Y-69712408D01*
X81353314Y-69442510D01*
X81248005Y-69188273D01*
X81095120Y-68959465D01*
X80900535Y-68764880D01*
X80671727Y-68611995D01*
X80594485Y-68580000D01*
X80671727Y-68548005D01*
X80900535Y-68395120D01*
X81095120Y-68200535D01*
X81248005Y-67971727D01*
X81353314Y-67717490D01*
X81407000Y-67447592D01*
X81407000Y-67172408D01*
X81353314Y-66902510D01*
X81248005Y-66648273D01*
X81095120Y-66419465D01*
X80900535Y-66224880D01*
X80671727Y-66071995D01*
X80594485Y-66040000D01*
X80671727Y-66008005D01*
X80900535Y-65855120D01*
X81095120Y-65660535D01*
X81248005Y-65431727D01*
X81353314Y-65177490D01*
X81407000Y-64907592D01*
X81407000Y-64632408D01*
X81353314Y-64362510D01*
X81248005Y-64108273D01*
X81095120Y-63879465D01*
X80900535Y-63684880D01*
X80671727Y-63531995D01*
X80594485Y-63500000D01*
X80671727Y-63468005D01*
X80900535Y-63315120D01*
X81095120Y-63120535D01*
X81248005Y-62891727D01*
X81353314Y-62637490D01*
X81407000Y-62367592D01*
X81407000Y-62092408D01*
X81353314Y-61822510D01*
X81248005Y-61568273D01*
X81095120Y-61339465D01*
X80900535Y-61144880D01*
X80671727Y-60991995D01*
X80594485Y-60960000D01*
X80671727Y-60928005D01*
X80900535Y-60775120D01*
X81095120Y-60580535D01*
X81248005Y-60351727D01*
X81353314Y-60097490D01*
X81407000Y-59827592D01*
X81407000Y-59552408D01*
X81353314Y-59282510D01*
X81248005Y-59028273D01*
X81095120Y-58799465D01*
X80900535Y-58604880D01*
X80671727Y-58451995D01*
X80594485Y-58420000D01*
X80671727Y-58388005D01*
X80900535Y-58235120D01*
X81095120Y-58040535D01*
X81248005Y-57811727D01*
X81353314Y-57557490D01*
X81407000Y-57287592D01*
X81407000Y-57012408D01*
X81353314Y-56742510D01*
X81248005Y-56488273D01*
X81095120Y-56259465D01*
X80900535Y-56064880D01*
X80671727Y-55911995D01*
X80594485Y-55880000D01*
X80671727Y-55848005D01*
X80900535Y-55695120D01*
X81095120Y-55500535D01*
X81248005Y-55271727D01*
X81353314Y-55017490D01*
X81407000Y-54747592D01*
X81407000Y-54472408D01*
X81376372Y-54318430D01*
X81890000Y-53804801D01*
X81890001Y-116180000D01*
X13360000Y-116180000D01*
X13360000Y-114343377D01*
X39506229Y-114343377D01*
X39632104Y-114633315D01*
X39964262Y-114799139D01*
X40322387Y-114896975D01*
X40692719Y-114923065D01*
X41061025Y-114876405D01*
X41413151Y-114758789D01*
X41647896Y-114633315D01*
X41773771Y-114343377D01*
X40640000Y-113209605D01*
X39506229Y-114343377D01*
X13360000Y-114343377D01*
X13360000Y-113082719D01*
X38746935Y-113082719D01*
X38793595Y-113451025D01*
X38911211Y-113803151D01*
X39036685Y-114037896D01*
X39326623Y-114163771D01*
X40460395Y-113030000D01*
X40819605Y-113030000D01*
X41953377Y-114163771D01*
X42243315Y-114037896D01*
X42409139Y-113705738D01*
X42506975Y-113347613D01*
X42533065Y-112977281D01*
X42486405Y-112608975D01*
X42368789Y-112256849D01*
X42243315Y-112022104D01*
X41953377Y-111896229D01*
X40819605Y-113030000D01*
X40460395Y-113030000D01*
X39326623Y-111896229D01*
X39036685Y-112022104D01*
X38870861Y-112354262D01*
X38773025Y-112712387D01*
X38746935Y-113082719D01*
X13360000Y-113082719D01*
X13360000Y-111716623D01*
X39506229Y-111716623D01*
X40640000Y-112850395D01*
X41710074Y-111780320D01*
X42562248Y-111780320D01*
X42562248Y-114279680D01*
X42574508Y-114404162D01*
X42610818Y-114523860D01*
X42669783Y-114634174D01*
X42749135Y-114730865D01*
X42845826Y-114810217D01*
X42956140Y-114869182D01*
X43075838Y-114905492D01*
X43200320Y-114917752D01*
X45699680Y-114917752D01*
X45824162Y-114905492D01*
X45943860Y-114869182D01*
X46054174Y-114810217D01*
X46150865Y-114730865D01*
X46230217Y-114634174D01*
X46289182Y-114523860D01*
X46325492Y-114404162D01*
X46337752Y-114279680D01*
X46337752Y-111780320D01*
X46325492Y-111655838D01*
X46289182Y-111536140D01*
X46230217Y-111425826D01*
X46150865Y-111329135D01*
X46054174Y-111249783D01*
X45943860Y-111190818D01*
X45824162Y-111154508D01*
X45699680Y-111142248D01*
X43200320Y-111142248D01*
X43075838Y-111154508D01*
X42956140Y-111190818D01*
X42845826Y-111249783D01*
X42749135Y-111329135D01*
X42669783Y-111425826D01*
X42610818Y-111536140D01*
X42574508Y-111655838D01*
X42562248Y-111780320D01*
X41710074Y-111780320D01*
X41773771Y-111716623D01*
X41647896Y-111426685D01*
X41315738Y-111260861D01*
X40957613Y-111163025D01*
X40587281Y-111136935D01*
X40218975Y-111183595D01*
X39866849Y-111301211D01*
X39632104Y-111426685D01*
X39506229Y-111716623D01*
X13360000Y-111716623D01*
X13360000Y-95270320D01*
X14622248Y-95270320D01*
X14622248Y-97769680D01*
X14634508Y-97894162D01*
X14670818Y-98013860D01*
X14729783Y-98124174D01*
X14809135Y-98220865D01*
X14905826Y-98300217D01*
X15016140Y-98359182D01*
X15135838Y-98395492D01*
X15260320Y-98407752D01*
X17759680Y-98407752D01*
X17884162Y-98395492D01*
X18003860Y-98359182D01*
X18114174Y-98300217D01*
X18210865Y-98220865D01*
X18290217Y-98124174D01*
X18349182Y-98013860D01*
X18385492Y-97894162D01*
X18397752Y-97769680D01*
X18397752Y-95270320D01*
X18385492Y-95145838D01*
X18349182Y-95026140D01*
X18290217Y-94915826D01*
X18210865Y-94819135D01*
X18114174Y-94739783D01*
X18003860Y-94680818D01*
X17884162Y-94644508D01*
X17759680Y-94632248D01*
X15260320Y-94632248D01*
X15135838Y-94644508D01*
X15016140Y-94680818D01*
X14905826Y-94739783D01*
X14809135Y-94819135D01*
X14729783Y-94915826D01*
X14670818Y-95026140D01*
X14634508Y-95145838D01*
X14622248Y-95270320D01*
X13360000Y-95270320D01*
X13360000Y-94023377D01*
X15376229Y-94023377D01*
X15502104Y-94313315D01*
X15834262Y-94479139D01*
X16192387Y-94576975D01*
X16562719Y-94603065D01*
X16931025Y-94556405D01*
X17283151Y-94438789D01*
X17517896Y-94313315D01*
X17643771Y-94023377D01*
X16510000Y-92889605D01*
X15376229Y-94023377D01*
X13360000Y-94023377D01*
X13360000Y-92762719D01*
X14616935Y-92762719D01*
X14663595Y-93131025D01*
X14781211Y-93483151D01*
X14906685Y-93717896D01*
X15196623Y-93843771D01*
X16330395Y-92710000D01*
X16689605Y-92710000D01*
X17823377Y-93843771D01*
X18113315Y-93717896D01*
X18279139Y-93385738D01*
X18376975Y-93027613D01*
X18403065Y-92657281D01*
X18356405Y-92288975D01*
X18238789Y-91936849D01*
X18113315Y-91702104D01*
X17823377Y-91576229D01*
X16689605Y-92710000D01*
X16330395Y-92710000D01*
X15196623Y-91576229D01*
X14906685Y-91702104D01*
X14740861Y-92034262D01*
X14643025Y-92392387D01*
X14616935Y-92762719D01*
X13360000Y-92762719D01*
X13360000Y-91396623D01*
X15376229Y-91396623D01*
X16510000Y-92530395D01*
X17643771Y-91396623D01*
X17517896Y-91106685D01*
X17185738Y-90940861D01*
X16827613Y-90843025D01*
X16457281Y-90816935D01*
X16088975Y-90863595D01*
X15736849Y-90981211D01*
X15502104Y-91106685D01*
X15376229Y-91396623D01*
X13360000Y-91396623D01*
X13360000Y-80975565D01*
X29694040Y-80975565D01*
X29761020Y-81215656D01*
X30010048Y-81332756D01*
X30277135Y-81399023D01*
X30552017Y-81411910D01*
X30824133Y-81370922D01*
X31083023Y-81277636D01*
X31198980Y-81215656D01*
X31265960Y-80975565D01*
X30480000Y-80189605D01*
X29694040Y-80975565D01*
X13360000Y-80975565D01*
X13360000Y-80082017D01*
X29078090Y-80082017D01*
X29119078Y-80354133D01*
X29212364Y-80613023D01*
X29274344Y-80728980D01*
X29514435Y-80795960D01*
X30300395Y-80010000D01*
X30659605Y-80010000D01*
X31445565Y-80795960D01*
X31685656Y-80728980D01*
X31802756Y-80479952D01*
X31869023Y-80212865D01*
X31881910Y-79937983D01*
X31840922Y-79665867D01*
X31747636Y-79406977D01*
X31685656Y-79291020D01*
X31445565Y-79224040D01*
X30659605Y-80010000D01*
X30300395Y-80010000D01*
X29514435Y-79224040D01*
X29274344Y-79291020D01*
X29157244Y-79540048D01*
X29090977Y-79807135D01*
X29078090Y-80082017D01*
X13360000Y-80082017D01*
X13360000Y-38172017D01*
X58288090Y-38172017D01*
X58329078Y-38444133D01*
X58422364Y-38703023D01*
X58484344Y-38818980D01*
X58724435Y-38885960D01*
X59510395Y-38100000D01*
X59869605Y-38100000D01*
X60655565Y-38885960D01*
X60895656Y-38818980D01*
X61012756Y-38569952D01*
X61079023Y-38302865D01*
X61091910Y-38027983D01*
X61050922Y-37755867D01*
X60957636Y-37496977D01*
X60895656Y-37381020D01*
X60655565Y-37314040D01*
X59869605Y-38100000D01*
X59510395Y-38100000D01*
X58724435Y-37314040D01*
X58484344Y-37381020D01*
X58367244Y-37630048D01*
X58300977Y-37897135D01*
X58288090Y-38172017D01*
X13360000Y-38172017D01*
X13360000Y-36873377D01*
X15376229Y-36873377D01*
X15502104Y-37163315D01*
X15834262Y-37329139D01*
X16192387Y-37426975D01*
X16562719Y-37453065D01*
X16931025Y-37406405D01*
X17283151Y-37288789D01*
X17517896Y-37163315D01*
X17643771Y-36873377D01*
X16510000Y-35739605D01*
X15376229Y-36873377D01*
X13360000Y-36873377D01*
X13360000Y-35612719D01*
X14616935Y-35612719D01*
X14663595Y-35981025D01*
X14781211Y-36333151D01*
X14906685Y-36567896D01*
X15196623Y-36693771D01*
X16330395Y-35560000D01*
X16689605Y-35560000D01*
X17823377Y-36693771D01*
X18113315Y-36567896D01*
X18279139Y-36235738D01*
X18376975Y-35877613D01*
X18403065Y-35507281D01*
X18356405Y-35138975D01*
X18238789Y-34786849D01*
X18113315Y-34552104D01*
X17823377Y-34426229D01*
X16689605Y-35560000D01*
X16330395Y-35560000D01*
X15196623Y-34426229D01*
X14906685Y-34552104D01*
X14740861Y-34884262D01*
X14643025Y-35242387D01*
X14616935Y-35612719D01*
X13360000Y-35612719D01*
X13360000Y-34246623D01*
X15376229Y-34246623D01*
X16510000Y-35380395D01*
X17580074Y-34310320D01*
X18432248Y-34310320D01*
X18432248Y-36809680D01*
X18444508Y-36934162D01*
X18480818Y-37053860D01*
X18539783Y-37164174D01*
X18619135Y-37260865D01*
X18715826Y-37340217D01*
X18826140Y-37399182D01*
X18945838Y-37435492D01*
X19070320Y-37447752D01*
X21569680Y-37447752D01*
X21694162Y-37435492D01*
X21813860Y-37399182D01*
X21924174Y-37340217D01*
X22020865Y-37260865D01*
X22100217Y-37164174D01*
X22159182Y-37053860D01*
X22195492Y-36934162D01*
X22207752Y-36809680D01*
X22207752Y-34310320D01*
X45102248Y-34310320D01*
X45102248Y-36809680D01*
X45114508Y-36934162D01*
X45150818Y-37053860D01*
X45209783Y-37164174D01*
X45289135Y-37260865D01*
X45385826Y-37340217D01*
X45496140Y-37399182D01*
X45615838Y-37435492D01*
X45740320Y-37447752D01*
X48239680Y-37447752D01*
X48364162Y-37435492D01*
X48483860Y-37399182D01*
X48594174Y-37340217D01*
X48690865Y-37260865D01*
X48770217Y-37164174D01*
X48829182Y-37053860D01*
X48865492Y-36934162D01*
X48871478Y-36873377D01*
X49666229Y-36873377D01*
X49792104Y-37163315D01*
X50124262Y-37329139D01*
X50482387Y-37426975D01*
X50852719Y-37453065D01*
X51221025Y-37406405D01*
X51573151Y-37288789D01*
X51807896Y-37163315D01*
X51933771Y-36873377D01*
X50800000Y-35739605D01*
X49666229Y-36873377D01*
X48871478Y-36873377D01*
X48877752Y-36809680D01*
X48877752Y-35612719D01*
X48906935Y-35612719D01*
X48953595Y-35981025D01*
X49071211Y-36333151D01*
X49196685Y-36567896D01*
X49486623Y-36693771D01*
X50620395Y-35560000D01*
X50979605Y-35560000D01*
X52113377Y-36693771D01*
X52403315Y-36567896D01*
X52569139Y-36235738D01*
X52666975Y-35877613D01*
X52693065Y-35507281D01*
X52646405Y-35138975D01*
X52528789Y-34786849D01*
X52403315Y-34552104D01*
X52113377Y-34426229D01*
X50979605Y-35560000D01*
X50620395Y-35560000D01*
X49486623Y-34426229D01*
X49196685Y-34552104D01*
X49030861Y-34884262D01*
X48933025Y-35242387D01*
X48906935Y-35612719D01*
X48877752Y-35612719D01*
X48877752Y-34310320D01*
X48871479Y-34246623D01*
X49666229Y-34246623D01*
X50800000Y-35380395D01*
X51933771Y-34246623D01*
X51807896Y-33956685D01*
X51475738Y-33790861D01*
X51117613Y-33693025D01*
X50747281Y-33666935D01*
X50378975Y-33713595D01*
X50026849Y-33831211D01*
X49792104Y-33956685D01*
X49666229Y-34246623D01*
X48871479Y-34246623D01*
X48865492Y-34185838D01*
X48829182Y-34066140D01*
X48770217Y-33955826D01*
X48690865Y-33859135D01*
X48594174Y-33779783D01*
X48483860Y-33720818D01*
X48364162Y-33684508D01*
X48239680Y-33672248D01*
X45740320Y-33672248D01*
X45615838Y-33684508D01*
X45496140Y-33720818D01*
X45385826Y-33779783D01*
X45289135Y-33859135D01*
X45209783Y-33955826D01*
X45150818Y-34066140D01*
X45114508Y-34185838D01*
X45102248Y-34310320D01*
X22207752Y-34310320D01*
X22195492Y-34185838D01*
X22159182Y-34066140D01*
X22100217Y-33955826D01*
X22020865Y-33859135D01*
X21924174Y-33779783D01*
X21813860Y-33720818D01*
X21694162Y-33684508D01*
X21569680Y-33672248D01*
X19070320Y-33672248D01*
X18945838Y-33684508D01*
X18826140Y-33720818D01*
X18715826Y-33779783D01*
X18619135Y-33859135D01*
X18539783Y-33955826D01*
X18480818Y-34066140D01*
X18444508Y-34185838D01*
X18432248Y-34310320D01*
X17580074Y-34310320D01*
X17643771Y-34246623D01*
X17517896Y-33956685D01*
X17185738Y-33790861D01*
X16827613Y-33693025D01*
X16457281Y-33666935D01*
X16088975Y-33713595D01*
X15736849Y-33831211D01*
X15502104Y-33956685D01*
X15376229Y-34246623D01*
X13360000Y-34246623D01*
X13360000Y-32410000D01*
X81890000Y-32410000D01*
X81890000Y-40175199D01*
X81890000Y-40175199D01*
G37*
X81890000Y-40175199D02*
X81376372Y-39661571D01*
X81407000Y-39507592D01*
X81407000Y-39232408D01*
X81376372Y-39078430D01*
X81608005Y-38846797D01*
X81637002Y-38823000D01*
X81731975Y-38707275D01*
X81802547Y-38575246D01*
X81846004Y-38431985D01*
X81857001Y-38320332D01*
X81857001Y-38320331D01*
X81860678Y-38282999D01*
X81857001Y-38245666D01*
X81857001Y-36345561D01*
X81860677Y-36308238D01*
X81857001Y-36270915D01*
X81857001Y-36270906D01*
X81846004Y-36159253D01*
X81802547Y-36015992D01*
X81731975Y-35883963D01*
X81637002Y-35768238D01*
X81608004Y-35744440D01*
X79825565Y-33962002D01*
X79801762Y-33932998D01*
X79686037Y-33838025D01*
X79554008Y-33767453D01*
X79410747Y-33723996D01*
X79299094Y-33712999D01*
X79299083Y-33712999D01*
X79261761Y-33709323D01*
X79224439Y-33712999D01*
X60814323Y-33712999D01*
X60777000Y-33709323D01*
X60739677Y-33712999D01*
X60739668Y-33712999D01*
X60628015Y-33723996D01*
X60484754Y-33767453D01*
X60352725Y-33838025D01*
X60237000Y-33932998D01*
X60213197Y-33962002D01*
X59981571Y-34193628D01*
X59827592Y-34163000D01*
X59552408Y-34163000D01*
X59282510Y-34216686D01*
X59028273Y-34321995D01*
X58799465Y-34474880D01*
X58604880Y-34669465D01*
X58451995Y-34898273D01*
X58346686Y-35152510D01*
X58293000Y-35422408D01*
X58293000Y-35697592D01*
X58346686Y-35967490D01*
X58451995Y-36221727D01*
X58604880Y-36450535D01*
X58799465Y-36645120D01*
X59028273Y-36798005D01*
X59099943Y-36827692D01*
X59086977Y-36832364D01*
X58971020Y-36894344D01*
X58904040Y-37134435D01*
X59690000Y-37920395D01*
X60475960Y-37134435D01*
X60408980Y-36894344D01*
X60273240Y-36830515D01*
X60351727Y-36798005D01*
X60580535Y-36645120D01*
X60775120Y-36450535D01*
X60928005Y-36221727D01*
X61033314Y-35967490D01*
X61087000Y-35697592D01*
X61087000Y-35422408D01*
X61056372Y-35268429D01*
X61091802Y-35232999D01*
X65950676Y-35232999D01*
X65913000Y-35422408D01*
X65913000Y-35697592D01*
X65966686Y-35967490D01*
X66071995Y-36221727D01*
X66224880Y-36450535D01*
X66419465Y-36645120D01*
X66648273Y-36798005D01*
X66725515Y-36830000D01*
X66648273Y-36861995D01*
X66419465Y-37014880D01*
X66224880Y-37209465D01*
X66071995Y-37438273D01*
X65966686Y-37692510D01*
X65913000Y-37962408D01*
X65913000Y-38237592D01*
X65966686Y-38507490D01*
X66071995Y-38761727D01*
X66224880Y-38990535D01*
X66419465Y-39185120D01*
X66648273Y-39338005D01*
X66725515Y-39370000D01*
X66648273Y-39401995D01*
X66419465Y-39554880D01*
X66224880Y-39749465D01*
X66071995Y-39978273D01*
X65966686Y-40232510D01*
X65913000Y-40502408D01*
X65913000Y-40777592D01*
X65966686Y-41047490D01*
X66071995Y-41301727D01*
X66224880Y-41530535D01*
X66419465Y-41725120D01*
X66648273Y-41878005D01*
X66725515Y-41910000D01*
X66648273Y-41941995D01*
X66419465Y-42094880D01*
X66224880Y-42289465D01*
X66071995Y-42518273D01*
X65966686Y-42772510D01*
X65913000Y-43042408D01*
X65913000Y-43317592D01*
X65966686Y-43587490D01*
X66071995Y-43841727D01*
X66224880Y-44070535D01*
X66419465Y-44265120D01*
X66648273Y-44418005D01*
X66725515Y-44450000D01*
X66648273Y-44481995D01*
X66419465Y-44634880D01*
X66224880Y-44829465D01*
X66071995Y-45058273D01*
X65966686Y-45312510D01*
X65913000Y-45582408D01*
X65913000Y-45857592D01*
X65966686Y-46127490D01*
X66071995Y-46381727D01*
X66224880Y-46610535D01*
X66419465Y-46805120D01*
X66648273Y-46958005D01*
X66725515Y-46990000D01*
X66648273Y-47021995D01*
X66419465Y-47174880D01*
X66224880Y-47369465D01*
X66071995Y-47598273D01*
X65966686Y-47852510D01*
X65913000Y-48122408D01*
X65913000Y-48397592D01*
X65966686Y-48667490D01*
X66071995Y-48921727D01*
X66224880Y-49150535D01*
X66419465Y-49345120D01*
X66648273Y-49498005D01*
X66725515Y-49530000D01*
X66648273Y-49561995D01*
X66419465Y-49714880D01*
X66224880Y-49909465D01*
X66071995Y-50138273D01*
X65966686Y-50392510D01*
X65913000Y-50662408D01*
X65913000Y-50937592D01*
X65966686Y-51207490D01*
X66071995Y-51461727D01*
X66224880Y-51690535D01*
X66419465Y-51885120D01*
X66648273Y-52038005D01*
X66725515Y-52070000D01*
X66648273Y-52101995D01*
X66419465Y-52254880D01*
X66224880Y-52449465D01*
X66071995Y-52678273D01*
X65966686Y-52932510D01*
X65913000Y-53202408D01*
X65913000Y-53477592D01*
X65966686Y-53747490D01*
X66071995Y-54001727D01*
X66224880Y-54230535D01*
X66419465Y-54425120D01*
X66648273Y-54578005D01*
X66725515Y-54610000D01*
X66648273Y-54641995D01*
X66419465Y-54794880D01*
X66224880Y-54989465D01*
X66071995Y-55218273D01*
X65966686Y-55472510D01*
X65913000Y-55742408D01*
X65913000Y-56017592D01*
X65966686Y-56287490D01*
X66071995Y-56541727D01*
X66098718Y-56581720D01*
X62988998Y-59691441D01*
X62960000Y-59715239D01*
X62936202Y-59744237D01*
X62936201Y-59744238D01*
X62865026Y-59830964D01*
X62794454Y-59962994D01*
X62764180Y-60062798D01*
X62753657Y-60097490D01*
X62750998Y-60106255D01*
X62736324Y-60255240D01*
X62740001Y-60292573D01*
X62740000Y-107635198D01*
X61087000Y-109288198D01*
X61087000Y-109082408D01*
X61033314Y-108812510D01*
X60928005Y-108558273D01*
X60775120Y-108329465D01*
X60580535Y-108134880D01*
X60351727Y-107981995D01*
X60274485Y-107950000D01*
X60351727Y-107918005D01*
X60580535Y-107765120D01*
X60775120Y-107570535D01*
X60928005Y-107341727D01*
X61033314Y-107087490D01*
X61087000Y-106817592D01*
X61087000Y-106542408D01*
X61033314Y-106272510D01*
X60928005Y-106018273D01*
X60775120Y-105789465D01*
X60580535Y-105594880D01*
X60351727Y-105441995D01*
X60274485Y-105410000D01*
X60351727Y-105378005D01*
X60580535Y-105225120D01*
X60775120Y-105030535D01*
X60928005Y-104801727D01*
X61033314Y-104547490D01*
X61087000Y-104277592D01*
X61087000Y-104002408D01*
X61033314Y-103732510D01*
X60928005Y-103478273D01*
X60775120Y-103249465D01*
X60580535Y-103054880D01*
X60351727Y-102901995D01*
X60274485Y-102870000D01*
X60351727Y-102838005D01*
X60580535Y-102685120D01*
X60775120Y-102490535D01*
X60928005Y-102261727D01*
X61033314Y-102007490D01*
X61087000Y-101737592D01*
X61087000Y-101462408D01*
X61033314Y-101192510D01*
X60928005Y-100938273D01*
X60775120Y-100709465D01*
X60580535Y-100514880D01*
X60351727Y-100361995D01*
X60274485Y-100330000D01*
X60351727Y-100298005D01*
X60580535Y-100145120D01*
X60775120Y-99950535D01*
X60928005Y-99721727D01*
X61033314Y-99467490D01*
X61087000Y-99197592D01*
X61087000Y-98922408D01*
X61033314Y-98652510D01*
X60928005Y-98398273D01*
X60775120Y-98169465D01*
X60580535Y-97974880D01*
X60351727Y-97821995D01*
X60274485Y-97790000D01*
X60351727Y-97758005D01*
X60580535Y-97605120D01*
X60775120Y-97410535D01*
X60928005Y-97181727D01*
X61033314Y-96927490D01*
X61087000Y-96657592D01*
X61087000Y-96382408D01*
X61033314Y-96112510D01*
X60928005Y-95858273D01*
X60775120Y-95629465D01*
X60580535Y-95434880D01*
X60351727Y-95281995D01*
X60274485Y-95250000D01*
X60351727Y-95218005D01*
X60580535Y-95065120D01*
X60775120Y-94870535D01*
X60928005Y-94641727D01*
X61033314Y-94387490D01*
X61087000Y-94117592D01*
X61087000Y-93842408D01*
X61033314Y-93572510D01*
X60928005Y-93318273D01*
X60775120Y-93089465D01*
X60580535Y-92894880D01*
X60351727Y-92741995D01*
X60274485Y-92710000D01*
X60351727Y-92678005D01*
X60580535Y-92525120D01*
X60775120Y-92330535D01*
X60928005Y-92101727D01*
X61033314Y-91847490D01*
X61087000Y-91577592D01*
X61087000Y-91302408D01*
X61033314Y-91032510D01*
X60928005Y-90778273D01*
X60775120Y-90549465D01*
X60580535Y-90354880D01*
X60351727Y-90201995D01*
X60274485Y-90170000D01*
X60351727Y-90138005D01*
X60580535Y-89985120D01*
X60775120Y-89790535D01*
X60928005Y-89561727D01*
X61033314Y-89307490D01*
X61087000Y-89037592D01*
X61087000Y-88762408D01*
X61033314Y-88492510D01*
X60928005Y-88238273D01*
X60775120Y-88009465D01*
X60580535Y-87814880D01*
X60351727Y-87661995D01*
X60274485Y-87630000D01*
X60351727Y-87598005D01*
X60580535Y-87445120D01*
X60775120Y-87250535D01*
X60928005Y-87021727D01*
X61033314Y-86767490D01*
X61087000Y-86497592D01*
X61087000Y-86222408D01*
X61033314Y-85952510D01*
X60928005Y-85698273D01*
X60775120Y-85469465D01*
X60580535Y-85274880D01*
X60351727Y-85121995D01*
X60274485Y-85090000D01*
X60351727Y-85058005D01*
X60580535Y-84905120D01*
X60775120Y-84710535D01*
X60928005Y-84481727D01*
X61033314Y-84227490D01*
X61087000Y-83957592D01*
X61087000Y-83682408D01*
X61033314Y-83412510D01*
X60928005Y-83158273D01*
X60775120Y-82929465D01*
X60580535Y-82734880D01*
X60351727Y-82581995D01*
X60274485Y-82550000D01*
X60351727Y-82518005D01*
X60580535Y-82365120D01*
X60775120Y-82170535D01*
X60928005Y-81941727D01*
X61033314Y-81687490D01*
X61087000Y-81417592D01*
X61087000Y-81142408D01*
X61033314Y-80872510D01*
X60928005Y-80618273D01*
X60775120Y-80389465D01*
X60580535Y-80194880D01*
X60351727Y-80041995D01*
X60274485Y-80010000D01*
X60351727Y-79978005D01*
X60580535Y-79825120D01*
X60775120Y-79630535D01*
X60928005Y-79401727D01*
X61033314Y-79147490D01*
X61087000Y-78877592D01*
X61087000Y-78602408D01*
X61033314Y-78332510D01*
X60928005Y-78078273D01*
X60775120Y-77849465D01*
X60580535Y-77654880D01*
X60351727Y-77501995D01*
X60274485Y-77470000D01*
X60351727Y-77438005D01*
X60580535Y-77285120D01*
X60775120Y-77090535D01*
X60928005Y-76861727D01*
X61033314Y-76607490D01*
X61087000Y-76337592D01*
X61087000Y-76062408D01*
X61033314Y-75792510D01*
X60928005Y-75538273D01*
X60775120Y-75309465D01*
X60580535Y-75114880D01*
X60351727Y-74961995D01*
X60274485Y-74930000D01*
X60351727Y-74898005D01*
X60580535Y-74745120D01*
X60775120Y-74550535D01*
X60928005Y-74321727D01*
X61033314Y-74067490D01*
X61087000Y-73797592D01*
X61087000Y-73522408D01*
X61033314Y-73252510D01*
X60928005Y-72998273D01*
X60775120Y-72769465D01*
X60580535Y-72574880D01*
X60351727Y-72421995D01*
X60274485Y-72390000D01*
X60351727Y-72358005D01*
X60580535Y-72205120D01*
X60775120Y-72010535D01*
X60928005Y-71781727D01*
X61033314Y-71527490D01*
X61087000Y-71257592D01*
X61087000Y-70982408D01*
X61033314Y-70712510D01*
X60928005Y-70458273D01*
X60775120Y-70229465D01*
X60580535Y-70034880D01*
X60351727Y-69881995D01*
X60274485Y-69850000D01*
X60351727Y-69818005D01*
X60580535Y-69665120D01*
X60775120Y-69470535D01*
X60928005Y-69241727D01*
X61033314Y-68987490D01*
X61087000Y-68717592D01*
X61087000Y-68442408D01*
X61033314Y-68172510D01*
X60928005Y-67918273D01*
X60775120Y-67689465D01*
X60580535Y-67494880D01*
X60351727Y-67341995D01*
X60274485Y-67310000D01*
X60351727Y-67278005D01*
X60580535Y-67125120D01*
X60775120Y-66930535D01*
X60928005Y-66701727D01*
X61033314Y-66447490D01*
X61087000Y-66177592D01*
X61087000Y-65902408D01*
X61033314Y-65632510D01*
X60928005Y-65378273D01*
X60775120Y-65149465D01*
X60580535Y-64954880D01*
X60351727Y-64801995D01*
X60274485Y-64770000D01*
X60351727Y-64738005D01*
X60580535Y-64585120D01*
X60775120Y-64390535D01*
X60928005Y-64161727D01*
X61033314Y-63907490D01*
X61087000Y-63637592D01*
X61087000Y-63362408D01*
X61033314Y-63092510D01*
X60928005Y-62838273D01*
X60775120Y-62609465D01*
X60580535Y-62414880D01*
X60351727Y-62261995D01*
X60274485Y-62230000D01*
X60351727Y-62198005D01*
X60580535Y-62045120D01*
X60775120Y-61850535D01*
X60928005Y-61621727D01*
X61033314Y-61367490D01*
X61087000Y-61097592D01*
X61087000Y-60822408D01*
X61033314Y-60552510D01*
X60928005Y-60298273D01*
X60775120Y-60069465D01*
X60580535Y-59874880D01*
X60351727Y-59721995D01*
X60274485Y-59690000D01*
X60351727Y-59658005D01*
X60580535Y-59505120D01*
X60775120Y-59310535D01*
X60928005Y-59081727D01*
X61033314Y-58827490D01*
X61087000Y-58557592D01*
X61087000Y-58282408D01*
X61033314Y-58012510D01*
X60928005Y-57758273D01*
X60775120Y-57529465D01*
X60580535Y-57334880D01*
X60351727Y-57181995D01*
X60274485Y-57150000D01*
X60351727Y-57118005D01*
X60580535Y-56965120D01*
X60775120Y-56770535D01*
X60928005Y-56541727D01*
X61033314Y-56287490D01*
X61087000Y-56017592D01*
X61087000Y-55742408D01*
X61033314Y-55472510D01*
X60928005Y-55218273D01*
X60775120Y-54989465D01*
X60580535Y-54794880D01*
X60351727Y-54641995D01*
X60274485Y-54610000D01*
X60351727Y-54578005D01*
X60580535Y-54425120D01*
X60775120Y-54230535D01*
X60928005Y-54001727D01*
X61033314Y-53747490D01*
X61087000Y-53477592D01*
X61087000Y-53202408D01*
X61033314Y-52932510D01*
X60928005Y-52678273D01*
X60775120Y-52449465D01*
X60580535Y-52254880D01*
X60351727Y-52101995D01*
X60274485Y-52070000D01*
X60351727Y-52038005D01*
X60580535Y-51885120D01*
X60775120Y-51690535D01*
X60928005Y-51461727D01*
X61033314Y-51207490D01*
X61087000Y-50937592D01*
X61087000Y-50662408D01*
X61033314Y-50392510D01*
X60928005Y-50138273D01*
X60775120Y-49909465D01*
X60580535Y-49714880D01*
X60351727Y-49561995D01*
X60274485Y-49530000D01*
X60351727Y-49498005D01*
X60580535Y-49345120D01*
X60775120Y-49150535D01*
X60928005Y-48921727D01*
X61033314Y-48667490D01*
X61087000Y-48397592D01*
X61087000Y-48122408D01*
X61033314Y-47852510D01*
X60928005Y-47598273D01*
X60775120Y-47369465D01*
X60580535Y-47174880D01*
X60351727Y-47021995D01*
X60274485Y-46990000D01*
X60351727Y-46958005D01*
X60580535Y-46805120D01*
X60775120Y-46610535D01*
X60928005Y-46381727D01*
X61033314Y-46127490D01*
X61087000Y-45857592D01*
X61087000Y-45582408D01*
X61033314Y-45312510D01*
X60928005Y-45058273D01*
X60775120Y-44829465D01*
X60580535Y-44634880D01*
X60351727Y-44481995D01*
X60274485Y-44450000D01*
X60351727Y-44418005D01*
X60580535Y-44265120D01*
X60775120Y-44070535D01*
X60928005Y-43841727D01*
X61033314Y-43587490D01*
X61087000Y-43317592D01*
X61087000Y-43042408D01*
X61033314Y-42772510D01*
X60928005Y-42518273D01*
X60775120Y-42289465D01*
X60580535Y-42094880D01*
X60351727Y-41941995D01*
X60274485Y-41910000D01*
X60351727Y-41878005D01*
X60580535Y-41725120D01*
X60775120Y-41530535D01*
X60928005Y-41301727D01*
X61033314Y-41047490D01*
X61087000Y-40777592D01*
X61087000Y-40502408D01*
X61033314Y-40232510D01*
X60928005Y-39978273D01*
X60775120Y-39749465D01*
X60580535Y-39554880D01*
X60351727Y-39401995D01*
X60280057Y-39372308D01*
X60293023Y-39367636D01*
X60408980Y-39305656D01*
X60475960Y-39065565D01*
X59690000Y-38279605D01*
X58904040Y-39065565D01*
X58971020Y-39305656D01*
X59106760Y-39369485D01*
X59028273Y-39401995D01*
X58799465Y-39554880D01*
X58604880Y-39749465D01*
X58451995Y-39978273D01*
X58346686Y-40232510D01*
X58293000Y-40502408D01*
X58293000Y-40777592D01*
X58346686Y-41047490D01*
X58451995Y-41301727D01*
X58604880Y-41530535D01*
X58799465Y-41725120D01*
X59028273Y-41878005D01*
X59105515Y-41910000D01*
X59028273Y-41941995D01*
X58799465Y-42094880D01*
X58604880Y-42289465D01*
X58451995Y-42518273D01*
X58346686Y-42772510D01*
X58293000Y-43042408D01*
X58293000Y-43317592D01*
X58346686Y-43587490D01*
X58451995Y-43841727D01*
X58604880Y-44070535D01*
X58799465Y-44265120D01*
X59028273Y-44418005D01*
X59105515Y-44450000D01*
X59028273Y-44481995D01*
X58799465Y-44634880D01*
X58604880Y-44829465D01*
X58451995Y-45058273D01*
X58346686Y-45312510D01*
X58293000Y-45582408D01*
X58293000Y-45857592D01*
X58346686Y-46127490D01*
X58451995Y-46381727D01*
X58604880Y-46610535D01*
X58799465Y-46805120D01*
X59028273Y-46958005D01*
X59105515Y-46990000D01*
X59028273Y-47021995D01*
X58799465Y-47174880D01*
X58604880Y-47369465D01*
X58451995Y-47598273D01*
X58346686Y-47852510D01*
X58293000Y-48122408D01*
X58293000Y-48397592D01*
X58346686Y-48667490D01*
X58451995Y-48921727D01*
X58604880Y-49150535D01*
X58799465Y-49345120D01*
X59028273Y-49498005D01*
X59105515Y-49530000D01*
X59028273Y-49561995D01*
X58799465Y-49714880D01*
X58604880Y-49909465D01*
X58451995Y-50138273D01*
X58346686Y-50392510D01*
X58293000Y-50662408D01*
X58293000Y-50937592D01*
X58346686Y-51207490D01*
X58451995Y-51461727D01*
X58604880Y-51690535D01*
X58799465Y-51885120D01*
X59028273Y-52038005D01*
X59105515Y-52070000D01*
X59028273Y-52101995D01*
X58799465Y-52254880D01*
X58604880Y-52449465D01*
X58451995Y-52678273D01*
X58346686Y-52932510D01*
X58293000Y-53202408D01*
X58293000Y-53477592D01*
X58346686Y-53747490D01*
X58451995Y-54001727D01*
X58604880Y-54230535D01*
X58799465Y-54425120D01*
X59028273Y-54578005D01*
X59105515Y-54610000D01*
X59028273Y-54641995D01*
X58799465Y-54794880D01*
X58604880Y-54989465D01*
X58451995Y-55218273D01*
X58346686Y-55472510D01*
X58293000Y-55742408D01*
X58293000Y-56017592D01*
X58346686Y-56287490D01*
X58451995Y-56541727D01*
X58604880Y-56770535D01*
X58799465Y-56965120D01*
X59028273Y-57118005D01*
X59105515Y-57150000D01*
X59028273Y-57181995D01*
X58799465Y-57334880D01*
X58604880Y-57529465D01*
X58451995Y-57758273D01*
X58346686Y-58012510D01*
X58293000Y-58282408D01*
X58293000Y-58557592D01*
X58346686Y-58827490D01*
X58451995Y-59081727D01*
X58604880Y-59310535D01*
X58799465Y-59505120D01*
X59028273Y-59658005D01*
X59105515Y-59690000D01*
X59028273Y-59721995D01*
X58799465Y-59874880D01*
X58604880Y-60069465D01*
X58451995Y-60298273D01*
X58346686Y-60552510D01*
X58293000Y-60822408D01*
X58293000Y-61097592D01*
X58346686Y-61367490D01*
X58451995Y-61621727D01*
X58604880Y-61850535D01*
X58799465Y-62045120D01*
X59028273Y-62198005D01*
X59105515Y-62230000D01*
X59028273Y-62261995D01*
X58799465Y-62414880D01*
X58604880Y-62609465D01*
X58451995Y-62838273D01*
X58346686Y-63092510D01*
X58293000Y-63362408D01*
X58293000Y-63637592D01*
X58346686Y-63907490D01*
X58451995Y-64161727D01*
X58604880Y-64390535D01*
X58799465Y-64585120D01*
X59028273Y-64738005D01*
X59105515Y-64770000D01*
X59028273Y-64801995D01*
X58799465Y-64954880D01*
X58604880Y-65149465D01*
X58451995Y-65378273D01*
X58346686Y-65632510D01*
X58293000Y-65902408D01*
X58293000Y-66177592D01*
X58346686Y-66447490D01*
X58451995Y-66701727D01*
X58604880Y-66930535D01*
X58799465Y-67125120D01*
X59028273Y-67278005D01*
X59105515Y-67310000D01*
X59028273Y-67341995D01*
X58799465Y-67494880D01*
X58604880Y-67689465D01*
X58451995Y-67918273D01*
X58346686Y-68172510D01*
X58293000Y-68442408D01*
X58293000Y-68717592D01*
X58346686Y-68987490D01*
X58451995Y-69241727D01*
X58604880Y-69470535D01*
X58799465Y-69665120D01*
X59028273Y-69818005D01*
X59105515Y-69850000D01*
X59028273Y-69881995D01*
X58799465Y-70034880D01*
X58604880Y-70229465D01*
X58517659Y-70360000D01*
X39400853Y-70360000D01*
X39443314Y-70257490D01*
X39497000Y-69987592D01*
X39497000Y-69712408D01*
X39443314Y-69442510D01*
X39338005Y-69188273D01*
X39185120Y-68959465D01*
X38990535Y-68764880D01*
X38761727Y-68611995D01*
X38684485Y-68580000D01*
X38761727Y-68548005D01*
X38990535Y-68395120D01*
X39185120Y-68200535D01*
X39338005Y-67971727D01*
X39443314Y-67717490D01*
X39497000Y-67447592D01*
X39497000Y-67172408D01*
X39443314Y-66902510D01*
X39338005Y-66648273D01*
X39185120Y-66419465D01*
X38990535Y-66224880D01*
X38761727Y-66071995D01*
X38684485Y-66040000D01*
X38761727Y-66008005D01*
X38990535Y-65855120D01*
X39185120Y-65660535D01*
X39338005Y-65431727D01*
X39443314Y-65177490D01*
X39497000Y-64907592D01*
X39497000Y-64632408D01*
X39443314Y-64362510D01*
X39338005Y-64108273D01*
X39185120Y-63879465D01*
X38990535Y-63684880D01*
X38761727Y-63531995D01*
X38507490Y-63426686D01*
X38237592Y-63373000D01*
X37962408Y-63373000D01*
X37692510Y-63426686D01*
X37438273Y-63531995D01*
X37209465Y-63684880D01*
X37014880Y-63879465D01*
X36861995Y-64108273D01*
X36756686Y-64362510D01*
X36703000Y-64632408D01*
X36703000Y-64907592D01*
X36756686Y-65177490D01*
X36861995Y-65431727D01*
X37014880Y-65660535D01*
X37209465Y-65855120D01*
X37438273Y-66008005D01*
X37515515Y-66040000D01*
X37438273Y-66071995D01*
X37209465Y-66224880D01*
X37014880Y-66419465D01*
X36861995Y-66648273D01*
X36756686Y-66902510D01*
X36703000Y-67172408D01*
X36703000Y-67447592D01*
X36756686Y-67717490D01*
X36861995Y-67971727D01*
X37014880Y-68200535D01*
X37209465Y-68395120D01*
X37438273Y-68548005D01*
X37515515Y-68580000D01*
X37438273Y-68611995D01*
X37209465Y-68764880D01*
X37014880Y-68959465D01*
X36861995Y-69188273D01*
X36756686Y-69442510D01*
X36703000Y-69712408D01*
X36703000Y-69987592D01*
X36756686Y-70257490D01*
X36799147Y-70360000D01*
X34604802Y-70360000D01*
X31846372Y-67601571D01*
X31877000Y-67447592D01*
X31877000Y-67172408D01*
X31823314Y-66902510D01*
X31718005Y-66648273D01*
X31565120Y-66419465D01*
X31370535Y-66224880D01*
X31141727Y-66071995D01*
X31064485Y-66040000D01*
X31141727Y-66008005D01*
X31370535Y-65855120D01*
X31565120Y-65660535D01*
X31718005Y-65431727D01*
X31823314Y-65177490D01*
X31877000Y-64907592D01*
X31877000Y-64632408D01*
X31823314Y-64362510D01*
X31718005Y-64108273D01*
X31565120Y-63879465D01*
X31370535Y-63684880D01*
X31141727Y-63531995D01*
X30887490Y-63426686D01*
X30617592Y-63373000D01*
X30342408Y-63373000D01*
X30072510Y-63426686D01*
X29818273Y-63531995D01*
X29589465Y-63684880D01*
X29394880Y-63879465D01*
X29241995Y-64108273D01*
X29136686Y-64362510D01*
X29083000Y-64632408D01*
X29083000Y-64907592D01*
X29136686Y-65177490D01*
X29241995Y-65431727D01*
X29394880Y-65660535D01*
X29589465Y-65855120D01*
X29818273Y-66008005D01*
X29895515Y-66040000D01*
X29818273Y-66071995D01*
X29589465Y-66224880D01*
X29394880Y-66419465D01*
X29241995Y-66648273D01*
X29136686Y-66902510D01*
X29083000Y-67172408D01*
X29083000Y-67447592D01*
X29136686Y-67717490D01*
X29241995Y-67971727D01*
X29394880Y-68200535D01*
X29589465Y-68395120D01*
X29818273Y-68548005D01*
X29895515Y-68580000D01*
X29818273Y-68611995D01*
X29589465Y-68764880D01*
X29394880Y-68959465D01*
X29241995Y-69188273D01*
X29136686Y-69442510D01*
X29083000Y-69712408D01*
X29083000Y-69987592D01*
X29136686Y-70257490D01*
X29241995Y-70511727D01*
X29394880Y-70740535D01*
X29589465Y-70935120D01*
X29818273Y-71088005D01*
X29895515Y-71120000D01*
X29818273Y-71151995D01*
X29589465Y-71304880D01*
X29394880Y-71499465D01*
X29241995Y-71728273D01*
X29136686Y-71982510D01*
X29083000Y-72252408D01*
X29083000Y-72527592D01*
X29136686Y-72797490D01*
X29241995Y-73051727D01*
X29394880Y-73280535D01*
X29589465Y-73475120D01*
X29818273Y-73628005D01*
X29895515Y-73660000D01*
X29818273Y-73691995D01*
X29589465Y-73844880D01*
X29394880Y-74039465D01*
X29241995Y-74268273D01*
X29136686Y-74522510D01*
X29083000Y-74792408D01*
X29083000Y-75067592D01*
X29136686Y-75337490D01*
X29241995Y-75591727D01*
X29394880Y-75820535D01*
X29589465Y-76015120D01*
X29818273Y-76168005D01*
X29895515Y-76200000D01*
X29818273Y-76231995D01*
X29589465Y-76384880D01*
X29394880Y-76579465D01*
X29241995Y-76808273D01*
X29136686Y-77062510D01*
X29083000Y-77332408D01*
X29083000Y-77607592D01*
X29136686Y-77877490D01*
X29241995Y-78131727D01*
X29394880Y-78360535D01*
X29589465Y-78555120D01*
X29818273Y-78708005D01*
X29889943Y-78737692D01*
X29876977Y-78742364D01*
X29761020Y-78804344D01*
X29694040Y-79044435D01*
X30480000Y-79830395D01*
X31265960Y-79044435D01*
X31198980Y-78804344D01*
X31063240Y-78740515D01*
X31141727Y-78708005D01*
X31370535Y-78555120D01*
X31565120Y-78360535D01*
X31718005Y-78131727D01*
X31823314Y-77877490D01*
X31877000Y-77607592D01*
X31877000Y-77332408D01*
X31823314Y-77062510D01*
X31718005Y-76808273D01*
X31565120Y-76579465D01*
X31370535Y-76384880D01*
X31141727Y-76231995D01*
X31064485Y-76200000D01*
X31141727Y-76168005D01*
X31370535Y-76015120D01*
X31565120Y-75820535D01*
X31718005Y-75591727D01*
X31823314Y-75337490D01*
X31877000Y-75067592D01*
X31877000Y-74792408D01*
X31823314Y-74522510D01*
X31781106Y-74420612D01*
X31787322Y-74420000D01*
X36799147Y-74420000D01*
X36756686Y-74522510D01*
X36703000Y-74792408D01*
X36703000Y-75067592D01*
X36756686Y-75337490D01*
X36861995Y-75591727D01*
X37014880Y-75820535D01*
X37209465Y-76015120D01*
X37438273Y-76168005D01*
X37515515Y-76200000D01*
X37438273Y-76231995D01*
X37209465Y-76384880D01*
X37014880Y-76579465D01*
X36861995Y-76808273D01*
X36756686Y-77062510D01*
X36703000Y-77332408D01*
X36703000Y-77607592D01*
X36756686Y-77877490D01*
X36861995Y-78131727D01*
X37014880Y-78360535D01*
X37209465Y-78555120D01*
X37438273Y-78708005D01*
X37515515Y-78740000D01*
X37438273Y-78771995D01*
X37209465Y-78924880D01*
X37014880Y-79119465D01*
X36861995Y-79348273D01*
X36756686Y-79602510D01*
X36703000Y-79872408D01*
X36703000Y-80147592D01*
X36756686Y-80417490D01*
X36861995Y-80671727D01*
X37014880Y-80900535D01*
X37209465Y-81095120D01*
X37438273Y-81248005D01*
X37692510Y-81353314D01*
X37962408Y-81407000D01*
X38237592Y-81407000D01*
X38507490Y-81353314D01*
X38761727Y-81248005D01*
X38990535Y-81095120D01*
X39185120Y-80900535D01*
X39338005Y-80671727D01*
X39443314Y-80417490D01*
X39497000Y-80147592D01*
X39497000Y-79872408D01*
X39443314Y-79602510D01*
X39338005Y-79348273D01*
X39185120Y-79119465D01*
X38990535Y-78924880D01*
X38761727Y-78771995D01*
X38684485Y-78740000D01*
X38761727Y-78708005D01*
X38990535Y-78555120D01*
X39185120Y-78360535D01*
X39338005Y-78131727D01*
X39443314Y-77877490D01*
X39497000Y-77607592D01*
X39497000Y-77332408D01*
X39443314Y-77062510D01*
X39338005Y-76808273D01*
X39185120Y-76579465D01*
X38990535Y-76384880D01*
X38761727Y-76231995D01*
X38684485Y-76200000D01*
X38761727Y-76168005D01*
X38990535Y-76015120D01*
X39185120Y-75820535D01*
X39338005Y-75591727D01*
X39443314Y-75337490D01*
X39497000Y-75067592D01*
X39497000Y-74792408D01*
X39443314Y-74522510D01*
X39400853Y-74420000D01*
X58517659Y-74420000D01*
X58604880Y-74550535D01*
X58799465Y-74745120D01*
X59028273Y-74898005D01*
X59105515Y-74930000D01*
X59028273Y-74961995D01*
X58799465Y-75114880D01*
X58604880Y-75309465D01*
X58451995Y-75538273D01*
X58346686Y-75792510D01*
X58293000Y-76062408D01*
X58293000Y-76337592D01*
X58346686Y-76607490D01*
X58451995Y-76861727D01*
X58604880Y-77090535D01*
X58799465Y-77285120D01*
X59028273Y-77438005D01*
X59105515Y-77470000D01*
X59028273Y-77501995D01*
X58799465Y-77654880D01*
X58604880Y-77849465D01*
X58451995Y-78078273D01*
X58346686Y-78332510D01*
X58293000Y-78602408D01*
X58293000Y-78877592D01*
X58346686Y-79147490D01*
X58451995Y-79401727D01*
X58604880Y-79630535D01*
X58799465Y-79825120D01*
X59028273Y-79978005D01*
X59105515Y-80010000D01*
X59028273Y-80041995D01*
X58799465Y-80194880D01*
X58604880Y-80389465D01*
X58451995Y-80618273D01*
X58346686Y-80872510D01*
X58293000Y-81142408D01*
X58293000Y-81417592D01*
X58346686Y-81687490D01*
X58451995Y-81941727D01*
X58604880Y-82170535D01*
X58799465Y-82365120D01*
X59028273Y-82518005D01*
X59105515Y-82550000D01*
X59028273Y-82581995D01*
X58799465Y-82734880D01*
X58604880Y-82929465D01*
X58451995Y-83158273D01*
X58346686Y-83412510D01*
X58293000Y-83682408D01*
X58293000Y-83957592D01*
X58346686Y-84227490D01*
X58451995Y-84481727D01*
X58604880Y-84710535D01*
X58799465Y-84905120D01*
X59028273Y-85058005D01*
X59105515Y-85090000D01*
X59028273Y-85121995D01*
X58799465Y-85274880D01*
X58604880Y-85469465D01*
X58451995Y-85698273D01*
X58346686Y-85952510D01*
X58293000Y-86222408D01*
X58293000Y-86497592D01*
X58346686Y-86767490D01*
X58451995Y-87021727D01*
X58604880Y-87250535D01*
X58799465Y-87445120D01*
X59028273Y-87598005D01*
X59105515Y-87630000D01*
X59028273Y-87661995D01*
X58799465Y-87814880D01*
X58604880Y-88009465D01*
X58451995Y-88238273D01*
X58346686Y-88492510D01*
X58293000Y-88762408D01*
X58293000Y-89037592D01*
X58346686Y-89307490D01*
X58451995Y-89561727D01*
X58604880Y-89790535D01*
X58799465Y-89985120D01*
X59028273Y-90138005D01*
X59105515Y-90170000D01*
X59028273Y-90201995D01*
X58799465Y-90354880D01*
X58604880Y-90549465D01*
X58451995Y-90778273D01*
X58346686Y-91032510D01*
X58293000Y-91302408D01*
X58293000Y-91577592D01*
X58346686Y-91847490D01*
X58451995Y-92101727D01*
X58604880Y-92330535D01*
X58799465Y-92525120D01*
X59028273Y-92678005D01*
X59105515Y-92710000D01*
X59028273Y-92741995D01*
X58799465Y-92894880D01*
X58604880Y-93089465D01*
X58451995Y-93318273D01*
X58346686Y-93572510D01*
X58293000Y-93842408D01*
X58293000Y-94117592D01*
X58346686Y-94387490D01*
X58451995Y-94641727D01*
X58604880Y-94870535D01*
X58799465Y-95065120D01*
X59028273Y-95218005D01*
X59105515Y-95250000D01*
X59028273Y-95281995D01*
X58799465Y-95434880D01*
X58604880Y-95629465D01*
X58451995Y-95858273D01*
X58346686Y-96112510D01*
X58293000Y-96382408D01*
X58293000Y-96657592D01*
X58346686Y-96927490D01*
X58451995Y-97181727D01*
X58604880Y-97410535D01*
X58799465Y-97605120D01*
X59028273Y-97758005D01*
X59105515Y-97790000D01*
X59028273Y-97821995D01*
X58799465Y-97974880D01*
X58604880Y-98169465D01*
X58451995Y-98398273D01*
X58346686Y-98652510D01*
X58293000Y-98922408D01*
X58293000Y-99197592D01*
X58346686Y-99467490D01*
X58451995Y-99721727D01*
X58604880Y-99950535D01*
X58799465Y-100145120D01*
X59028273Y-100298005D01*
X59105515Y-100330000D01*
X59028273Y-100361995D01*
X58799465Y-100514880D01*
X58604880Y-100709465D01*
X58451995Y-100938273D01*
X58346686Y-101192510D01*
X58293000Y-101462408D01*
X58293000Y-101737592D01*
X58346686Y-102007490D01*
X58451995Y-102261727D01*
X58604880Y-102490535D01*
X58799465Y-102685120D01*
X59028273Y-102838005D01*
X59105515Y-102870000D01*
X59028273Y-102901995D01*
X58799465Y-103054880D01*
X58604880Y-103249465D01*
X58451995Y-103478273D01*
X58346686Y-103732510D01*
X58293000Y-104002408D01*
X58293000Y-104277592D01*
X58346686Y-104547490D01*
X58451995Y-104801727D01*
X58604880Y-105030535D01*
X58799465Y-105225120D01*
X59028273Y-105378005D01*
X59105515Y-105410000D01*
X59028273Y-105441995D01*
X58799465Y-105594880D01*
X58604880Y-105789465D01*
X58451995Y-106018273D01*
X58346686Y-106272510D01*
X58293000Y-106542408D01*
X58293000Y-106817592D01*
X58346686Y-107087490D01*
X58451995Y-107341727D01*
X58604880Y-107570535D01*
X58799465Y-107765120D01*
X59028273Y-107918005D01*
X59105515Y-107950000D01*
X59028273Y-107981995D01*
X58799465Y-108134880D01*
X58604880Y-108329465D01*
X58451995Y-108558273D01*
X58346686Y-108812510D01*
X58293000Y-109082408D01*
X58293000Y-109357592D01*
X58346686Y-109627490D01*
X58451995Y-109881727D01*
X58604880Y-110110535D01*
X58799465Y-110305120D01*
X59028273Y-110458005D01*
X59105515Y-110490000D01*
X59028273Y-110521995D01*
X58799465Y-110674880D01*
X58604880Y-110869465D01*
X58451995Y-111098273D01*
X58346686Y-111352510D01*
X58293000Y-111622408D01*
X58293000Y-111897592D01*
X58346686Y-112167490D01*
X58451995Y-112421727D01*
X58604880Y-112650535D01*
X58799465Y-112845120D01*
X59028273Y-112998005D01*
X59105515Y-113030000D01*
X59028273Y-113061995D01*
X58799465Y-113214880D01*
X58604880Y-113409465D01*
X58451995Y-113638273D01*
X58346686Y-113892510D01*
X58293000Y-114162408D01*
X58293000Y-114437592D01*
X58346686Y-114707490D01*
X58451995Y-114961727D01*
X58604880Y-115190535D01*
X58799465Y-115385120D01*
X59028273Y-115538005D01*
X59282510Y-115643314D01*
X59552408Y-115697000D01*
X59827592Y-115697000D01*
X60097490Y-115643314D01*
X60351727Y-115538005D01*
X60580535Y-115385120D01*
X60700090Y-115265565D01*
X66524040Y-115265565D01*
X66591020Y-115505656D01*
X66840048Y-115622756D01*
X67107135Y-115689023D01*
X67382017Y-115701910D01*
X67654133Y-115660922D01*
X67913023Y-115567636D01*
X68028980Y-115505656D01*
X68095960Y-115265565D01*
X67310000Y-114479605D01*
X66524040Y-115265565D01*
X60700090Y-115265565D01*
X60775120Y-115190535D01*
X60928005Y-114961727D01*
X61033314Y-114707490D01*
X61087000Y-114437592D01*
X61087000Y-114372017D01*
X65908090Y-114372017D01*
X65949078Y-114644133D01*
X66042364Y-114903023D01*
X66104344Y-115018980D01*
X66344435Y-115085960D01*
X67130395Y-114300000D01*
X67489605Y-114300000D01*
X68275565Y-115085960D01*
X68515656Y-115018980D01*
X68632756Y-114769952D01*
X68699023Y-114502865D01*
X68711910Y-114227983D01*
X68670922Y-113955867D01*
X68577636Y-113696977D01*
X68515656Y-113581020D01*
X68275565Y-113514040D01*
X67489605Y-114300000D01*
X67130395Y-114300000D01*
X66344435Y-113514040D01*
X66104344Y-113581020D01*
X65987244Y-113830048D01*
X65920977Y-114097135D01*
X65908090Y-114372017D01*
X61087000Y-114372017D01*
X61087000Y-114162408D01*
X61033314Y-113892510D01*
X60928005Y-113638273D01*
X60775120Y-113409465D01*
X60580535Y-113214880D01*
X60351727Y-113061995D01*
X60274485Y-113030000D01*
X60351727Y-112998005D01*
X60580535Y-112845120D01*
X60775120Y-112650535D01*
X60928005Y-112421727D01*
X61033314Y-112167490D01*
X61087000Y-111897592D01*
X61087000Y-111622408D01*
X61056372Y-111468429D01*
X64011004Y-108513798D01*
X64040001Y-108490001D01*
X64134974Y-108374276D01*
X64205546Y-108242247D01*
X64249003Y-108098986D01*
X64260000Y-107987333D01*
X64260000Y-107987325D01*
X64263676Y-107950000D01*
X64260000Y-107912675D01*
X64260000Y-60570041D01*
X65977191Y-58852851D01*
X66071995Y-59081727D01*
X66224880Y-59310535D01*
X66419465Y-59505120D01*
X66648273Y-59658005D01*
X66725515Y-59690000D01*
X66648273Y-59721995D01*
X66419465Y-59874880D01*
X66224880Y-60069465D01*
X66071995Y-60298273D01*
X65966686Y-60552510D01*
X65913000Y-60822408D01*
X65913000Y-61097592D01*
X65966686Y-61367490D01*
X66071995Y-61621727D01*
X66224880Y-61850535D01*
X66419465Y-62045120D01*
X66648273Y-62198005D01*
X66725515Y-62230000D01*
X66648273Y-62261995D01*
X66419465Y-62414880D01*
X66224880Y-62609465D01*
X66071995Y-62838273D01*
X65966686Y-63092510D01*
X65913000Y-63362408D01*
X65913000Y-63637592D01*
X65966686Y-63907490D01*
X66071995Y-64161727D01*
X66224880Y-64390535D01*
X66419465Y-64585120D01*
X66648273Y-64738005D01*
X66725515Y-64770000D01*
X66648273Y-64801995D01*
X66419465Y-64954880D01*
X66224880Y-65149465D01*
X66071995Y-65378273D01*
X65966686Y-65632510D01*
X65913000Y-65902408D01*
X65913000Y-66177592D01*
X65966686Y-66447490D01*
X66071995Y-66701727D01*
X66224880Y-66930535D01*
X66419465Y-67125120D01*
X66648273Y-67278005D01*
X66725515Y-67310000D01*
X66648273Y-67341995D01*
X66419465Y-67494880D01*
X66224880Y-67689465D01*
X66071995Y-67918273D01*
X65966686Y-68172510D01*
X65913000Y-68442408D01*
X65913000Y-68717592D01*
X65966686Y-68987490D01*
X66071995Y-69241727D01*
X66224880Y-69470535D01*
X66419465Y-69665120D01*
X66648273Y-69818005D01*
X66725515Y-69850000D01*
X66648273Y-69881995D01*
X66419465Y-70034880D01*
X66224880Y-70229465D01*
X66071995Y-70458273D01*
X65966686Y-70712510D01*
X65913000Y-70982408D01*
X65913000Y-71257592D01*
X65966686Y-71527490D01*
X66071995Y-71781727D01*
X66224880Y-72010535D01*
X66419465Y-72205120D01*
X66648273Y-72358005D01*
X66725515Y-72390000D01*
X66648273Y-72421995D01*
X66419465Y-72574880D01*
X66224880Y-72769465D01*
X66071995Y-72998273D01*
X65966686Y-73252510D01*
X65913000Y-73522408D01*
X65913000Y-73797592D01*
X65966686Y-74067490D01*
X66071995Y-74321727D01*
X66224880Y-74550535D01*
X66419465Y-74745120D01*
X66648273Y-74898005D01*
X66725515Y-74930000D01*
X66648273Y-74961995D01*
X66419465Y-75114880D01*
X66224880Y-75309465D01*
X66071995Y-75538273D01*
X65966686Y-75792510D01*
X65913000Y-76062408D01*
X65913000Y-76337592D01*
X65966686Y-76607490D01*
X66071995Y-76861727D01*
X66224880Y-77090535D01*
X66419465Y-77285120D01*
X66648273Y-77438005D01*
X66725515Y-77470000D01*
X66648273Y-77501995D01*
X66419465Y-77654880D01*
X66224880Y-77849465D01*
X66071995Y-78078273D01*
X65966686Y-78332510D01*
X65913000Y-78602408D01*
X65913000Y-78877592D01*
X65966686Y-79147490D01*
X66071995Y-79401727D01*
X66224880Y-79630535D01*
X66419465Y-79825120D01*
X66648273Y-79978005D01*
X66725515Y-80010000D01*
X66648273Y-80041995D01*
X66419465Y-80194880D01*
X66224880Y-80389465D01*
X66071995Y-80618273D01*
X65966686Y-80872510D01*
X65913000Y-81142408D01*
X65913000Y-81417592D01*
X65966686Y-81687490D01*
X66071995Y-81941727D01*
X66224880Y-82170535D01*
X66419465Y-82365120D01*
X66648273Y-82518005D01*
X66725515Y-82550000D01*
X66648273Y-82581995D01*
X66419465Y-82734880D01*
X66224880Y-82929465D01*
X66071995Y-83158273D01*
X65966686Y-83412510D01*
X65913000Y-83682408D01*
X65913000Y-83957592D01*
X65966686Y-84227490D01*
X66071995Y-84481727D01*
X66224880Y-84710535D01*
X66419465Y-84905120D01*
X66648273Y-85058005D01*
X66725515Y-85090000D01*
X66648273Y-85121995D01*
X66419465Y-85274880D01*
X66224880Y-85469465D01*
X66071995Y-85698273D01*
X65966686Y-85952510D01*
X65913000Y-86222408D01*
X65913000Y-86497592D01*
X65966686Y-86767490D01*
X66071995Y-87021727D01*
X66224880Y-87250535D01*
X66419465Y-87445120D01*
X66648273Y-87598005D01*
X66725515Y-87630000D01*
X66648273Y-87661995D01*
X66419465Y-87814880D01*
X66224880Y-88009465D01*
X66071995Y-88238273D01*
X65966686Y-88492510D01*
X65913000Y-88762408D01*
X65913000Y-89037592D01*
X65966686Y-89307490D01*
X66071995Y-89561727D01*
X66224880Y-89790535D01*
X66419465Y-89985120D01*
X66648273Y-90138005D01*
X66725515Y-90170000D01*
X66648273Y-90201995D01*
X66419465Y-90354880D01*
X66224880Y-90549465D01*
X66071995Y-90778273D01*
X65966686Y-91032510D01*
X65913000Y-91302408D01*
X65913000Y-91577592D01*
X65966686Y-91847490D01*
X66071995Y-92101727D01*
X66224880Y-92330535D01*
X66419465Y-92525120D01*
X66648273Y-92678005D01*
X66725515Y-92710000D01*
X66648273Y-92741995D01*
X66419465Y-92894880D01*
X66224880Y-93089465D01*
X66071995Y-93318273D01*
X65966686Y-93572510D01*
X65913000Y-93842408D01*
X65913000Y-94117592D01*
X65966686Y-94387490D01*
X66071995Y-94641727D01*
X66224880Y-94870535D01*
X66419465Y-95065120D01*
X66648273Y-95218005D01*
X66725515Y-95250000D01*
X66648273Y-95281995D01*
X66419465Y-95434880D01*
X66224880Y-95629465D01*
X66071995Y-95858273D01*
X65966686Y-96112510D01*
X65913000Y-96382408D01*
X65913000Y-96657592D01*
X65966686Y-96927490D01*
X66071995Y-97181727D01*
X66224880Y-97410535D01*
X66419465Y-97605120D01*
X66648273Y-97758005D01*
X66725515Y-97790000D01*
X66648273Y-97821995D01*
X66419465Y-97974880D01*
X66224880Y-98169465D01*
X66071995Y-98398273D01*
X65966686Y-98652510D01*
X65913000Y-98922408D01*
X65913000Y-99197592D01*
X65966686Y-99467490D01*
X66071995Y-99721727D01*
X66224880Y-99950535D01*
X66419465Y-100145120D01*
X66648273Y-100298005D01*
X66725515Y-100330000D01*
X66648273Y-100361995D01*
X66419465Y-100514880D01*
X66224880Y-100709465D01*
X66071995Y-100938273D01*
X65966686Y-101192510D01*
X65913000Y-101462408D01*
X65913000Y-101737592D01*
X65966686Y-102007490D01*
X66071995Y-102261727D01*
X66224880Y-102490535D01*
X66419465Y-102685120D01*
X66648273Y-102838005D01*
X66725515Y-102870000D01*
X66648273Y-102901995D01*
X66419465Y-103054880D01*
X66224880Y-103249465D01*
X66071995Y-103478273D01*
X65966686Y-103732510D01*
X65913000Y-104002408D01*
X65913000Y-104277592D01*
X65966686Y-104547490D01*
X66071995Y-104801727D01*
X66224880Y-105030535D01*
X66419465Y-105225120D01*
X66648273Y-105378005D01*
X66725515Y-105410000D01*
X66648273Y-105441995D01*
X66419465Y-105594880D01*
X66224880Y-105789465D01*
X66071995Y-106018273D01*
X65966686Y-106272510D01*
X65913000Y-106542408D01*
X65913000Y-106817592D01*
X65966686Y-107087490D01*
X66071995Y-107341727D01*
X66224880Y-107570535D01*
X66419465Y-107765120D01*
X66648273Y-107918005D01*
X66725515Y-107950000D01*
X66648273Y-107981995D01*
X66419465Y-108134880D01*
X66224880Y-108329465D01*
X66071995Y-108558273D01*
X65966686Y-108812510D01*
X65913000Y-109082408D01*
X65913000Y-109357592D01*
X65966686Y-109627490D01*
X66071995Y-109881727D01*
X66224880Y-110110535D01*
X66419465Y-110305120D01*
X66648273Y-110458005D01*
X66725515Y-110490000D01*
X66648273Y-110521995D01*
X66419465Y-110674880D01*
X66224880Y-110869465D01*
X66071995Y-111098273D01*
X65966686Y-111352510D01*
X65913000Y-111622408D01*
X65913000Y-111897592D01*
X65966686Y-112167490D01*
X66071995Y-112421727D01*
X66224880Y-112650535D01*
X66419465Y-112845120D01*
X66648273Y-112998005D01*
X66719943Y-113027692D01*
X66706977Y-113032364D01*
X66591020Y-113094344D01*
X66524040Y-113334435D01*
X67310000Y-114120395D01*
X68095960Y-113334435D01*
X68028980Y-113094344D01*
X67893240Y-113030515D01*
X67971727Y-112998005D01*
X68200535Y-112845120D01*
X68395120Y-112650535D01*
X68548005Y-112421727D01*
X68653314Y-112167490D01*
X68707000Y-111897592D01*
X68707000Y-111622408D01*
X68653314Y-111352510D01*
X68548005Y-111098273D01*
X68395120Y-110869465D01*
X68200535Y-110674880D01*
X67971727Y-110521995D01*
X67894485Y-110490000D01*
X67971727Y-110458005D01*
X68200535Y-110305120D01*
X68395120Y-110110535D01*
X68548005Y-109881727D01*
X68653314Y-109627490D01*
X68707000Y-109357592D01*
X68707000Y-109082408D01*
X68653314Y-108812510D01*
X68548005Y-108558273D01*
X68395120Y-108329465D01*
X68200535Y-108134880D01*
X67971727Y-107981995D01*
X67894485Y-107950000D01*
X67971727Y-107918005D01*
X68200535Y-107765120D01*
X68395120Y-107570535D01*
X68548005Y-107341727D01*
X68653314Y-107087490D01*
X68707000Y-106817592D01*
X68707000Y-106542408D01*
X68653314Y-106272510D01*
X68548005Y-106018273D01*
X68395120Y-105789465D01*
X68200535Y-105594880D01*
X67971727Y-105441995D01*
X67894485Y-105410000D01*
X67971727Y-105378005D01*
X68200535Y-105225120D01*
X68395120Y-105030535D01*
X68548005Y-104801727D01*
X68653314Y-104547490D01*
X68707000Y-104277592D01*
X68707000Y-104002408D01*
X68653314Y-103732510D01*
X68548005Y-103478273D01*
X68395120Y-103249465D01*
X68200535Y-103054880D01*
X67971727Y-102901995D01*
X67894485Y-102870000D01*
X67971727Y-102838005D01*
X68200535Y-102685120D01*
X68395120Y-102490535D01*
X68548005Y-102261727D01*
X68653314Y-102007490D01*
X68707000Y-101737592D01*
X68707000Y-101462408D01*
X68653314Y-101192510D01*
X68548005Y-100938273D01*
X68395120Y-100709465D01*
X68200535Y-100514880D01*
X67971727Y-100361995D01*
X67894485Y-100330000D01*
X67971727Y-100298005D01*
X68200535Y-100145120D01*
X68395120Y-99950535D01*
X68548005Y-99721727D01*
X68653314Y-99467490D01*
X68707000Y-99197592D01*
X68707000Y-98922408D01*
X68653314Y-98652510D01*
X68548005Y-98398273D01*
X68395120Y-98169465D01*
X68200535Y-97974880D01*
X67971727Y-97821995D01*
X67894485Y-97790000D01*
X67971727Y-97758005D01*
X68200535Y-97605120D01*
X68395120Y-97410535D01*
X68548005Y-97181727D01*
X68653314Y-96927490D01*
X68707000Y-96657592D01*
X68707000Y-96382408D01*
X68653314Y-96112510D01*
X68548005Y-95858273D01*
X68395120Y-95629465D01*
X68200535Y-95434880D01*
X67971727Y-95281995D01*
X67894485Y-95250000D01*
X67971727Y-95218005D01*
X68200535Y-95065120D01*
X68395120Y-94870535D01*
X68548005Y-94641727D01*
X68653314Y-94387490D01*
X68707000Y-94117592D01*
X68707000Y-93842408D01*
X68653314Y-93572510D01*
X68548005Y-93318273D01*
X68395120Y-93089465D01*
X68200535Y-92894880D01*
X67971727Y-92741995D01*
X67894485Y-92710000D01*
X67971727Y-92678005D01*
X68200535Y-92525120D01*
X68395120Y-92330535D01*
X68548005Y-92101727D01*
X68653314Y-91847490D01*
X68707000Y-91577592D01*
X68707000Y-91302408D01*
X68653314Y-91032510D01*
X68548005Y-90778273D01*
X68395120Y-90549465D01*
X68200535Y-90354880D01*
X67971727Y-90201995D01*
X67894485Y-90170000D01*
X67971727Y-90138005D01*
X68200535Y-89985120D01*
X68395120Y-89790535D01*
X68548005Y-89561727D01*
X68653314Y-89307490D01*
X68707000Y-89037592D01*
X68707000Y-88762408D01*
X68653314Y-88492510D01*
X68548005Y-88238273D01*
X68395120Y-88009465D01*
X68200535Y-87814880D01*
X67971727Y-87661995D01*
X67894485Y-87630000D01*
X67971727Y-87598005D01*
X68200535Y-87445120D01*
X68395120Y-87250535D01*
X68548005Y-87021727D01*
X68653314Y-86767490D01*
X68707000Y-86497592D01*
X68707000Y-86222408D01*
X68653314Y-85952510D01*
X68548005Y-85698273D01*
X68395120Y-85469465D01*
X68200535Y-85274880D01*
X67971727Y-85121995D01*
X67894485Y-85090000D01*
X67971727Y-85058005D01*
X68200535Y-84905120D01*
X68395120Y-84710535D01*
X68548005Y-84481727D01*
X68653314Y-84227490D01*
X68707000Y-83957592D01*
X68707000Y-83682408D01*
X68653314Y-83412510D01*
X68548005Y-83158273D01*
X68395120Y-82929465D01*
X68200535Y-82734880D01*
X67971727Y-82581995D01*
X67894485Y-82550000D01*
X67971727Y-82518005D01*
X68200535Y-82365120D01*
X68395120Y-82170535D01*
X68548005Y-81941727D01*
X68653314Y-81687490D01*
X68707000Y-81417592D01*
X68707000Y-81142408D01*
X68653314Y-80872510D01*
X68548005Y-80618273D01*
X68395120Y-80389465D01*
X68200535Y-80194880D01*
X67971727Y-80041995D01*
X67894485Y-80010000D01*
X67971727Y-79978005D01*
X68200535Y-79825120D01*
X68395120Y-79630535D01*
X68548005Y-79401727D01*
X68653314Y-79147490D01*
X68707000Y-78877592D01*
X68707000Y-78602408D01*
X68653314Y-78332510D01*
X68548005Y-78078273D01*
X68395120Y-77849465D01*
X68200535Y-77654880D01*
X67971727Y-77501995D01*
X67894485Y-77470000D01*
X67971727Y-77438005D01*
X68200535Y-77285120D01*
X68395120Y-77090535D01*
X68548005Y-76861727D01*
X68653314Y-76607490D01*
X68707000Y-76337592D01*
X68707000Y-76062408D01*
X68653314Y-75792510D01*
X68548005Y-75538273D01*
X68395120Y-75309465D01*
X68200535Y-75114880D01*
X67971727Y-74961995D01*
X67894485Y-74930000D01*
X67971727Y-74898005D01*
X68200535Y-74745120D01*
X68395120Y-74550535D01*
X68548005Y-74321727D01*
X68653314Y-74067490D01*
X68707000Y-73797592D01*
X68707000Y-73522408D01*
X68653314Y-73252510D01*
X68548005Y-72998273D01*
X68395120Y-72769465D01*
X68200535Y-72574880D01*
X67971727Y-72421995D01*
X67894485Y-72390000D01*
X67971727Y-72358005D01*
X68200535Y-72205120D01*
X68395120Y-72010535D01*
X68548005Y-71781727D01*
X68653314Y-71527490D01*
X68707000Y-71257592D01*
X68707000Y-70982408D01*
X68653314Y-70712510D01*
X68548005Y-70458273D01*
X68395120Y-70229465D01*
X68200535Y-70034880D01*
X67971727Y-69881995D01*
X67894485Y-69850000D01*
X67971727Y-69818005D01*
X68200535Y-69665120D01*
X68395120Y-69470535D01*
X68548005Y-69241727D01*
X68653314Y-68987490D01*
X68707000Y-68717592D01*
X68707000Y-68442408D01*
X68653314Y-68172510D01*
X68548005Y-67918273D01*
X68395120Y-67689465D01*
X68200535Y-67494880D01*
X67971727Y-67341995D01*
X67894485Y-67310000D01*
X67971727Y-67278005D01*
X68200535Y-67125120D01*
X68395120Y-66930535D01*
X68548005Y-66701727D01*
X68653314Y-66447490D01*
X68707000Y-66177592D01*
X68707000Y-65902408D01*
X68653314Y-65632510D01*
X68548005Y-65378273D01*
X68395120Y-65149465D01*
X68200535Y-64954880D01*
X67971727Y-64801995D01*
X67894485Y-64770000D01*
X67971727Y-64738005D01*
X68200535Y-64585120D01*
X68395120Y-64390535D01*
X68548005Y-64161727D01*
X68653314Y-63907490D01*
X68707000Y-63637592D01*
X68707000Y-63362408D01*
X68653314Y-63092510D01*
X68548005Y-62838273D01*
X68395120Y-62609465D01*
X68200535Y-62414880D01*
X67971727Y-62261995D01*
X67894485Y-62230000D01*
X67971727Y-62198005D01*
X68200535Y-62045120D01*
X68395120Y-61850535D01*
X68548005Y-61621727D01*
X68653314Y-61367490D01*
X68707000Y-61097592D01*
X68707000Y-60822408D01*
X68653314Y-60552510D01*
X68548005Y-60298273D01*
X68395120Y-60069465D01*
X68200535Y-59874880D01*
X67971727Y-59721995D01*
X67894485Y-59690000D01*
X67971727Y-59658005D01*
X68200535Y-59505120D01*
X68395120Y-59310535D01*
X68548005Y-59081727D01*
X68653314Y-58827490D01*
X68707000Y-58557592D01*
X68707000Y-58282408D01*
X68653314Y-58012510D01*
X68548005Y-57758273D01*
X68527110Y-57727001D01*
X75075677Y-57727001D01*
X75112999Y-57730677D01*
X75150321Y-57727001D01*
X75150332Y-57727001D01*
X75261985Y-57716004D01*
X75405246Y-57672547D01*
X75537275Y-57601975D01*
X75653000Y-57507002D01*
X75676803Y-57477998D01*
X78613000Y-54541802D01*
X78613000Y-54747592D01*
X78666686Y-55017490D01*
X78771995Y-55271727D01*
X78924880Y-55500535D01*
X79119465Y-55695120D01*
X79348273Y-55848005D01*
X79425515Y-55880000D01*
X79348273Y-55911995D01*
X79119465Y-56064880D01*
X78924880Y-56259465D01*
X78771995Y-56488273D01*
X78666686Y-56742510D01*
X78613000Y-57012408D01*
X78613000Y-57287592D01*
X78666686Y-57557490D01*
X78771995Y-57811727D01*
X78924880Y-58040535D01*
X79119465Y-58235120D01*
X79348273Y-58388005D01*
X79425515Y-58420000D01*
X79348273Y-58451995D01*
X79119465Y-58604880D01*
X78924880Y-58799465D01*
X78771995Y-59028273D01*
X78666686Y-59282510D01*
X78613000Y-59552408D01*
X78613000Y-59827592D01*
X78666686Y-60097490D01*
X78771995Y-60351727D01*
X78924880Y-60580535D01*
X79119465Y-60775120D01*
X79348273Y-60928005D01*
X79425515Y-60960000D01*
X79348273Y-60991995D01*
X79119465Y-61144880D01*
X78924880Y-61339465D01*
X78771995Y-61568273D01*
X78666686Y-61822510D01*
X78613000Y-62092408D01*
X78613000Y-62367592D01*
X78666686Y-62637490D01*
X78771995Y-62891727D01*
X78924880Y-63120535D01*
X79119465Y-63315120D01*
X79348273Y-63468005D01*
X79425515Y-63500000D01*
X79348273Y-63531995D01*
X79119465Y-63684880D01*
X78924880Y-63879465D01*
X78771995Y-64108273D01*
X78666686Y-64362510D01*
X78613000Y-64632408D01*
X78613000Y-64907592D01*
X78666686Y-65177490D01*
X78771995Y-65431727D01*
X78924880Y-65660535D01*
X79119465Y-65855120D01*
X79348273Y-66008005D01*
X79425515Y-66040000D01*
X79348273Y-66071995D01*
X79119465Y-66224880D01*
X78924880Y-66419465D01*
X78771995Y-66648273D01*
X78666686Y-66902510D01*
X78613000Y-67172408D01*
X78613000Y-67447592D01*
X78666686Y-67717490D01*
X78771995Y-67971727D01*
X78924880Y-68200535D01*
X79119465Y-68395120D01*
X79348273Y-68548005D01*
X79425515Y-68580000D01*
X79348273Y-68611995D01*
X79119465Y-68764880D01*
X78924880Y-68959465D01*
X78771995Y-69188273D01*
X78666686Y-69442510D01*
X78613000Y-69712408D01*
X78613000Y-69987592D01*
X78666686Y-70257490D01*
X78771995Y-70511727D01*
X78924880Y-70740535D01*
X79119465Y-70935120D01*
X79348273Y-71088005D01*
X79425515Y-71120000D01*
X79348273Y-71151995D01*
X79119465Y-71304880D01*
X78924880Y-71499465D01*
X78771995Y-71728273D01*
X78666686Y-71982510D01*
X78613000Y-72252408D01*
X78613000Y-72527592D01*
X78666686Y-72797490D01*
X78771995Y-73051727D01*
X78924880Y-73280535D01*
X79119465Y-73475120D01*
X79348273Y-73628005D01*
X79425515Y-73660000D01*
X79348273Y-73691995D01*
X79119465Y-73844880D01*
X78924880Y-74039465D01*
X78771995Y-74268273D01*
X78666686Y-74522510D01*
X78613000Y-74792408D01*
X78613000Y-75067592D01*
X78666686Y-75337490D01*
X78771995Y-75591727D01*
X78924880Y-75820535D01*
X79119465Y-76015120D01*
X79348273Y-76168005D01*
X79425515Y-76200000D01*
X79348273Y-76231995D01*
X79119465Y-76384880D01*
X78924880Y-76579465D01*
X78771995Y-76808273D01*
X78666686Y-77062510D01*
X78613000Y-77332408D01*
X78613000Y-77607592D01*
X78666686Y-77877490D01*
X78771995Y-78131727D01*
X78924880Y-78360535D01*
X79119465Y-78555120D01*
X79348273Y-78708005D01*
X79425515Y-78740000D01*
X79348273Y-78771995D01*
X79119465Y-78924880D01*
X78924880Y-79119465D01*
X78771995Y-79348273D01*
X78666686Y-79602510D01*
X78613000Y-79872408D01*
X78613000Y-80147592D01*
X78666686Y-80417490D01*
X78771995Y-80671727D01*
X78924880Y-80900535D01*
X79119465Y-81095120D01*
X79348273Y-81248005D01*
X79425515Y-81280000D01*
X79348273Y-81311995D01*
X79119465Y-81464880D01*
X78924880Y-81659465D01*
X78771995Y-81888273D01*
X78666686Y-82142510D01*
X78613000Y-82412408D01*
X78613000Y-82687592D01*
X78666686Y-82957490D01*
X78771995Y-83211727D01*
X78924880Y-83440535D01*
X79119465Y-83635120D01*
X79348273Y-83788005D01*
X79425515Y-83820000D01*
X79348273Y-83851995D01*
X79119465Y-84004880D01*
X78924880Y-84199465D01*
X78771995Y-84428273D01*
X78666686Y-84682510D01*
X78613000Y-84952408D01*
X78613000Y-85227592D01*
X78666686Y-85497490D01*
X78771995Y-85751727D01*
X78924880Y-85980535D01*
X79119465Y-86175120D01*
X79348273Y-86328005D01*
X79602510Y-86433314D01*
X79872408Y-86487000D01*
X80147592Y-86487000D01*
X80417490Y-86433314D01*
X80671727Y-86328005D01*
X80900535Y-86175120D01*
X81095120Y-85980535D01*
X81248005Y-85751727D01*
X81353314Y-85497490D01*
X81407000Y-85227592D01*
X81407000Y-84952408D01*
X81353314Y-84682510D01*
X81248005Y-84428273D01*
X81095120Y-84199465D01*
X80900535Y-84004880D01*
X80671727Y-83851995D01*
X80594485Y-83820000D01*
X80671727Y-83788005D01*
X80900535Y-83635120D01*
X81095120Y-83440535D01*
X81248005Y-83211727D01*
X81353314Y-82957490D01*
X81407000Y-82687592D01*
X81407000Y-82412408D01*
X81353314Y-82142510D01*
X81248005Y-81888273D01*
X81095120Y-81659465D01*
X80900535Y-81464880D01*
X80671727Y-81311995D01*
X80594485Y-81280000D01*
X80671727Y-81248005D01*
X80900535Y-81095120D01*
X81095120Y-80900535D01*
X81248005Y-80671727D01*
X81353314Y-80417490D01*
X81407000Y-80147592D01*
X81407000Y-79872408D01*
X81353314Y-79602510D01*
X81248005Y-79348273D01*
X81095120Y-79119465D01*
X80900535Y-78924880D01*
X80671727Y-78771995D01*
X80594485Y-78740000D01*
X80671727Y-78708005D01*
X80900535Y-78555120D01*
X81095120Y-78360535D01*
X81248005Y-78131727D01*
X81353314Y-77877490D01*
X81407000Y-77607592D01*
X81407000Y-77332408D01*
X81353314Y-77062510D01*
X81248005Y-76808273D01*
X81095120Y-76579465D01*
X80900535Y-76384880D01*
X80671727Y-76231995D01*
X80594485Y-76200000D01*
X80671727Y-76168005D01*
X80900535Y-76015120D01*
X81095120Y-75820535D01*
X81248005Y-75591727D01*
X81353314Y-75337490D01*
X81407000Y-75067592D01*
X81407000Y-74792408D01*
X81353314Y-74522510D01*
X81248005Y-74268273D01*
X81095120Y-74039465D01*
X80900535Y-73844880D01*
X80671727Y-73691995D01*
X80594485Y-73660000D01*
X80671727Y-73628005D01*
X80900535Y-73475120D01*
X81095120Y-73280535D01*
X81248005Y-73051727D01*
X81353314Y-72797490D01*
X81407000Y-72527592D01*
X81407000Y-72252408D01*
X81353314Y-71982510D01*
X81248005Y-71728273D01*
X81095120Y-71499465D01*
X80900535Y-71304880D01*
X80671727Y-71151995D01*
X80594485Y-71120000D01*
X80671727Y-71088005D01*
X80900535Y-70935120D01*
X81095120Y-70740535D01*
X81248005Y-70511727D01*
X81353314Y-70257490D01*
X81407000Y-69987592D01*
X81407000Y-69712408D01*
X81353314Y-69442510D01*
X81248005Y-69188273D01*
X81095120Y-68959465D01*
X80900535Y-68764880D01*
X80671727Y-68611995D01*
X80594485Y-68580000D01*
X80671727Y-68548005D01*
X80900535Y-68395120D01*
X81095120Y-68200535D01*
X81248005Y-67971727D01*
X81353314Y-67717490D01*
X81407000Y-67447592D01*
X81407000Y-67172408D01*
X81353314Y-66902510D01*
X81248005Y-66648273D01*
X81095120Y-66419465D01*
X80900535Y-66224880D01*
X80671727Y-66071995D01*
X80594485Y-66040000D01*
X80671727Y-66008005D01*
X80900535Y-65855120D01*
X81095120Y-65660535D01*
X81248005Y-65431727D01*
X81353314Y-65177490D01*
X81407000Y-64907592D01*
X81407000Y-64632408D01*
X81353314Y-64362510D01*
X81248005Y-64108273D01*
X81095120Y-63879465D01*
X80900535Y-63684880D01*
X80671727Y-63531995D01*
X80594485Y-63500000D01*
X80671727Y-63468005D01*
X80900535Y-63315120D01*
X81095120Y-63120535D01*
X81248005Y-62891727D01*
X81353314Y-62637490D01*
X81407000Y-62367592D01*
X81407000Y-62092408D01*
X81353314Y-61822510D01*
X81248005Y-61568273D01*
X81095120Y-61339465D01*
X80900535Y-61144880D01*
X80671727Y-60991995D01*
X80594485Y-60960000D01*
X80671727Y-60928005D01*
X80900535Y-60775120D01*
X81095120Y-60580535D01*
X81248005Y-60351727D01*
X81353314Y-60097490D01*
X81407000Y-59827592D01*
X81407000Y-59552408D01*
X81353314Y-59282510D01*
X81248005Y-59028273D01*
X81095120Y-58799465D01*
X80900535Y-58604880D01*
X80671727Y-58451995D01*
X80594485Y-58420000D01*
X80671727Y-58388005D01*
X80900535Y-58235120D01*
X81095120Y-58040535D01*
X81248005Y-57811727D01*
X81353314Y-57557490D01*
X81407000Y-57287592D01*
X81407000Y-57012408D01*
X81353314Y-56742510D01*
X81248005Y-56488273D01*
X81095120Y-56259465D01*
X80900535Y-56064880D01*
X80671727Y-55911995D01*
X80594485Y-55880000D01*
X80671727Y-55848005D01*
X80900535Y-55695120D01*
X81095120Y-55500535D01*
X81248005Y-55271727D01*
X81353314Y-55017490D01*
X81407000Y-54747592D01*
X81407000Y-54472408D01*
X81376372Y-54318430D01*
X81890000Y-53804801D01*
X81890001Y-116180000D01*
X13360000Y-116180000D01*
X13360000Y-114343377D01*
X39506229Y-114343377D01*
X39632104Y-114633315D01*
X39964262Y-114799139D01*
X40322387Y-114896975D01*
X40692719Y-114923065D01*
X41061025Y-114876405D01*
X41413151Y-114758789D01*
X41647896Y-114633315D01*
X41773771Y-114343377D01*
X40640000Y-113209605D01*
X39506229Y-114343377D01*
X13360000Y-114343377D01*
X13360000Y-113082719D01*
X38746935Y-113082719D01*
X38793595Y-113451025D01*
X38911211Y-113803151D01*
X39036685Y-114037896D01*
X39326623Y-114163771D01*
X40460395Y-113030000D01*
X40819605Y-113030000D01*
X41953377Y-114163771D01*
X42243315Y-114037896D01*
X42409139Y-113705738D01*
X42506975Y-113347613D01*
X42533065Y-112977281D01*
X42486405Y-112608975D01*
X42368789Y-112256849D01*
X42243315Y-112022104D01*
X41953377Y-111896229D01*
X40819605Y-113030000D01*
X40460395Y-113030000D01*
X39326623Y-111896229D01*
X39036685Y-112022104D01*
X38870861Y-112354262D01*
X38773025Y-112712387D01*
X38746935Y-113082719D01*
X13360000Y-113082719D01*
X13360000Y-111716623D01*
X39506229Y-111716623D01*
X40640000Y-112850395D01*
X41710074Y-111780320D01*
X42562248Y-111780320D01*
X42562248Y-114279680D01*
X42574508Y-114404162D01*
X42610818Y-114523860D01*
X42669783Y-114634174D01*
X42749135Y-114730865D01*
X42845826Y-114810217D01*
X42956140Y-114869182D01*
X43075838Y-114905492D01*
X43200320Y-114917752D01*
X45699680Y-114917752D01*
X45824162Y-114905492D01*
X45943860Y-114869182D01*
X46054174Y-114810217D01*
X46150865Y-114730865D01*
X46230217Y-114634174D01*
X46289182Y-114523860D01*
X46325492Y-114404162D01*
X46337752Y-114279680D01*
X46337752Y-111780320D01*
X46325492Y-111655838D01*
X46289182Y-111536140D01*
X46230217Y-111425826D01*
X46150865Y-111329135D01*
X46054174Y-111249783D01*
X45943860Y-111190818D01*
X45824162Y-111154508D01*
X45699680Y-111142248D01*
X43200320Y-111142248D01*
X43075838Y-111154508D01*
X42956140Y-111190818D01*
X42845826Y-111249783D01*
X42749135Y-111329135D01*
X42669783Y-111425826D01*
X42610818Y-111536140D01*
X42574508Y-111655838D01*
X42562248Y-111780320D01*
X41710074Y-111780320D01*
X41773771Y-111716623D01*
X41647896Y-111426685D01*
X41315738Y-111260861D01*
X40957613Y-111163025D01*
X40587281Y-111136935D01*
X40218975Y-111183595D01*
X39866849Y-111301211D01*
X39632104Y-111426685D01*
X39506229Y-111716623D01*
X13360000Y-111716623D01*
X13360000Y-95270320D01*
X14622248Y-95270320D01*
X14622248Y-97769680D01*
X14634508Y-97894162D01*
X14670818Y-98013860D01*
X14729783Y-98124174D01*
X14809135Y-98220865D01*
X14905826Y-98300217D01*
X15016140Y-98359182D01*
X15135838Y-98395492D01*
X15260320Y-98407752D01*
X17759680Y-98407752D01*
X17884162Y-98395492D01*
X18003860Y-98359182D01*
X18114174Y-98300217D01*
X18210865Y-98220865D01*
X18290217Y-98124174D01*
X18349182Y-98013860D01*
X18385492Y-97894162D01*
X18397752Y-97769680D01*
X18397752Y-95270320D01*
X18385492Y-95145838D01*
X18349182Y-95026140D01*
X18290217Y-94915826D01*
X18210865Y-94819135D01*
X18114174Y-94739783D01*
X18003860Y-94680818D01*
X17884162Y-94644508D01*
X17759680Y-94632248D01*
X15260320Y-94632248D01*
X15135838Y-94644508D01*
X15016140Y-94680818D01*
X14905826Y-94739783D01*
X14809135Y-94819135D01*
X14729783Y-94915826D01*
X14670818Y-95026140D01*
X14634508Y-95145838D01*
X14622248Y-95270320D01*
X13360000Y-95270320D01*
X13360000Y-94023377D01*
X15376229Y-94023377D01*
X15502104Y-94313315D01*
X15834262Y-94479139D01*
X16192387Y-94576975D01*
X16562719Y-94603065D01*
X16931025Y-94556405D01*
X17283151Y-94438789D01*
X17517896Y-94313315D01*
X17643771Y-94023377D01*
X16510000Y-92889605D01*
X15376229Y-94023377D01*
X13360000Y-94023377D01*
X13360000Y-92762719D01*
X14616935Y-92762719D01*
X14663595Y-93131025D01*
X14781211Y-93483151D01*
X14906685Y-93717896D01*
X15196623Y-93843771D01*
X16330395Y-92710000D01*
X16689605Y-92710000D01*
X17823377Y-93843771D01*
X18113315Y-93717896D01*
X18279139Y-93385738D01*
X18376975Y-93027613D01*
X18403065Y-92657281D01*
X18356405Y-92288975D01*
X18238789Y-91936849D01*
X18113315Y-91702104D01*
X17823377Y-91576229D01*
X16689605Y-92710000D01*
X16330395Y-92710000D01*
X15196623Y-91576229D01*
X14906685Y-91702104D01*
X14740861Y-92034262D01*
X14643025Y-92392387D01*
X14616935Y-92762719D01*
X13360000Y-92762719D01*
X13360000Y-91396623D01*
X15376229Y-91396623D01*
X16510000Y-92530395D01*
X17643771Y-91396623D01*
X17517896Y-91106685D01*
X17185738Y-90940861D01*
X16827613Y-90843025D01*
X16457281Y-90816935D01*
X16088975Y-90863595D01*
X15736849Y-90981211D01*
X15502104Y-91106685D01*
X15376229Y-91396623D01*
X13360000Y-91396623D01*
X13360000Y-80975565D01*
X29694040Y-80975565D01*
X29761020Y-81215656D01*
X30010048Y-81332756D01*
X30277135Y-81399023D01*
X30552017Y-81411910D01*
X30824133Y-81370922D01*
X31083023Y-81277636D01*
X31198980Y-81215656D01*
X31265960Y-80975565D01*
X30480000Y-80189605D01*
X29694040Y-80975565D01*
X13360000Y-80975565D01*
X13360000Y-80082017D01*
X29078090Y-80082017D01*
X29119078Y-80354133D01*
X29212364Y-80613023D01*
X29274344Y-80728980D01*
X29514435Y-80795960D01*
X30300395Y-80010000D01*
X30659605Y-80010000D01*
X31445565Y-80795960D01*
X31685656Y-80728980D01*
X31802756Y-80479952D01*
X31869023Y-80212865D01*
X31881910Y-79937983D01*
X31840922Y-79665867D01*
X31747636Y-79406977D01*
X31685656Y-79291020D01*
X31445565Y-79224040D01*
X30659605Y-80010000D01*
X30300395Y-80010000D01*
X29514435Y-79224040D01*
X29274344Y-79291020D01*
X29157244Y-79540048D01*
X29090977Y-79807135D01*
X29078090Y-80082017D01*
X13360000Y-80082017D01*
X13360000Y-38172017D01*
X58288090Y-38172017D01*
X58329078Y-38444133D01*
X58422364Y-38703023D01*
X58484344Y-38818980D01*
X58724435Y-38885960D01*
X59510395Y-38100000D01*
X59869605Y-38100000D01*
X60655565Y-38885960D01*
X60895656Y-38818980D01*
X61012756Y-38569952D01*
X61079023Y-38302865D01*
X61091910Y-38027983D01*
X61050922Y-37755867D01*
X60957636Y-37496977D01*
X60895656Y-37381020D01*
X60655565Y-37314040D01*
X59869605Y-38100000D01*
X59510395Y-38100000D01*
X58724435Y-37314040D01*
X58484344Y-37381020D01*
X58367244Y-37630048D01*
X58300977Y-37897135D01*
X58288090Y-38172017D01*
X13360000Y-38172017D01*
X13360000Y-36873377D01*
X15376229Y-36873377D01*
X15502104Y-37163315D01*
X15834262Y-37329139D01*
X16192387Y-37426975D01*
X16562719Y-37453065D01*
X16931025Y-37406405D01*
X17283151Y-37288789D01*
X17517896Y-37163315D01*
X17643771Y-36873377D01*
X16510000Y-35739605D01*
X15376229Y-36873377D01*
X13360000Y-36873377D01*
X13360000Y-35612719D01*
X14616935Y-35612719D01*
X14663595Y-35981025D01*
X14781211Y-36333151D01*
X14906685Y-36567896D01*
X15196623Y-36693771D01*
X16330395Y-35560000D01*
X16689605Y-35560000D01*
X17823377Y-36693771D01*
X18113315Y-36567896D01*
X18279139Y-36235738D01*
X18376975Y-35877613D01*
X18403065Y-35507281D01*
X18356405Y-35138975D01*
X18238789Y-34786849D01*
X18113315Y-34552104D01*
X17823377Y-34426229D01*
X16689605Y-35560000D01*
X16330395Y-35560000D01*
X15196623Y-34426229D01*
X14906685Y-34552104D01*
X14740861Y-34884262D01*
X14643025Y-35242387D01*
X14616935Y-35612719D01*
X13360000Y-35612719D01*
X13360000Y-34246623D01*
X15376229Y-34246623D01*
X16510000Y-35380395D01*
X17580074Y-34310320D01*
X18432248Y-34310320D01*
X18432248Y-36809680D01*
X18444508Y-36934162D01*
X18480818Y-37053860D01*
X18539783Y-37164174D01*
X18619135Y-37260865D01*
X18715826Y-37340217D01*
X18826140Y-37399182D01*
X18945838Y-37435492D01*
X19070320Y-37447752D01*
X21569680Y-37447752D01*
X21694162Y-37435492D01*
X21813860Y-37399182D01*
X21924174Y-37340217D01*
X22020865Y-37260865D01*
X22100217Y-37164174D01*
X22159182Y-37053860D01*
X22195492Y-36934162D01*
X22207752Y-36809680D01*
X22207752Y-34310320D01*
X45102248Y-34310320D01*
X45102248Y-36809680D01*
X45114508Y-36934162D01*
X45150818Y-37053860D01*
X45209783Y-37164174D01*
X45289135Y-37260865D01*
X45385826Y-37340217D01*
X45496140Y-37399182D01*
X45615838Y-37435492D01*
X45740320Y-37447752D01*
X48239680Y-37447752D01*
X48364162Y-37435492D01*
X48483860Y-37399182D01*
X48594174Y-37340217D01*
X48690865Y-37260865D01*
X48770217Y-37164174D01*
X48829182Y-37053860D01*
X48865492Y-36934162D01*
X48871478Y-36873377D01*
X49666229Y-36873377D01*
X49792104Y-37163315D01*
X50124262Y-37329139D01*
X50482387Y-37426975D01*
X50852719Y-37453065D01*
X51221025Y-37406405D01*
X51573151Y-37288789D01*
X51807896Y-37163315D01*
X51933771Y-36873377D01*
X50800000Y-35739605D01*
X49666229Y-36873377D01*
X48871478Y-36873377D01*
X48877752Y-36809680D01*
X48877752Y-35612719D01*
X48906935Y-35612719D01*
X48953595Y-35981025D01*
X49071211Y-36333151D01*
X49196685Y-36567896D01*
X49486623Y-36693771D01*
X50620395Y-35560000D01*
X50979605Y-35560000D01*
X52113377Y-36693771D01*
X52403315Y-36567896D01*
X52569139Y-36235738D01*
X52666975Y-35877613D01*
X52693065Y-35507281D01*
X52646405Y-35138975D01*
X52528789Y-34786849D01*
X52403315Y-34552104D01*
X52113377Y-34426229D01*
X50979605Y-35560000D01*
X50620395Y-35560000D01*
X49486623Y-34426229D01*
X49196685Y-34552104D01*
X49030861Y-34884262D01*
X48933025Y-35242387D01*
X48906935Y-35612719D01*
X48877752Y-35612719D01*
X48877752Y-34310320D01*
X48871479Y-34246623D01*
X49666229Y-34246623D01*
X50800000Y-35380395D01*
X51933771Y-34246623D01*
X51807896Y-33956685D01*
X51475738Y-33790861D01*
X51117613Y-33693025D01*
X50747281Y-33666935D01*
X50378975Y-33713595D01*
X50026849Y-33831211D01*
X49792104Y-33956685D01*
X49666229Y-34246623D01*
X48871479Y-34246623D01*
X48865492Y-34185838D01*
X48829182Y-34066140D01*
X48770217Y-33955826D01*
X48690865Y-33859135D01*
X48594174Y-33779783D01*
X48483860Y-33720818D01*
X48364162Y-33684508D01*
X48239680Y-33672248D01*
X45740320Y-33672248D01*
X45615838Y-33684508D01*
X45496140Y-33720818D01*
X45385826Y-33779783D01*
X45289135Y-33859135D01*
X45209783Y-33955826D01*
X45150818Y-34066140D01*
X45114508Y-34185838D01*
X45102248Y-34310320D01*
X22207752Y-34310320D01*
X22195492Y-34185838D01*
X22159182Y-34066140D01*
X22100217Y-33955826D01*
X22020865Y-33859135D01*
X21924174Y-33779783D01*
X21813860Y-33720818D01*
X21694162Y-33684508D01*
X21569680Y-33672248D01*
X19070320Y-33672248D01*
X18945838Y-33684508D01*
X18826140Y-33720818D01*
X18715826Y-33779783D01*
X18619135Y-33859135D01*
X18539783Y-33955826D01*
X18480818Y-34066140D01*
X18444508Y-34185838D01*
X18432248Y-34310320D01*
X17580074Y-34310320D01*
X17643771Y-34246623D01*
X17517896Y-33956685D01*
X17185738Y-33790861D01*
X16827613Y-33693025D01*
X16457281Y-33666935D01*
X16088975Y-33713595D01*
X15736849Y-33831211D01*
X15502104Y-33956685D01*
X15376229Y-34246623D01*
X13360000Y-34246623D01*
X13360000Y-32410000D01*
X81890000Y-32410000D01*
X81890000Y-40175199D01*
G36*
X79321834Y-35607874D02*
G01*
X79291020Y-35624344D01*
X79224040Y-35864435D01*
X80010000Y-36650395D01*
X80024143Y-36636253D01*
X80203748Y-36815858D01*
X80189605Y-36830000D01*
X80203748Y-36844143D01*
X80024143Y-37023748D01*
X80010000Y-37009605D01*
X79224040Y-37795565D01*
X79291020Y-38035656D01*
X79426760Y-38099485D01*
X79348273Y-38131995D01*
X79119465Y-38284880D01*
X78924880Y-38479465D01*
X78771995Y-38708273D01*
X78666686Y-38962510D01*
X78613000Y-39232408D01*
X78613000Y-39507592D01*
X78666686Y-39777490D01*
X78771995Y-40031727D01*
X78924880Y-40260535D01*
X79119465Y-40455120D01*
X79348273Y-40608005D01*
X79425515Y-40640000D01*
X79348273Y-40671995D01*
X79119465Y-40824880D01*
X78924880Y-41019465D01*
X78771995Y-41248273D01*
X78666686Y-41502510D01*
X78613000Y-41772408D01*
X78613000Y-42047592D01*
X78666686Y-42317490D01*
X78771995Y-42571727D01*
X78924880Y-42800535D01*
X79119465Y-42995120D01*
X79348273Y-43148005D01*
X79425515Y-43180000D01*
X79348273Y-43211995D01*
X79119465Y-43364880D01*
X78924880Y-43559465D01*
X78837659Y-43690000D01*
X78142325Y-43690000D01*
X78105000Y-43686324D01*
X78067675Y-43690000D01*
X78067667Y-43690000D01*
X77956014Y-43700997D01*
X77812753Y-43744454D01*
X77680724Y-43815026D01*
X77564999Y-43909999D01*
X77541201Y-43938997D01*
X71080199Y-50400000D01*
X71018061Y-50400000D01*
X70818102Y-50439774D01*
X70629744Y-50517795D01*
X70460226Y-50631063D01*
X70316063Y-50775226D01*
X70202795Y-50944744D01*
X70124774Y-51133102D01*
X70085000Y-51333061D01*
X70085000Y-51536939D01*
X70124774Y-51736898D01*
X70202795Y-51925256D01*
X70316063Y-52094774D01*
X70460226Y-52238937D01*
X70629744Y-52352205D01*
X70818102Y-52430226D01*
X71018061Y-52470000D01*
X71221939Y-52470000D01*
X71421898Y-52430226D01*
X71610256Y-52352205D01*
X71779774Y-52238937D01*
X71923937Y-52094774D01*
X72037205Y-51925256D01*
X72115226Y-51736898D01*
X72155000Y-51536939D01*
X72155000Y-51474801D01*
X78419802Y-45210000D01*
X78837659Y-45210000D01*
X78924880Y-45340535D01*
X79119465Y-45535120D01*
X79348273Y-45688005D01*
X79425515Y-45720000D01*
X79348273Y-45751995D01*
X79119465Y-45904880D01*
X78924880Y-46099465D01*
X78771995Y-46328273D01*
X78666686Y-46582510D01*
X78613000Y-46852408D01*
X78613000Y-47127592D01*
X78666686Y-47397490D01*
X78771995Y-47651727D01*
X78924880Y-47880535D01*
X79119465Y-48075120D01*
X79348273Y-48228005D01*
X79425515Y-48260000D01*
X79348273Y-48291995D01*
X79119465Y-48444880D01*
X78924880Y-48639465D01*
X78771995Y-48868273D01*
X78666686Y-49122510D01*
X78613000Y-49392408D01*
X78613000Y-49667592D01*
X78643628Y-49821570D01*
X77951149Y-50514049D01*
X77947358Y-50504897D01*
X77834090Y-50335379D01*
X77689927Y-50191216D01*
X77520409Y-50077948D01*
X77332051Y-49999927D01*
X77132092Y-49960153D01*
X77069955Y-49960153D01*
X76600000Y-49490199D01*
X76600000Y-49428061D01*
X76560226Y-49228102D01*
X76482205Y-49039744D01*
X76368937Y-48870226D01*
X76224774Y-48726063D01*
X76055256Y-48612795D01*
X75866898Y-48534774D01*
X75666939Y-48495000D01*
X75463061Y-48495000D01*
X75263102Y-48534774D01*
X75074744Y-48612795D01*
X74905226Y-48726063D01*
X74761063Y-48870226D01*
X74647795Y-49039744D01*
X74569774Y-49228102D01*
X74530000Y-49428061D01*
X74530000Y-49631939D01*
X74569774Y-49831898D01*
X74647795Y-50020256D01*
X74761063Y-50189774D01*
X74905226Y-50333937D01*
X75074744Y-50447205D01*
X75263102Y-50525226D01*
X75463061Y-50565000D01*
X75525199Y-50565000D01*
X75995153Y-51034955D01*
X75995153Y-51097092D01*
X76034927Y-51297051D01*
X76112948Y-51485409D01*
X76226216Y-51654927D01*
X76370379Y-51799090D01*
X76539897Y-51912358D01*
X76549049Y-51916149D01*
X73036203Y-55428996D01*
X72880256Y-55324796D01*
X72691898Y-55246775D01*
X72491939Y-55207001D01*
X72288061Y-55207001D01*
X72088102Y-55246775D01*
X71899744Y-55324796D01*
X71730226Y-55438064D01*
X71586063Y-55582227D01*
X71472795Y-55751745D01*
X71394774Y-55940103D01*
X71355000Y-56140062D01*
X71355000Y-56207001D01*
X68669324Y-56207001D01*
X68707000Y-56017592D01*
X68707000Y-55742408D01*
X68653314Y-55472510D01*
X68548005Y-55218273D01*
X68395120Y-54989465D01*
X68200535Y-54794880D01*
X67971727Y-54641995D01*
X67894485Y-54610000D01*
X67971727Y-54578005D01*
X68200535Y-54425120D01*
X68395120Y-54230535D01*
X68548005Y-54001727D01*
X68653314Y-53747490D01*
X68707000Y-53477592D01*
X68707000Y-53202408D01*
X68653314Y-52932510D01*
X68548005Y-52678273D01*
X68395120Y-52449465D01*
X68200535Y-52254880D01*
X67971727Y-52101995D01*
X67894485Y-52070000D01*
X67971727Y-52038005D01*
X68200535Y-51885120D01*
X68395120Y-51690535D01*
X68548005Y-51461727D01*
X68653314Y-51207490D01*
X68707000Y-50937592D01*
X68707000Y-50662408D01*
X68653314Y-50392510D01*
X68548005Y-50138273D01*
X68395120Y-49909465D01*
X68200535Y-49714880D01*
X67971727Y-49561995D01*
X67894485Y-49530000D01*
X67971727Y-49498005D01*
X68200535Y-49345120D01*
X68395120Y-49150535D01*
X68548005Y-48921727D01*
X68653314Y-48667490D01*
X68707000Y-48397592D01*
X68707000Y-48122408D01*
X68653314Y-47852510D01*
X68548005Y-47598273D01*
X68395120Y-47369465D01*
X68200535Y-47174880D01*
X67971727Y-47021995D01*
X67894485Y-46990000D01*
X67971727Y-46958005D01*
X68200535Y-46805120D01*
X68395120Y-46610535D01*
X68548005Y-46381727D01*
X68653314Y-46127490D01*
X68707000Y-45857592D01*
X68707000Y-45582408D01*
X68653314Y-45312510D01*
X68548005Y-45058273D01*
X68395120Y-44829465D01*
X68200535Y-44634880D01*
X67971727Y-44481995D01*
X67894485Y-44450000D01*
X67971727Y-44418005D01*
X68200535Y-44265120D01*
X68395120Y-44070535D01*
X68548005Y-43841727D01*
X68653314Y-43587490D01*
X68707000Y-43317592D01*
X68707000Y-43042408D01*
X68653314Y-42772510D01*
X68548005Y-42518273D01*
X68395120Y-42289465D01*
X68200535Y-42094880D01*
X67971727Y-41941995D01*
X67894485Y-41910000D01*
X67971727Y-41878005D01*
X68200535Y-41725120D01*
X68395120Y-41530535D01*
X68548005Y-41301727D01*
X68653314Y-41047490D01*
X68707000Y-40777592D01*
X68707000Y-40502408D01*
X68653314Y-40232510D01*
X68548005Y-39978273D01*
X68395120Y-39749465D01*
X68200535Y-39554880D01*
X67971727Y-39401995D01*
X67894485Y-39370000D01*
X67971727Y-39338005D01*
X68200535Y-39185120D01*
X68395120Y-38990535D01*
X68548005Y-38761727D01*
X68653314Y-38507490D01*
X68707000Y-38237592D01*
X68707000Y-37962408D01*
X68653314Y-37692510D01*
X68548005Y-37438273D01*
X68395120Y-37209465D01*
X68200535Y-37014880D01*
X68031625Y-36902017D01*
X78608090Y-36902017D01*
X78649078Y-37174133D01*
X78742364Y-37433023D01*
X78804344Y-37548980D01*
X79044435Y-37615960D01*
X79830395Y-36830000D01*
X79044435Y-36044040D01*
X78804344Y-36111020D01*
X78687244Y-36360048D01*
X78620977Y-36627135D01*
X78608090Y-36902017D01*
X68031625Y-36902017D01*
X67971727Y-36861995D01*
X67894485Y-36830000D01*
X67971727Y-36798005D01*
X68200535Y-36645120D01*
X68395120Y-36450535D01*
X68548005Y-36221727D01*
X68653314Y-35967490D01*
X68707000Y-35697592D01*
X68707000Y-35422408D01*
X68669324Y-35232999D01*
X78946960Y-35232999D01*
X79321834Y-35607874D01*
X79321834Y-35607874D01*
G37*
X79321834Y-35607874D02*
X79291020Y-35624344D01*
X79224040Y-35864435D01*
X80010000Y-36650395D01*
X80024143Y-36636253D01*
X80203748Y-36815858D01*
X80189605Y-36830000D01*
X80203748Y-36844143D01*
X80024143Y-37023748D01*
X80010000Y-37009605D01*
X79224040Y-37795565D01*
X79291020Y-38035656D01*
X79426760Y-38099485D01*
X79348273Y-38131995D01*
X79119465Y-38284880D01*
X78924880Y-38479465D01*
X78771995Y-38708273D01*
X78666686Y-38962510D01*
X78613000Y-39232408D01*
X78613000Y-39507592D01*
X78666686Y-39777490D01*
X78771995Y-40031727D01*
X78924880Y-40260535D01*
X79119465Y-40455120D01*
X79348273Y-40608005D01*
X79425515Y-40640000D01*
X79348273Y-40671995D01*
X79119465Y-40824880D01*
X78924880Y-41019465D01*
X78771995Y-41248273D01*
X78666686Y-41502510D01*
X78613000Y-41772408D01*
X78613000Y-42047592D01*
X78666686Y-42317490D01*
X78771995Y-42571727D01*
X78924880Y-42800535D01*
X79119465Y-42995120D01*
X79348273Y-43148005D01*
X79425515Y-43180000D01*
X79348273Y-43211995D01*
X79119465Y-43364880D01*
X78924880Y-43559465D01*
X78837659Y-43690000D01*
X78142325Y-43690000D01*
X78105000Y-43686324D01*
X78067675Y-43690000D01*
X78067667Y-43690000D01*
X77956014Y-43700997D01*
X77812753Y-43744454D01*
X77680724Y-43815026D01*
X77564999Y-43909999D01*
X77541201Y-43938997D01*
X71080199Y-50400000D01*
X71018061Y-50400000D01*
X70818102Y-50439774D01*
X70629744Y-50517795D01*
X70460226Y-50631063D01*
X70316063Y-50775226D01*
X70202795Y-50944744D01*
X70124774Y-51133102D01*
X70085000Y-51333061D01*
X70085000Y-51536939D01*
X70124774Y-51736898D01*
X70202795Y-51925256D01*
X70316063Y-52094774D01*
X70460226Y-52238937D01*
X70629744Y-52352205D01*
X70818102Y-52430226D01*
X71018061Y-52470000D01*
X71221939Y-52470000D01*
X71421898Y-52430226D01*
X71610256Y-52352205D01*
X71779774Y-52238937D01*
X71923937Y-52094774D01*
X72037205Y-51925256D01*
X72115226Y-51736898D01*
X72155000Y-51536939D01*
X72155000Y-51474801D01*
X78419802Y-45210000D01*
X78837659Y-45210000D01*
X78924880Y-45340535D01*
X79119465Y-45535120D01*
X79348273Y-45688005D01*
X79425515Y-45720000D01*
X79348273Y-45751995D01*
X79119465Y-45904880D01*
X78924880Y-46099465D01*
X78771995Y-46328273D01*
X78666686Y-46582510D01*
X78613000Y-46852408D01*
X78613000Y-47127592D01*
X78666686Y-47397490D01*
X78771995Y-47651727D01*
X78924880Y-47880535D01*
X79119465Y-48075120D01*
X79348273Y-48228005D01*
X79425515Y-48260000D01*
X79348273Y-48291995D01*
X79119465Y-48444880D01*
X78924880Y-48639465D01*
X78771995Y-48868273D01*
X78666686Y-49122510D01*
X78613000Y-49392408D01*
X78613000Y-49667592D01*
X78643628Y-49821570D01*
X77951149Y-50514049D01*
X77947358Y-50504897D01*
X77834090Y-50335379D01*
X77689927Y-50191216D01*
X77520409Y-50077948D01*
X77332051Y-49999927D01*
X77132092Y-49960153D01*
X77069955Y-49960153D01*
X76600000Y-49490199D01*
X76600000Y-49428061D01*
X76560226Y-49228102D01*
X76482205Y-49039744D01*
X76368937Y-48870226D01*
X76224774Y-48726063D01*
X76055256Y-48612795D01*
X75866898Y-48534774D01*
X75666939Y-48495000D01*
X75463061Y-48495000D01*
X75263102Y-48534774D01*
X75074744Y-48612795D01*
X74905226Y-48726063D01*
X74761063Y-48870226D01*
X74647795Y-49039744D01*
X74569774Y-49228102D01*
X74530000Y-49428061D01*
X74530000Y-49631939D01*
X74569774Y-49831898D01*
X74647795Y-50020256D01*
X74761063Y-50189774D01*
X74905226Y-50333937D01*
X75074744Y-50447205D01*
X75263102Y-50525226D01*
X75463061Y-50565000D01*
X75525199Y-50565000D01*
X75995153Y-51034955D01*
X75995153Y-51097092D01*
X76034927Y-51297051D01*
X76112948Y-51485409D01*
X76226216Y-51654927D01*
X76370379Y-51799090D01*
X76539897Y-51912358D01*
X76549049Y-51916149D01*
X73036203Y-55428996D01*
X72880256Y-55324796D01*
X72691898Y-55246775D01*
X72491939Y-55207001D01*
X72288061Y-55207001D01*
X72088102Y-55246775D01*
X71899744Y-55324796D01*
X71730226Y-55438064D01*
X71586063Y-55582227D01*
X71472795Y-55751745D01*
X71394774Y-55940103D01*
X71355000Y-56140062D01*
X71355000Y-56207001D01*
X68669324Y-56207001D01*
X68707000Y-56017592D01*
X68707000Y-55742408D01*
X68653314Y-55472510D01*
X68548005Y-55218273D01*
X68395120Y-54989465D01*
X68200535Y-54794880D01*
X67971727Y-54641995D01*
X67894485Y-54610000D01*
X67971727Y-54578005D01*
X68200535Y-54425120D01*
X68395120Y-54230535D01*
X68548005Y-54001727D01*
X68653314Y-53747490D01*
X68707000Y-53477592D01*
X68707000Y-53202408D01*
X68653314Y-52932510D01*
X68548005Y-52678273D01*
X68395120Y-52449465D01*
X68200535Y-52254880D01*
X67971727Y-52101995D01*
X67894485Y-52070000D01*
X67971727Y-52038005D01*
X68200535Y-51885120D01*
X68395120Y-51690535D01*
X68548005Y-51461727D01*
X68653314Y-51207490D01*
X68707000Y-50937592D01*
X68707000Y-50662408D01*
X68653314Y-50392510D01*
X68548005Y-50138273D01*
X68395120Y-49909465D01*
X68200535Y-49714880D01*
X67971727Y-49561995D01*
X67894485Y-49530000D01*
X67971727Y-49498005D01*
X68200535Y-49345120D01*
X68395120Y-49150535D01*
X68548005Y-48921727D01*
X68653314Y-48667490D01*
X68707000Y-48397592D01*
X68707000Y-48122408D01*
X68653314Y-47852510D01*
X68548005Y-47598273D01*
X68395120Y-47369465D01*
X68200535Y-47174880D01*
X67971727Y-47021995D01*
X67894485Y-46990000D01*
X67971727Y-46958005D01*
X68200535Y-46805120D01*
X68395120Y-46610535D01*
X68548005Y-46381727D01*
X68653314Y-46127490D01*
X68707000Y-45857592D01*
X68707000Y-45582408D01*
X68653314Y-45312510D01*
X68548005Y-45058273D01*
X68395120Y-44829465D01*
X68200535Y-44634880D01*
X67971727Y-44481995D01*
X67894485Y-44450000D01*
X67971727Y-44418005D01*
X68200535Y-44265120D01*
X68395120Y-44070535D01*
X68548005Y-43841727D01*
X68653314Y-43587490D01*
X68707000Y-43317592D01*
X68707000Y-43042408D01*
X68653314Y-42772510D01*
X68548005Y-42518273D01*
X68395120Y-42289465D01*
X68200535Y-42094880D01*
X67971727Y-41941995D01*
X67894485Y-41910000D01*
X67971727Y-41878005D01*
X68200535Y-41725120D01*
X68395120Y-41530535D01*
X68548005Y-41301727D01*
X68653314Y-41047490D01*
X68707000Y-40777592D01*
X68707000Y-40502408D01*
X68653314Y-40232510D01*
X68548005Y-39978273D01*
X68395120Y-39749465D01*
X68200535Y-39554880D01*
X67971727Y-39401995D01*
X67894485Y-39370000D01*
X67971727Y-39338005D01*
X68200535Y-39185120D01*
X68395120Y-38990535D01*
X68548005Y-38761727D01*
X68653314Y-38507490D01*
X68707000Y-38237592D01*
X68707000Y-37962408D01*
X68653314Y-37692510D01*
X68548005Y-37438273D01*
X68395120Y-37209465D01*
X68200535Y-37014880D01*
X68031625Y-36902017D01*
X78608090Y-36902017D01*
X78649078Y-37174133D01*
X78742364Y-37433023D01*
X78804344Y-37548980D01*
X79044435Y-37615960D01*
X79830395Y-36830000D01*
X79044435Y-36044040D01*
X78804344Y-36111020D01*
X78687244Y-36360048D01*
X78620977Y-36627135D01*
X78608090Y-36902017D01*
X68031625Y-36902017D01*
X67971727Y-36861995D01*
X67894485Y-36830000D01*
X67971727Y-36798005D01*
X68200535Y-36645120D01*
X68395120Y-36450535D01*
X68548005Y-36221727D01*
X68653314Y-35967490D01*
X68707000Y-35697592D01*
X68707000Y-35422408D01*
X68669324Y-35232999D01*
X78946960Y-35232999D01*
X79321834Y-35607874D01*
M02*
