M48
; DRILL file {KiCad (5.1.0)-1} date 4/18/2019 10:21:27 PM
; FORMAT={-:-/ absolute / metric / decimal}
; #@! TF.CreationDate,2019-04-18T22:21:27-04:00
; #@! TF.GenerationSoftware,Kicad,Pcbnew,(5.1.0)-1
; #@! TF.FileFunction,Plated,1,2,PTH
FMAT,2
METRIC
T1C0.400
T2C0.762
T3C1.001
%
G90
G05
T1
X17.78Y-80.01
X71.12Y-51.435
X72.39Y-56.242
X75.565Y-49.53
X77.03Y-50.995
T2
X80.01Y-36.83
X80.01Y-39.37
X80.01Y-41.91
X80.01Y-44.45
X80.01Y-46.99
X80.01Y-49.53
X80.01Y-52.07
X80.01Y-54.61
X80.01Y-57.15
X80.01Y-59.69
X80.01Y-62.23
X80.01Y-64.77
X80.01Y-67.31
X80.01Y-69.85
X80.01Y-72.39
X80.01Y-74.93
X80.01Y-77.47
X80.01Y-80.01
X80.01Y-82.55
X80.01Y-85.09
X59.69Y-35.56
X59.69Y-38.1
X59.69Y-40.64
X59.69Y-43.18
X59.69Y-45.72
X59.69Y-48.26
X59.69Y-50.8
X59.69Y-53.34
X59.69Y-55.88
X59.69Y-58.42
X59.69Y-60.96
X59.69Y-63.5
X59.69Y-66.04
X59.69Y-68.58
X59.69Y-71.12
X59.69Y-73.66
X59.69Y-76.2
X59.69Y-78.74
X59.69Y-81.28
X59.69Y-83.82
X59.69Y-86.36
X59.69Y-88.9
X59.69Y-91.44
X59.69Y-93.98
X59.69Y-96.52
X59.69Y-99.06
X59.69Y-101.6
X59.69Y-104.14
X59.69Y-106.68
X59.69Y-109.22
X59.69Y-111.76
X59.69Y-114.3
X30.48Y-64.77
X30.48Y-67.31
X30.48Y-69.85
X30.48Y-72.39
X30.48Y-74.93
X30.48Y-77.47
X30.48Y-80.01
X38.1Y-64.77
X38.1Y-67.31
X38.1Y-69.85
X38.1Y-72.39
X38.1Y-74.93
X38.1Y-77.47
X38.1Y-80.01
X67.31Y-35.56
X67.31Y-38.1
X67.31Y-40.64
X67.31Y-43.18
X67.31Y-45.72
X67.31Y-48.26
X67.31Y-50.8
X67.31Y-53.34
X67.31Y-55.88
X67.31Y-58.42
X67.31Y-60.96
X67.31Y-63.5
X67.31Y-66.04
X67.31Y-68.58
X67.31Y-71.12
X67.31Y-73.66
X67.31Y-76.2
X67.31Y-78.74
X67.31Y-81.28
X67.31Y-83.82
X67.31Y-86.36
X67.31Y-88.9
X67.31Y-91.44
X67.31Y-93.98
X67.31Y-96.52
X67.31Y-99.06
X67.31Y-101.6
X67.31Y-104.14
X67.31Y-106.68
X67.31Y-109.22
X67.31Y-111.76
X67.31Y-114.3
T3
X16.51Y-35.56
X20.32Y-35.56
X46.99Y-35.56
X50.8Y-35.56
X16.51Y-92.71
X16.51Y-96.52
X40.64Y-113.03
X44.45Y-113.03
T0
M30
